G04 #@! TF.GenerationSoftware,KiCad,Pcbnew,5.1.10*
G04 #@! TF.CreationDate,2021-08-06T08:54:22+02:00*
G04 #@! TF.ProjectId,nano,6e616e6f-2e6b-4696-9361-645f70636258,rev?*
G04 #@! TF.SameCoordinates,Original*
G04 #@! TF.FileFunction,Legend,Top*
G04 #@! TF.FilePolarity,Positive*
%FSLAX46Y46*%
G04 Gerber Fmt 4.6, Leading zero omitted, Abs format (unit mm)*
G04 Created by KiCad (PCBNEW 5.1.10) date 2021-08-06 08:54:22*
%MOMM*%
%LPD*%
G01*
G04 APERTURE LIST*
%ADD10C,0.150000*%
%ADD11C,0.400000*%
%ADD12C,0.120000*%
G04 APERTURE END LIST*
D10*
X93706285Y-110893142D02*
X93592000Y-110893142D01*
X93477714Y-110836000D01*
X93420571Y-110778857D01*
X93363428Y-110664571D01*
X93306285Y-110436000D01*
X93306285Y-110150285D01*
X93363428Y-109921714D01*
X93420571Y-109807428D01*
X93477714Y-109750285D01*
X93592000Y-109693142D01*
X93706285Y-109693142D01*
X93820571Y-109750285D01*
X93877714Y-109807428D01*
X93934857Y-109921714D01*
X93992000Y-110150285D01*
X93992000Y-110436000D01*
X93934857Y-110664571D01*
X93877714Y-110778857D01*
X93820571Y-110836000D01*
X93706285Y-110893142D01*
X92220571Y-110893142D02*
X92792000Y-110893142D01*
X92849142Y-110321714D01*
X92792000Y-110378857D01*
X92677714Y-110436000D01*
X92392000Y-110436000D01*
X92277714Y-110378857D01*
X92220571Y-110321714D01*
X92163428Y-110207428D01*
X92163428Y-109921714D01*
X92220571Y-109807428D01*
X92277714Y-109750285D01*
X92392000Y-109693142D01*
X92677714Y-109693142D01*
X92792000Y-109750285D01*
X92849142Y-109807428D01*
X90792000Y-110950285D02*
X91820571Y-109407428D01*
X90163428Y-110893142D02*
X90049142Y-110893142D01*
X89934857Y-110836000D01*
X89877714Y-110778857D01*
X89820571Y-110664571D01*
X89763428Y-110436000D01*
X89763428Y-110150285D01*
X89820571Y-109921714D01*
X89877714Y-109807428D01*
X89934857Y-109750285D01*
X90049142Y-109693142D01*
X90163428Y-109693142D01*
X90277714Y-109750285D01*
X90334857Y-109807428D01*
X90392000Y-109921714D01*
X90449142Y-110150285D01*
X90449142Y-110436000D01*
X90392000Y-110664571D01*
X90334857Y-110778857D01*
X90277714Y-110836000D01*
X90163428Y-110893142D01*
X89077714Y-110378857D02*
X89192000Y-110436000D01*
X89249142Y-110493142D01*
X89306285Y-110607428D01*
X89306285Y-110664571D01*
X89249142Y-110778857D01*
X89192000Y-110836000D01*
X89077714Y-110893142D01*
X88849142Y-110893142D01*
X88734857Y-110836000D01*
X88677714Y-110778857D01*
X88620571Y-110664571D01*
X88620571Y-110607428D01*
X88677714Y-110493142D01*
X88734857Y-110436000D01*
X88849142Y-110378857D01*
X89077714Y-110378857D01*
X89192000Y-110321714D01*
X89249142Y-110264571D01*
X89306285Y-110150285D01*
X89306285Y-109921714D01*
X89249142Y-109807428D01*
X89192000Y-109750285D01*
X89077714Y-109693142D01*
X88849142Y-109693142D01*
X88734857Y-109750285D01*
X88677714Y-109807428D01*
X88620571Y-109921714D01*
X88620571Y-110150285D01*
X88677714Y-110264571D01*
X88734857Y-110321714D01*
X88849142Y-110378857D01*
X87249142Y-110950285D02*
X88277714Y-109407428D01*
X86906285Y-110778857D02*
X86849142Y-110836000D01*
X86734857Y-110893142D01*
X86449142Y-110893142D01*
X86334857Y-110836000D01*
X86277714Y-110778857D01*
X86220571Y-110664571D01*
X86220571Y-110550285D01*
X86277714Y-110378857D01*
X86963428Y-109693142D01*
X86220571Y-109693142D01*
X85477714Y-110893142D02*
X85363428Y-110893142D01*
X85249142Y-110836000D01*
X85192000Y-110778857D01*
X85134857Y-110664571D01*
X85077714Y-110436000D01*
X85077714Y-110150285D01*
X85134857Y-109921714D01*
X85192000Y-109807428D01*
X85249142Y-109750285D01*
X85363428Y-109693142D01*
X85477714Y-109693142D01*
X85592000Y-109750285D01*
X85649142Y-109807428D01*
X85706285Y-109921714D01*
X85763428Y-110150285D01*
X85763428Y-110436000D01*
X85706285Y-110664571D01*
X85649142Y-110778857D01*
X85592000Y-110836000D01*
X85477714Y-110893142D01*
X84620571Y-110778857D02*
X84563428Y-110836000D01*
X84449142Y-110893142D01*
X84163428Y-110893142D01*
X84049142Y-110836000D01*
X83992000Y-110778857D01*
X83934857Y-110664571D01*
X83934857Y-110550285D01*
X83992000Y-110378857D01*
X84677714Y-109693142D01*
X83934857Y-109693142D01*
X82792000Y-109693142D02*
X83477714Y-109693142D01*
X83134857Y-109693142D02*
X83134857Y-110893142D01*
X83249142Y-110721714D01*
X83363428Y-110607428D01*
X83477714Y-110550285D01*
X93306428Y-111471142D02*
X93706428Y-112042571D01*
X93992142Y-111471142D02*
X93992142Y-112671142D01*
X93535000Y-112671142D01*
X93420714Y-112614000D01*
X93363571Y-112556857D01*
X93306428Y-112442571D01*
X93306428Y-112271142D01*
X93363571Y-112156857D01*
X93420714Y-112099714D01*
X93535000Y-112042571D01*
X93992142Y-112042571D01*
X92335000Y-111528285D02*
X92449285Y-111471142D01*
X92677857Y-111471142D01*
X92792142Y-111528285D01*
X92849285Y-111642571D01*
X92849285Y-112099714D01*
X92792142Y-112214000D01*
X92677857Y-112271142D01*
X92449285Y-112271142D01*
X92335000Y-112214000D01*
X92277857Y-112099714D01*
X92277857Y-111985428D01*
X92849285Y-111871142D01*
X92449285Y-112728285D02*
X92620714Y-112556857D01*
X91877857Y-112271142D02*
X91592142Y-111471142D01*
X91306428Y-112271142D01*
X90849285Y-111471142D02*
X90849285Y-112271142D01*
X90849285Y-112671142D02*
X90906428Y-112614000D01*
X90849285Y-112556857D01*
X90792142Y-112614000D01*
X90849285Y-112671142D01*
X90849285Y-112556857D01*
X90335000Y-111528285D02*
X90220714Y-111471142D01*
X89992142Y-111471142D01*
X89877857Y-111528285D01*
X89820714Y-111642571D01*
X89820714Y-111699714D01*
X89877857Y-111814000D01*
X89992142Y-111871142D01*
X90163571Y-111871142D01*
X90277857Y-111928285D01*
X90335000Y-112042571D01*
X90335000Y-112099714D01*
X90277857Y-112214000D01*
X90163571Y-112271142D01*
X89992142Y-112271142D01*
X89877857Y-112214000D01*
X89306428Y-111471142D02*
X89306428Y-112271142D01*
X89306428Y-112671142D02*
X89363571Y-112614000D01*
X89306428Y-112556857D01*
X89249285Y-112614000D01*
X89306428Y-112671142D01*
X89306428Y-112556857D01*
X88563571Y-111471142D02*
X88677857Y-111528285D01*
X88735000Y-111585428D01*
X88792142Y-111699714D01*
X88792142Y-112042571D01*
X88735000Y-112156857D01*
X88677857Y-112214000D01*
X88563571Y-112271142D01*
X88392142Y-112271142D01*
X88277857Y-112214000D01*
X88220714Y-112156857D01*
X88163571Y-112042571D01*
X88163571Y-111699714D01*
X88220714Y-111585428D01*
X88277857Y-111528285D01*
X88392142Y-111471142D01*
X88563571Y-111471142D01*
X87649285Y-112271142D02*
X87649285Y-111471142D01*
X87649285Y-112156857D02*
X87592142Y-112214000D01*
X87477857Y-112271142D01*
X87306428Y-112271142D01*
X87192142Y-112214000D01*
X87135000Y-112099714D01*
X87135000Y-111471142D01*
X85020714Y-111471142D02*
X85706428Y-111471142D01*
X85363571Y-111471142D02*
X85363571Y-112671142D01*
X85477857Y-112499714D01*
X85592142Y-112385428D01*
X85706428Y-112328285D01*
X93322142Y-126704714D02*
X93722142Y-126704714D01*
X93722142Y-126076142D02*
X93722142Y-127276142D01*
X93150714Y-127276142D01*
X92522142Y-126076142D02*
X92636428Y-126133285D01*
X92693571Y-126190428D01*
X92750714Y-126304714D01*
X92750714Y-126647571D01*
X92693571Y-126761857D01*
X92636428Y-126819000D01*
X92522142Y-126876142D01*
X92350714Y-126876142D01*
X92236428Y-126819000D01*
X92179285Y-126761857D01*
X92122142Y-126647571D01*
X92122142Y-126304714D01*
X92179285Y-126190428D01*
X92236428Y-126133285D01*
X92350714Y-126076142D01*
X92522142Y-126076142D01*
X91436428Y-126076142D02*
X91550714Y-126133285D01*
X91607857Y-126190428D01*
X91665000Y-126304714D01*
X91665000Y-126647571D01*
X91607857Y-126761857D01*
X91550714Y-126819000D01*
X91436428Y-126876142D01*
X91265000Y-126876142D01*
X91150714Y-126819000D01*
X91093571Y-126761857D01*
X91036428Y-126647571D01*
X91036428Y-126304714D01*
X91093571Y-126190428D01*
X91150714Y-126133285D01*
X91265000Y-126076142D01*
X91436428Y-126076142D01*
X90350714Y-126076142D02*
X90465000Y-126133285D01*
X90522142Y-126247571D01*
X90522142Y-127276142D01*
X89893571Y-126533285D02*
X88979285Y-126533285D01*
X88407857Y-126076142D02*
X88407857Y-127276142D01*
X88122142Y-127276142D01*
X87950714Y-127219000D01*
X87836428Y-127104714D01*
X87779285Y-126990428D01*
X87722142Y-126761857D01*
X87722142Y-126590428D01*
X87779285Y-126361857D01*
X87836428Y-126247571D01*
X87950714Y-126133285D01*
X88122142Y-126076142D01*
X88407857Y-126076142D01*
X86693571Y-126876142D02*
X86693571Y-126076142D01*
X87207857Y-126876142D02*
X87207857Y-126247571D01*
X87150714Y-126133285D01*
X87036428Y-126076142D01*
X86865000Y-126076142D01*
X86750714Y-126133285D01*
X86693571Y-126190428D01*
X86122142Y-126876142D02*
X86122142Y-125676142D01*
X86122142Y-126819000D02*
X86007857Y-126876142D01*
X85779285Y-126876142D01*
X85665000Y-126819000D01*
X85607857Y-126761857D01*
X85550714Y-126647571D01*
X85550714Y-126304714D01*
X85607857Y-126190428D01*
X85665000Y-126133285D01*
X85779285Y-126076142D01*
X86007857Y-126076142D01*
X86122142Y-126133285D01*
X84865000Y-126076142D02*
X84979285Y-126133285D01*
X85036428Y-126247571D01*
X85036428Y-127276142D01*
X83950714Y-126133285D02*
X84065000Y-126076142D01*
X84293571Y-126076142D01*
X84407857Y-126133285D01*
X84465000Y-126247571D01*
X84465000Y-126704714D01*
X84407857Y-126819000D01*
X84293571Y-126876142D01*
X84065000Y-126876142D01*
X83950714Y-126819000D01*
X83893571Y-126704714D01*
X83893571Y-126590428D01*
X84465000Y-126476142D01*
X83493571Y-127276142D02*
X82693571Y-126076142D01*
X82693571Y-127276142D02*
X83493571Y-126076142D01*
X92951000Y-128349428D02*
X93008142Y-128292285D01*
X93179571Y-128235142D01*
X93293857Y-128235142D01*
X93465285Y-128292285D01*
X93579571Y-128406571D01*
X93636714Y-128520857D01*
X93693857Y-128749428D01*
X93693857Y-128920857D01*
X93636714Y-129149428D01*
X93579571Y-129263714D01*
X93465285Y-129378000D01*
X93293857Y-129435142D01*
X93179571Y-129435142D01*
X93008142Y-129378000D01*
X92951000Y-129320857D01*
X91922428Y-128235142D02*
X91922428Y-128863714D01*
X91979571Y-128978000D01*
X92093857Y-129035142D01*
X92322428Y-129035142D01*
X92436714Y-128978000D01*
X91922428Y-128292285D02*
X92036714Y-128235142D01*
X92322428Y-128235142D01*
X92436714Y-128292285D01*
X92493857Y-128406571D01*
X92493857Y-128520857D01*
X92436714Y-128635142D01*
X92322428Y-128692285D01*
X92036714Y-128692285D01*
X91922428Y-128749428D01*
X91351000Y-128235142D02*
X91351000Y-129035142D01*
X91351000Y-128920857D02*
X91293857Y-128978000D01*
X91179571Y-129035142D01*
X91008142Y-129035142D01*
X90893857Y-128978000D01*
X90836714Y-128863714D01*
X90836714Y-128235142D01*
X90836714Y-128863714D02*
X90779571Y-128978000D01*
X90665285Y-129035142D01*
X90493857Y-129035142D01*
X90379571Y-128978000D01*
X90322428Y-128863714D01*
X90322428Y-128235142D01*
X89751000Y-128235142D02*
X89751000Y-129035142D01*
X89751000Y-129435142D02*
X89808142Y-129378000D01*
X89751000Y-129320857D01*
X89693857Y-129378000D01*
X89751000Y-129435142D01*
X89751000Y-129320857D01*
X89008142Y-128235142D02*
X89122428Y-128292285D01*
X89179571Y-128406571D01*
X89179571Y-129435142D01*
X88379571Y-128235142D02*
X88493857Y-128292285D01*
X88551000Y-128406571D01*
X88551000Y-129435142D01*
X87465285Y-128292285D02*
X87579571Y-128235142D01*
X87808142Y-128235142D01*
X87922428Y-128292285D01*
X87979571Y-128406571D01*
X87979571Y-128863714D01*
X87922428Y-128978000D01*
X87808142Y-129035142D01*
X87579571Y-129035142D01*
X87465285Y-128978000D01*
X87408142Y-128863714D01*
X87408142Y-128749428D01*
X87979571Y-128635142D01*
X93043142Y-130521142D02*
X93443142Y-131092571D01*
X93728857Y-130521142D02*
X93728857Y-131721142D01*
X93271714Y-131721142D01*
X93157428Y-131664000D01*
X93100285Y-131606857D01*
X93043142Y-131492571D01*
X93043142Y-131321142D01*
X93100285Y-131206857D01*
X93157428Y-131149714D01*
X93271714Y-131092571D01*
X93728857Y-131092571D01*
X92357428Y-130521142D02*
X92471714Y-130578285D01*
X92528857Y-130635428D01*
X92586000Y-130749714D01*
X92586000Y-131092571D01*
X92528857Y-131206857D01*
X92471714Y-131264000D01*
X92357428Y-131321142D01*
X92186000Y-131321142D01*
X92071714Y-131264000D01*
X92014571Y-131206857D01*
X91957428Y-131092571D01*
X91957428Y-130749714D01*
X92014571Y-130635428D01*
X92071714Y-130578285D01*
X92186000Y-130521142D01*
X92357428Y-130521142D01*
X90928857Y-130521142D02*
X90928857Y-131721142D01*
X90928857Y-130578285D02*
X91043142Y-130521142D01*
X91271714Y-130521142D01*
X91386000Y-130578285D01*
X91443142Y-130635428D01*
X91500285Y-130749714D01*
X91500285Y-131092571D01*
X91443142Y-131206857D01*
X91386000Y-131264000D01*
X91271714Y-131321142D01*
X91043142Y-131321142D01*
X90928857Y-131264000D01*
X90357428Y-130521142D02*
X90357428Y-131321142D01*
X90357428Y-131092571D02*
X90300285Y-131206857D01*
X90243142Y-131264000D01*
X90128857Y-131321142D01*
X90014571Y-131321142D01*
X89614571Y-130521142D02*
X89614571Y-131321142D01*
X89614571Y-131721142D02*
X89671714Y-131664000D01*
X89614571Y-131606857D01*
X89557428Y-131664000D01*
X89614571Y-131721142D01*
X89614571Y-131606857D01*
X89043142Y-130521142D02*
X89043142Y-131721142D01*
X88928857Y-130978285D02*
X88586000Y-130521142D01*
X88586000Y-131321142D02*
X89043142Y-130864000D01*
D11*
X113576714Y-128563857D02*
X115291000Y-128563857D01*
X114433857Y-128563857D02*
X114433857Y-131563857D01*
X114719571Y-131135285D01*
X115005285Y-130849571D01*
X115291000Y-130706714D01*
X111005285Y-131563857D02*
X111576714Y-131563857D01*
X111862428Y-131421000D01*
X112005285Y-131278142D01*
X112291000Y-130849571D01*
X112433857Y-130278142D01*
X112433857Y-129135285D01*
X112291000Y-128849571D01*
X112148142Y-128706714D01*
X111862428Y-128563857D01*
X111291000Y-128563857D01*
X111005285Y-128706714D01*
X110862428Y-128849571D01*
X110719571Y-129135285D01*
X110719571Y-129849571D01*
X110862428Y-130135285D01*
X111005285Y-130278142D01*
X111291000Y-130421000D01*
X111862428Y-130421000D01*
X112148142Y-130278142D01*
X112291000Y-130135285D01*
X112433857Y-129849571D01*
X108148142Y-131563857D02*
X108719571Y-131563857D01*
X109005285Y-131421000D01*
X109148142Y-131278142D01*
X109433857Y-130849571D01*
X109576714Y-130278142D01*
X109576714Y-129135285D01*
X109433857Y-128849571D01*
X109291000Y-128706714D01*
X109005285Y-128563857D01*
X108433857Y-128563857D01*
X108148142Y-128706714D01*
X108005285Y-128849571D01*
X107862428Y-129135285D01*
X107862428Y-129849571D01*
X108005285Y-130135285D01*
X108148142Y-130278142D01*
X108433857Y-130421000D01*
X109005285Y-130421000D01*
X109291000Y-130278142D01*
X109433857Y-130135285D01*
X109576714Y-129849571D01*
X105291000Y-130563857D02*
X105291000Y-128563857D01*
X106005285Y-131706714D02*
X106719571Y-129563857D01*
X104862428Y-129563857D01*
X102433857Y-130563857D02*
X102433857Y-128563857D01*
X103148142Y-131706714D02*
X103862428Y-129563857D01*
X102005285Y-129563857D01*
X100862428Y-128563857D02*
X100862428Y-131563857D01*
X100148142Y-131563857D01*
X99719571Y-131421000D01*
X99433857Y-131135285D01*
X99291000Y-130849571D01*
X99148142Y-130278142D01*
X99148142Y-129849571D01*
X99291000Y-129278142D01*
X99433857Y-128992428D01*
X99719571Y-128706714D01*
X100148142Y-128563857D01*
X100862428Y-128563857D01*
X96291000Y-128563857D02*
X98005285Y-128563857D01*
X97148142Y-128563857D02*
X97148142Y-131563857D01*
X97433857Y-131135285D01*
X97719571Y-130849571D01*
X98005285Y-130706714D01*
D12*
X81595000Y-77146000D02*
X93935000Y-77146000D01*
X93935000Y-77146000D02*
X93935000Y-108116000D01*
X93935000Y-108116000D02*
X81595000Y-108116000D01*
X94829338Y-97921000D02*
X94829338Y-98421000D01*
X94829338Y-98421000D02*
X94396325Y-98171000D01*
X94396325Y-98171000D02*
X94829338Y-97921000D01*
X80650000Y-30900000D02*
X80650000Y-136100000D01*
X90550000Y-119050000D02*
X90550000Y-115400000D01*
X90550000Y-119050000D02*
X90550000Y-123350000D01*
X81450000Y-115400000D02*
X90550000Y-115400000D01*
X81450000Y-123350000D02*
X90550000Y-123350000D01*
X88966364Y-119350000D02*
G75*
G03*
X88966364Y-119350000I-1438354J0D01*
G01*
X81450000Y-30900000D02*
X81450000Y-136450000D01*
X74200000Y-136450000D02*
X81450000Y-136450000D01*
X74200000Y-136100000D02*
X81150000Y-136100000D01*
X69150000Y-136100000D02*
X74200000Y-136100000D01*
X80650000Y-30900000D02*
X80650000Y-15350000D01*
X81450000Y-22400000D02*
X81450000Y-30900000D01*
X81450000Y-30900000D02*
X81450000Y-30950000D01*
X81450000Y-43400000D02*
X90600000Y-43400000D01*
X81450000Y-51350000D02*
X90600000Y-51350000D01*
X90600000Y-47050000D02*
X90600000Y-51350000D01*
X88981782Y-47350000D02*
G75*
G03*
X88981782Y-47350000I-1431782J0D01*
G01*
X90600000Y-47050000D02*
X90600000Y-43400000D01*
X74200000Y-136450000D02*
X69150000Y-136450000D01*
X69150000Y-136450000D02*
X69150000Y-136100000D01*
X81450000Y-22400000D02*
X81450000Y-15350000D01*
X81450000Y-15350000D02*
X80650000Y-15350000D01*
X80100000Y-131050000D02*
X77400000Y-133750000D01*
X77400000Y-133750000D02*
X75050000Y-136100000D01*
X80100000Y-131050000D02*
X80650000Y-130500000D01*
X105400000Y-43320000D02*
X105400000Y-34370000D01*
X186750000Y-34370000D02*
X187150000Y-34370000D01*
X186750000Y-43320000D02*
X186750000Y-34370000D01*
X157837000Y-69500000D02*
X154837000Y-69500000D01*
X157837000Y-65500000D02*
X157837000Y-69500000D01*
X154837000Y-65500000D02*
X157837000Y-65500000D01*
X154837000Y-69500000D02*
X154837000Y-65500000D01*
X144430000Y-128280000D02*
X144430000Y-131720000D01*
X144430000Y-131720000D02*
X153670000Y-131720000D01*
X153670000Y-131720000D02*
X153670000Y-128280000D01*
X153670000Y-128280000D02*
X144430000Y-128280000D01*
X143740000Y-130000000D02*
X144430000Y-130000000D01*
X154360000Y-130000000D02*
X153670000Y-130000000D01*
X166930000Y-65680000D02*
X166930000Y-69120000D01*
X166930000Y-69120000D02*
X176170000Y-69120000D01*
X176170000Y-69120000D02*
X176170000Y-65680000D01*
X176170000Y-65680000D02*
X166930000Y-65680000D01*
X166240000Y-67400000D02*
X166930000Y-67400000D01*
X176860000Y-67400000D02*
X176170000Y-67400000D01*
X172130000Y-94880000D02*
X172130000Y-98320000D01*
X172130000Y-98320000D02*
X181370000Y-98320000D01*
X181370000Y-98320000D02*
X181370000Y-94880000D01*
X181370000Y-94880000D02*
X172130000Y-94880000D01*
X171440000Y-96600000D02*
X172130000Y-96600000D01*
X182060000Y-96600000D02*
X181370000Y-96600000D01*
X167780000Y-126770000D02*
X171220000Y-126770000D01*
X171220000Y-126770000D02*
X171220000Y-117530000D01*
X171220000Y-117530000D02*
X167780000Y-117530000D01*
X167780000Y-117530000D02*
X167780000Y-126770000D01*
X169500000Y-127460000D02*
X169500000Y-126770000D01*
X169500000Y-116840000D02*
X169500000Y-117530000D01*
X166180000Y-110270000D02*
X169620000Y-110270000D01*
X169620000Y-110270000D02*
X169620000Y-101030000D01*
X169620000Y-101030000D02*
X166180000Y-101030000D01*
X166180000Y-101030000D02*
X166180000Y-110270000D01*
X167900000Y-110960000D02*
X167900000Y-110270000D01*
X167900000Y-100340000D02*
X167900000Y-101030000D01*
X158980000Y-124630000D02*
X164220000Y-124630000D01*
X158980000Y-127370000D02*
X164220000Y-127370000D01*
X158980000Y-124630000D02*
X158980000Y-124945000D01*
X158980000Y-127055000D02*
X158980000Y-127370000D01*
X164220000Y-124630000D02*
X164220000Y-124945000D01*
X164220000Y-127055000D02*
X164220000Y-127370000D01*
X143780000Y-119630000D02*
X149020000Y-119630000D01*
X143780000Y-122370000D02*
X149020000Y-122370000D01*
X143780000Y-119630000D02*
X143780000Y-119945000D01*
X143780000Y-122055000D02*
X143780000Y-122370000D01*
X149020000Y-119630000D02*
X149020000Y-119945000D01*
X149020000Y-122055000D02*
X149020000Y-122370000D01*
X101380000Y-111570000D02*
X104820000Y-111570000D01*
X104820000Y-111570000D02*
X104820000Y-102330000D01*
X104820000Y-102330000D02*
X101380000Y-102330000D01*
X101380000Y-102330000D02*
X101380000Y-111570000D01*
X103100000Y-112260000D02*
X103100000Y-111570000D01*
X103100000Y-101640000D02*
X103100000Y-102330000D01*
X88380000Y-69470000D02*
X91820000Y-69470000D01*
X91820000Y-69470000D02*
X91820000Y-60230000D01*
X91820000Y-60230000D02*
X88380000Y-60230000D01*
X88380000Y-60230000D02*
X88380000Y-69470000D01*
X90100000Y-70160000D02*
X90100000Y-69470000D01*
X90100000Y-59540000D02*
X90100000Y-60230000D01*
X183530000Y-65680000D02*
X183530000Y-69120000D01*
X183530000Y-69120000D02*
X192770000Y-69120000D01*
X192770000Y-69120000D02*
X192770000Y-65680000D01*
X192770000Y-65680000D02*
X183530000Y-65680000D01*
X182840000Y-67400000D02*
X183530000Y-67400000D01*
X193460000Y-67400000D02*
X192770000Y-67400000D01*
X199830000Y-68080000D02*
X199830000Y-71520000D01*
X199830000Y-71520000D02*
X209070000Y-71520000D01*
X209070000Y-71520000D02*
X209070000Y-68080000D01*
X209070000Y-68080000D02*
X199830000Y-68080000D01*
X199140000Y-69800000D02*
X199830000Y-69800000D01*
X209760000Y-69800000D02*
X209070000Y-69800000D01*
X198430000Y-114080000D02*
X198430000Y-117520000D01*
X198430000Y-117520000D02*
X207670000Y-117520000D01*
X207670000Y-117520000D02*
X207670000Y-114080000D01*
X207670000Y-114080000D02*
X198430000Y-114080000D01*
X197740000Y-115800000D02*
X198430000Y-115800000D01*
X208360000Y-115800000D02*
X207670000Y-115800000D01*
X154430000Y-114080000D02*
X154430000Y-117520000D01*
X154430000Y-117520000D02*
X163670000Y-117520000D01*
X163670000Y-117520000D02*
X163670000Y-114080000D01*
X163670000Y-114080000D02*
X154430000Y-114080000D01*
X153740000Y-115800000D02*
X154430000Y-115800000D01*
X164360000Y-115800000D02*
X163670000Y-115800000D01*
X154430000Y-119080000D02*
X154430000Y-122520000D01*
X154430000Y-122520000D02*
X163670000Y-122520000D01*
X163670000Y-122520000D02*
X163670000Y-119080000D01*
X163670000Y-119080000D02*
X154430000Y-119080000D01*
X153740000Y-120800000D02*
X154430000Y-120800000D01*
X164360000Y-120800000D02*
X163670000Y-120800000D01*
X144430000Y-124280000D02*
X144430000Y-127720000D01*
X144430000Y-127720000D02*
X153670000Y-127720000D01*
X153670000Y-127720000D02*
X153670000Y-124280000D01*
X153670000Y-124280000D02*
X144430000Y-124280000D01*
X143740000Y-126000000D02*
X144430000Y-126000000D01*
X154360000Y-126000000D02*
X153670000Y-126000000D01*
X216000000Y-52100000D02*
X213000000Y-52100000D01*
X216000000Y-48100000D02*
X216000000Y-52100000D01*
X213000000Y-48100000D02*
X216000000Y-48100000D01*
X213000000Y-52100000D02*
X213000000Y-48100000D01*
X210900000Y-52100000D02*
X207900000Y-52100000D01*
X210900000Y-48100000D02*
X210900000Y-52100000D01*
X207900000Y-48100000D02*
X210900000Y-48100000D01*
X207900000Y-52100000D02*
X207900000Y-48100000D01*
X205800000Y-52100000D02*
X202800000Y-52100000D01*
X205800000Y-48100000D02*
X205800000Y-52100000D01*
X202800000Y-48100000D02*
X205800000Y-48100000D01*
X202800000Y-52100000D02*
X202800000Y-48100000D01*
X200800000Y-52100000D02*
X197800000Y-52100000D01*
X200800000Y-48100000D02*
X200800000Y-52100000D01*
X197800000Y-48100000D02*
X200800000Y-48100000D01*
X197800000Y-52100000D02*
X197800000Y-48100000D01*
X152600000Y-99300000D02*
X149600000Y-99300000D01*
X152600000Y-95300000D02*
X152600000Y-99300000D01*
X149600000Y-95300000D02*
X152600000Y-95300000D01*
X149600000Y-99300000D02*
X149600000Y-95300000D01*
X141581000Y-97107000D02*
X138581000Y-97107000D01*
X141581000Y-93107000D02*
X141581000Y-97107000D01*
X138581000Y-93107000D02*
X141581000Y-93107000D01*
X138581000Y-97107000D02*
X138581000Y-93107000D01*
X138600000Y-97100000D02*
X135600000Y-97100000D01*
X138600000Y-93100000D02*
X138600000Y-97100000D01*
X135600000Y-93100000D02*
X138600000Y-93100000D01*
X135600000Y-97100000D02*
X135600000Y-93100000D01*
X135612000Y-97107000D02*
X132612000Y-97107000D01*
X135612000Y-93107000D02*
X135612000Y-97107000D01*
X132612000Y-93107000D02*
X135612000Y-93107000D01*
X132612000Y-97107000D02*
X132612000Y-93107000D01*
X163425000Y-69500000D02*
X160425000Y-69500000D01*
X163425000Y-65500000D02*
X163425000Y-69500000D01*
X160425000Y-65500000D02*
X163425000Y-65500000D01*
X160425000Y-69500000D02*
X160425000Y-65500000D01*
X160631000Y-69500000D02*
X157631000Y-69500000D01*
X160631000Y-65500000D02*
X160631000Y-69500000D01*
X157631000Y-65500000D02*
X160631000Y-65500000D01*
X157631000Y-69500000D02*
X157631000Y-65500000D01*
X155170000Y-69500000D02*
X152170000Y-69500000D01*
X155170000Y-65500000D02*
X155170000Y-69500000D01*
X152170000Y-65500000D02*
X155170000Y-65500000D01*
X152170000Y-69500000D02*
X152170000Y-65500000D01*
X152503000Y-69500000D02*
X149503000Y-69500000D01*
X152503000Y-65500000D02*
X152503000Y-69500000D01*
X149503000Y-65500000D02*
X152503000Y-65500000D01*
X149503000Y-69500000D02*
X149503000Y-65500000D01*
X149836000Y-69500000D02*
X146836000Y-69500000D01*
X149836000Y-65500000D02*
X149836000Y-69500000D01*
X146836000Y-65500000D02*
X149836000Y-65500000D01*
X146836000Y-69500000D02*
X146836000Y-65500000D01*
X164600000Y-98100000D02*
X161600000Y-98100000D01*
X164600000Y-94100000D02*
X164600000Y-98100000D01*
X161600000Y-94100000D02*
X164600000Y-94100000D01*
X161600000Y-98100000D02*
X161600000Y-94100000D01*
X161400000Y-98100000D02*
X158400000Y-98100000D01*
X161400000Y-94100000D02*
X161400000Y-98100000D01*
X158400000Y-94100000D02*
X161400000Y-94100000D01*
X158400000Y-98100000D02*
X158400000Y-94100000D01*
X175680500Y-50900000D02*
X172680500Y-50900000D01*
X175680500Y-46900000D02*
X175680500Y-50900000D01*
X172680500Y-46900000D02*
X175680500Y-46900000D01*
X172680500Y-50900000D02*
X172680500Y-46900000D01*
X172696000Y-50911000D02*
X169696000Y-50911000D01*
X172696000Y-46911000D02*
X172696000Y-50911000D01*
X169696000Y-46911000D02*
X172696000Y-46911000D01*
X169696000Y-50911000D02*
X169696000Y-46911000D01*
X216200000Y-67300000D02*
X213200000Y-67300000D01*
X216200000Y-63300000D02*
X216200000Y-67300000D01*
X213200000Y-63300000D02*
X216200000Y-63300000D01*
X213200000Y-67300000D02*
X213200000Y-63300000D01*
X212400000Y-67300000D02*
X209400000Y-67300000D01*
X212400000Y-63300000D02*
X212400000Y-67300000D01*
X209400000Y-63300000D02*
X212400000Y-63300000D01*
X209400000Y-67300000D02*
X209400000Y-63300000D01*
X208600000Y-67300000D02*
X205600000Y-67300000D01*
X208600000Y-63300000D02*
X208600000Y-67300000D01*
X205600000Y-63300000D02*
X208600000Y-63300000D01*
X205600000Y-67300000D02*
X205600000Y-63300000D01*
X204600000Y-67300000D02*
X201600000Y-67300000D01*
X204600000Y-63300000D02*
X204600000Y-67300000D01*
X201600000Y-63300000D02*
X204600000Y-63300000D01*
X201600000Y-67300000D02*
X201600000Y-63300000D01*
X202287000Y-86800000D02*
X199287000Y-86800000D01*
X202287000Y-82800000D02*
X202287000Y-86800000D01*
X199287000Y-82800000D02*
X202287000Y-82800000D01*
X199287000Y-86800000D02*
X199287000Y-82800000D01*
X199429500Y-86800000D02*
X196429500Y-86800000D01*
X199429500Y-82800000D02*
X199429500Y-86800000D01*
X196429500Y-82800000D02*
X199429500Y-82800000D01*
X196429500Y-86800000D02*
X196429500Y-82800000D01*
X196572000Y-86800000D02*
X193572000Y-86800000D01*
X196572000Y-82800000D02*
X196572000Y-86800000D01*
X193572000Y-82800000D02*
X196572000Y-82800000D01*
X193572000Y-86800000D02*
X193572000Y-82800000D01*
X137430000Y-78370000D02*
X137430000Y-73830000D01*
X139570000Y-78370000D02*
X139570000Y-73830000D01*
X137430000Y-78370000D02*
X137445000Y-78370000D01*
X139555000Y-78370000D02*
X139570000Y-78370000D01*
X137430000Y-73830000D02*
X137445000Y-73830000D01*
X139555000Y-73830000D02*
X139570000Y-73830000D01*
X133630000Y-58370000D02*
X133630000Y-53830000D01*
X135770000Y-58370000D02*
X135770000Y-53830000D01*
X133630000Y-58370000D02*
X133645000Y-58370000D01*
X135755000Y-58370000D02*
X135770000Y-58370000D01*
X133630000Y-53830000D02*
X133645000Y-53830000D01*
X135755000Y-53830000D02*
X135770000Y-53830000D01*
X190630000Y-58170000D02*
X190630000Y-53630000D01*
X192770000Y-58170000D02*
X192770000Y-53630000D01*
X190630000Y-58170000D02*
X190645000Y-58170000D01*
X192755000Y-58170000D02*
X192770000Y-58170000D01*
X190630000Y-53630000D02*
X190645000Y-53630000D01*
X192755000Y-53630000D02*
X192770000Y-53630000D01*
X104370000Y-120030000D02*
X104370000Y-124570000D01*
X102230000Y-120030000D02*
X102230000Y-124570000D01*
X104370000Y-120030000D02*
X104355000Y-120030000D01*
X102245000Y-120030000D02*
X102230000Y-120030000D01*
X104370000Y-124570000D02*
X104355000Y-124570000D01*
X102245000Y-124570000D02*
X102230000Y-124570000D01*
X193630000Y-109170000D02*
X193630000Y-104630000D01*
X195770000Y-109170000D02*
X195770000Y-104630000D01*
X193630000Y-109170000D02*
X193645000Y-109170000D01*
X195755000Y-109170000D02*
X195770000Y-109170000D01*
X193630000Y-104630000D02*
X193645000Y-104630000D01*
X195755000Y-104630000D02*
X195770000Y-104630000D01*
X219030000Y-124370000D02*
X219030000Y-119830000D01*
X221170000Y-124370000D02*
X221170000Y-119830000D01*
X219030000Y-124370000D02*
X219045000Y-124370000D01*
X221155000Y-124370000D02*
X221170000Y-124370000D01*
X219030000Y-119830000D02*
X219045000Y-119830000D01*
X221155000Y-119830000D02*
X221170000Y-119830000D01*
X218830000Y-109170000D02*
X218830000Y-104630000D01*
X220970000Y-109170000D02*
X220970000Y-104630000D01*
X218830000Y-109170000D02*
X218845000Y-109170000D01*
X220955000Y-109170000D02*
X220970000Y-109170000D01*
X218830000Y-104630000D02*
X218845000Y-104630000D01*
X220955000Y-104630000D02*
X220970000Y-104630000D01*
X218830000Y-93970000D02*
X218830000Y-89430000D01*
X220970000Y-93970000D02*
X220970000Y-89430000D01*
X218830000Y-93970000D02*
X218845000Y-93970000D01*
X220955000Y-93970000D02*
X220970000Y-93970000D01*
X218830000Y-89430000D02*
X218845000Y-89430000D01*
X220955000Y-89430000D02*
X220970000Y-89430000D01*
X218630000Y-78570000D02*
X218630000Y-74030000D01*
X220770000Y-78570000D02*
X220770000Y-74030000D01*
X218630000Y-78570000D02*
X218645000Y-78570000D01*
X220755000Y-78570000D02*
X220770000Y-78570000D01*
X218630000Y-74030000D02*
X218645000Y-74030000D01*
X220755000Y-74030000D02*
X220770000Y-74030000D01*
X218630000Y-58170000D02*
X218630000Y-53630000D01*
X220770000Y-58170000D02*
X220770000Y-53630000D01*
X218630000Y-58170000D02*
X218645000Y-58170000D01*
X220755000Y-58170000D02*
X220770000Y-58170000D01*
X218630000Y-53630000D02*
X218645000Y-53630000D01*
X220755000Y-53630000D02*
X220770000Y-53630000D01*
X171770000Y-124390000D02*
X171770000Y-126040000D01*
X171770000Y-126040000D02*
X189670000Y-126040000D01*
X189670000Y-126040000D02*
X189670000Y-120740000D01*
X189670000Y-120740000D02*
X171770000Y-120740000D01*
X171770000Y-120740000D02*
X171770000Y-122390000D01*
X171770000Y-122390000D02*
G75*
G02*
X171770000Y-124390000I0J-1000000D01*
G01*
X195370000Y-124390000D02*
X195370000Y-126040000D01*
X195370000Y-126040000D02*
X215810000Y-126040000D01*
X215810000Y-126040000D02*
X215810000Y-120740000D01*
X215810000Y-120740000D02*
X195370000Y-120740000D01*
X195370000Y-120740000D02*
X195370000Y-122390000D01*
X195370000Y-122390000D02*
G75*
G02*
X195370000Y-124390000I0J-1000000D01*
G01*
X143570000Y-109190000D02*
X143570000Y-110840000D01*
X143570000Y-110840000D02*
X164010000Y-110840000D01*
X164010000Y-110840000D02*
X164010000Y-105540000D01*
X164010000Y-105540000D02*
X143570000Y-105540000D01*
X143570000Y-105540000D02*
X143570000Y-107190000D01*
X143570000Y-107190000D02*
G75*
G02*
X143570000Y-109190000I0J-1000000D01*
G01*
X171570000Y-109190000D02*
X171570000Y-110840000D01*
X171570000Y-110840000D02*
X189470000Y-110840000D01*
X189470000Y-110840000D02*
X189470000Y-105540000D01*
X189470000Y-105540000D02*
X171570000Y-105540000D01*
X171570000Y-105540000D02*
X171570000Y-107190000D01*
X171570000Y-107190000D02*
G75*
G02*
X171570000Y-109190000I0J-1000000D01*
G01*
X197970000Y-108990000D02*
X197970000Y-110640000D01*
X197970000Y-110640000D02*
X215870000Y-110640000D01*
X215870000Y-110640000D02*
X215870000Y-105340000D01*
X215870000Y-105340000D02*
X197970000Y-105340000D01*
X197970000Y-105340000D02*
X197970000Y-106990000D01*
X197970000Y-106990000D02*
G75*
G02*
X197970000Y-108990000I0J-1000000D01*
G01*
X197970000Y-93790000D02*
X197970000Y-95440000D01*
X197970000Y-95440000D02*
X215870000Y-95440000D01*
X215870000Y-95440000D02*
X215870000Y-90140000D01*
X215870000Y-90140000D02*
X197970000Y-90140000D01*
X197970000Y-90140000D02*
X197970000Y-91790000D01*
X197970000Y-91790000D02*
G75*
G02*
X197970000Y-93790000I0J-1000000D01*
G01*
X197970000Y-78590000D02*
X197970000Y-80240000D01*
X197970000Y-80240000D02*
X215870000Y-80240000D01*
X215870000Y-80240000D02*
X215870000Y-74940000D01*
X215870000Y-74940000D02*
X197970000Y-74940000D01*
X197970000Y-74940000D02*
X197970000Y-76590000D01*
X197970000Y-76590000D02*
G75*
G02*
X197970000Y-78590000I0J-1000000D01*
G01*
X195370000Y-58190000D02*
X195370000Y-59840000D01*
X195370000Y-59840000D02*
X215810000Y-59840000D01*
X215810000Y-59840000D02*
X215810000Y-54540000D01*
X215810000Y-54540000D02*
X195370000Y-54540000D01*
X195370000Y-54540000D02*
X195370000Y-56190000D01*
X195370000Y-56190000D02*
G75*
G02*
X195370000Y-58190000I0J-1000000D01*
G01*
X167570000Y-58190000D02*
X167570000Y-59840000D01*
X167570000Y-59840000D02*
X188010000Y-59840000D01*
X188010000Y-59840000D02*
X188010000Y-54540000D01*
X188010000Y-54540000D02*
X167570000Y-54540000D01*
X167570000Y-54540000D02*
X167570000Y-56190000D01*
X167570000Y-56190000D02*
G75*
G02*
X167570000Y-58190000I0J-1000000D01*
G01*
X138370000Y-58390000D02*
X138370000Y-60040000D01*
X138370000Y-60040000D02*
X158810000Y-60040000D01*
X158810000Y-60040000D02*
X158810000Y-54740000D01*
X158810000Y-54740000D02*
X138370000Y-54740000D01*
X138370000Y-54740000D02*
X138370000Y-56390000D01*
X138370000Y-56390000D02*
G75*
G02*
X138370000Y-58390000I0J-1000000D01*
G01*
X105370000Y-58410000D02*
X105370000Y-60060000D01*
X105370000Y-60060000D02*
X130890000Y-60060000D01*
X130890000Y-60060000D02*
X130890000Y-54760000D01*
X130890000Y-54760000D02*
X105370000Y-54760000D01*
X105370000Y-54760000D02*
X105370000Y-56410000D01*
X105370000Y-56410000D02*
G75*
G02*
X105370000Y-58410000I0J-1000000D01*
G01*
X102970000Y-82580000D02*
X102970000Y-88040000D01*
X102970000Y-88040000D02*
X133570000Y-88040000D01*
X133570000Y-88040000D02*
X133570000Y-75120000D01*
X133570000Y-75120000D02*
X102970000Y-75120000D01*
X102970000Y-75120000D02*
X102970000Y-80580000D01*
X102970000Y-80580000D02*
G75*
G02*
X102970000Y-82580000I0J-1000000D01*
G01*
X106970000Y-121790000D02*
X106970000Y-123440000D01*
X106970000Y-123440000D02*
X117250000Y-123440000D01*
X117250000Y-123440000D02*
X117250000Y-118140000D01*
X117250000Y-118140000D02*
X106970000Y-118140000D01*
X106970000Y-118140000D02*
X106970000Y-119790000D01*
X106970000Y-119790000D02*
G75*
G02*
X106970000Y-121790000I0J-1000000D01*
G01*
X106670000Y-107790000D02*
X106670000Y-109440000D01*
X106670000Y-109440000D02*
X116950000Y-109440000D01*
X116950000Y-109440000D02*
X116950000Y-104140000D01*
X116950000Y-104140000D02*
X106670000Y-104140000D01*
X106670000Y-104140000D02*
X106670000Y-105790000D01*
X106670000Y-105790000D02*
G75*
G02*
X106670000Y-107790000I0J-1000000D01*
G01*
X142170000Y-82220000D02*
X142170000Y-87680000D01*
X142170000Y-87680000D02*
X193090000Y-87680000D01*
X193090000Y-87680000D02*
X193090000Y-74760000D01*
X193090000Y-74760000D02*
X142170000Y-74760000D01*
X142170000Y-74760000D02*
X142170000Y-80220000D01*
X142170000Y-80220000D02*
G75*
G02*
X142170000Y-82220000I0J-1000000D01*
G01*
X102360000Y-64135000D02*
G75*
G03*
X102360000Y-64135000I-4090000J0D01*
G01*
X98270000Y-60085000D02*
X98270000Y-68185000D01*
X98310000Y-60085000D02*
X98310000Y-68185000D01*
X98350000Y-60085000D02*
X98350000Y-68185000D01*
X98390000Y-60086000D02*
X98390000Y-68184000D01*
X98430000Y-60088000D02*
X98430000Y-68182000D01*
X98470000Y-60089000D02*
X98470000Y-68181000D01*
X98510000Y-60092000D02*
X98510000Y-68178000D01*
X98550000Y-60094000D02*
X98550000Y-68176000D01*
X98590000Y-60097000D02*
X98590000Y-68173000D01*
X98630000Y-60100000D02*
X98630000Y-68170000D01*
X98670000Y-60104000D02*
X98670000Y-68166000D01*
X98710000Y-60108000D02*
X98710000Y-68162000D01*
X98750000Y-60113000D02*
X98750000Y-68157000D01*
X98790000Y-60118000D02*
X98790000Y-68152000D01*
X98830000Y-60123000D02*
X98830000Y-68147000D01*
X98870000Y-60129000D02*
X98870000Y-68141000D01*
X98910000Y-60135000D02*
X98910000Y-68135000D01*
X98950000Y-60141000D02*
X98950000Y-68129000D01*
X98991000Y-60148000D02*
X98991000Y-68122000D01*
X99031000Y-60156000D02*
X99031000Y-68114000D01*
X99071000Y-60164000D02*
X99071000Y-63155000D01*
X99071000Y-65115000D02*
X99071000Y-68106000D01*
X99111000Y-60172000D02*
X99111000Y-63155000D01*
X99111000Y-65115000D02*
X99111000Y-68098000D01*
X99151000Y-60180000D02*
X99151000Y-63155000D01*
X99151000Y-65115000D02*
X99151000Y-68090000D01*
X99191000Y-60189000D02*
X99191000Y-63155000D01*
X99191000Y-65115000D02*
X99191000Y-68081000D01*
X99231000Y-60199000D02*
X99231000Y-63155000D01*
X99231000Y-65115000D02*
X99231000Y-68071000D01*
X99271000Y-60209000D02*
X99271000Y-63155000D01*
X99271000Y-65115000D02*
X99271000Y-68061000D01*
X99311000Y-60219000D02*
X99311000Y-63155000D01*
X99311000Y-65115000D02*
X99311000Y-68051000D01*
X99351000Y-60230000D02*
X99351000Y-63155000D01*
X99351000Y-65115000D02*
X99351000Y-68040000D01*
X99391000Y-60241000D02*
X99391000Y-63155000D01*
X99391000Y-65115000D02*
X99391000Y-68029000D01*
X99431000Y-60252000D02*
X99431000Y-63155000D01*
X99431000Y-65115000D02*
X99431000Y-68018000D01*
X99471000Y-60265000D02*
X99471000Y-63155000D01*
X99471000Y-65115000D02*
X99471000Y-68005000D01*
X99511000Y-60277000D02*
X99511000Y-63155000D01*
X99511000Y-65115000D02*
X99511000Y-67993000D01*
X99551000Y-60290000D02*
X99551000Y-63155000D01*
X99551000Y-65115000D02*
X99551000Y-67980000D01*
X99591000Y-60303000D02*
X99591000Y-63155000D01*
X99591000Y-65115000D02*
X99591000Y-67967000D01*
X99631000Y-60317000D02*
X99631000Y-63155000D01*
X99631000Y-65115000D02*
X99631000Y-67953000D01*
X99671000Y-60332000D02*
X99671000Y-63155000D01*
X99671000Y-65115000D02*
X99671000Y-67938000D01*
X99711000Y-60346000D02*
X99711000Y-63155000D01*
X99711000Y-65115000D02*
X99711000Y-67924000D01*
X99751000Y-60362000D02*
X99751000Y-63155000D01*
X99751000Y-65115000D02*
X99751000Y-67908000D01*
X99791000Y-60377000D02*
X99791000Y-63155000D01*
X99791000Y-65115000D02*
X99791000Y-67893000D01*
X99831000Y-60394000D02*
X99831000Y-63155000D01*
X99831000Y-65115000D02*
X99831000Y-67876000D01*
X99871000Y-60410000D02*
X99871000Y-63155000D01*
X99871000Y-65115000D02*
X99871000Y-67860000D01*
X99911000Y-60428000D02*
X99911000Y-63155000D01*
X99911000Y-65115000D02*
X99911000Y-67842000D01*
X99951000Y-60445000D02*
X99951000Y-63155000D01*
X99951000Y-65115000D02*
X99951000Y-67825000D01*
X99991000Y-60464000D02*
X99991000Y-63155000D01*
X99991000Y-65115000D02*
X99991000Y-67806000D01*
X100031000Y-60483000D02*
X100031000Y-63155000D01*
X100031000Y-65115000D02*
X100031000Y-67787000D01*
X100071000Y-60502000D02*
X100071000Y-63155000D01*
X100071000Y-65115000D02*
X100071000Y-67768000D01*
X100111000Y-60522000D02*
X100111000Y-63155000D01*
X100111000Y-65115000D02*
X100111000Y-67748000D01*
X100151000Y-60542000D02*
X100151000Y-63155000D01*
X100151000Y-65115000D02*
X100151000Y-67728000D01*
X100191000Y-60563000D02*
X100191000Y-63155000D01*
X100191000Y-65115000D02*
X100191000Y-67707000D01*
X100231000Y-60585000D02*
X100231000Y-63155000D01*
X100231000Y-65115000D02*
X100231000Y-67685000D01*
X100271000Y-60607000D02*
X100271000Y-63155000D01*
X100271000Y-65115000D02*
X100271000Y-67663000D01*
X100311000Y-60630000D02*
X100311000Y-63155000D01*
X100311000Y-65115000D02*
X100311000Y-67640000D01*
X100351000Y-60653000D02*
X100351000Y-63155000D01*
X100351000Y-65115000D02*
X100351000Y-67617000D01*
X100391000Y-60677000D02*
X100391000Y-63155000D01*
X100391000Y-65115000D02*
X100391000Y-67593000D01*
X100431000Y-60701000D02*
X100431000Y-63155000D01*
X100431000Y-65115000D02*
X100431000Y-67569000D01*
X100471000Y-60727000D02*
X100471000Y-63155000D01*
X100471000Y-65115000D02*
X100471000Y-67543000D01*
X100511000Y-60752000D02*
X100511000Y-63155000D01*
X100511000Y-65115000D02*
X100511000Y-67518000D01*
X100551000Y-60779000D02*
X100551000Y-63155000D01*
X100551000Y-65115000D02*
X100551000Y-67491000D01*
X100591000Y-60806000D02*
X100591000Y-63155000D01*
X100591000Y-65115000D02*
X100591000Y-67464000D01*
X100631000Y-60834000D02*
X100631000Y-63155000D01*
X100631000Y-65115000D02*
X100631000Y-67436000D01*
X100671000Y-60863000D02*
X100671000Y-63155000D01*
X100671000Y-65115000D02*
X100671000Y-67407000D01*
X100711000Y-60892000D02*
X100711000Y-63155000D01*
X100711000Y-65115000D02*
X100711000Y-67378000D01*
X100751000Y-60922000D02*
X100751000Y-63155000D01*
X100751000Y-65115000D02*
X100751000Y-67348000D01*
X100791000Y-60953000D02*
X100791000Y-63155000D01*
X100791000Y-65115000D02*
X100791000Y-67317000D01*
X100831000Y-60985000D02*
X100831000Y-63155000D01*
X100831000Y-65115000D02*
X100831000Y-67285000D01*
X100871000Y-61017000D02*
X100871000Y-63155000D01*
X100871000Y-65115000D02*
X100871000Y-67253000D01*
X100911000Y-61051000D02*
X100911000Y-63155000D01*
X100911000Y-65115000D02*
X100911000Y-67219000D01*
X100951000Y-61085000D02*
X100951000Y-63155000D01*
X100951000Y-65115000D02*
X100951000Y-67185000D01*
X100991000Y-61120000D02*
X100991000Y-63155000D01*
X100991000Y-65115000D02*
X100991000Y-67150000D01*
X101031000Y-61156000D02*
X101031000Y-67114000D01*
X101071000Y-61193000D02*
X101071000Y-67077000D01*
X101111000Y-61231000D02*
X101111000Y-67039000D01*
X101151000Y-61270000D02*
X101151000Y-67000000D01*
X101191000Y-61311000D02*
X101191000Y-66959000D01*
X101231000Y-61352000D02*
X101231000Y-66918000D01*
X101271000Y-61395000D02*
X101271000Y-66875000D01*
X101311000Y-61438000D02*
X101311000Y-66832000D01*
X101351000Y-61483000D02*
X101351000Y-66787000D01*
X101391000Y-61530000D02*
X101391000Y-66740000D01*
X101431000Y-61578000D02*
X101431000Y-66692000D01*
X101471000Y-61627000D02*
X101471000Y-66643000D01*
X101511000Y-61678000D02*
X101511000Y-66592000D01*
X101551000Y-61731000D02*
X101551000Y-66539000D01*
X101591000Y-61786000D02*
X101591000Y-66484000D01*
X101631000Y-61842000D02*
X101631000Y-66428000D01*
X101671000Y-61901000D02*
X101671000Y-66369000D01*
X101711000Y-61962000D02*
X101711000Y-66308000D01*
X101751000Y-62026000D02*
X101751000Y-66244000D01*
X101791000Y-62092000D02*
X101791000Y-66178000D01*
X101831000Y-62161000D02*
X101831000Y-66109000D01*
X101871000Y-62233000D02*
X101871000Y-66037000D01*
X101911000Y-62309000D02*
X101911000Y-65961000D01*
X101951000Y-62390000D02*
X101951000Y-65880000D01*
X101991000Y-62475000D02*
X101991000Y-65795000D01*
X102031000Y-62565000D02*
X102031000Y-65705000D01*
X102071000Y-62662000D02*
X102071000Y-65608000D01*
X102111000Y-62766000D02*
X102111000Y-65504000D01*
X102151000Y-62881000D02*
X102151000Y-65389000D01*
X102191000Y-63008000D02*
X102191000Y-65262000D01*
X102231000Y-63152000D02*
X102231000Y-65118000D01*
X102271000Y-63321000D02*
X102271000Y-64949000D01*
X102311000Y-63537000D02*
X102311000Y-64733000D01*
X102351000Y-63889000D02*
X102351000Y-64381000D01*
X94320000Y-64135000D02*
X95520000Y-64135000D01*
X94920000Y-63485000D02*
X94920000Y-64785000D01*
D10*
X94136904Y-93083380D02*
X94136904Y-92083380D01*
X94517857Y-92083380D01*
X94613095Y-92131000D01*
X94660714Y-92178619D01*
X94708333Y-92273857D01*
X94708333Y-92416714D01*
X94660714Y-92511952D01*
X94613095Y-92559571D01*
X94517857Y-92607190D01*
X94136904Y-92607190D01*
X95660714Y-93083380D02*
X95089285Y-93083380D01*
X95375000Y-93083380D02*
X95375000Y-92083380D01*
X95279761Y-92226238D01*
X95184523Y-92321476D01*
X95089285Y-92369095D01*
X141857142Y-132252380D02*
X141523809Y-131776190D01*
X141285714Y-132252380D02*
X141285714Y-131252380D01*
X141666666Y-131252380D01*
X141761904Y-131300000D01*
X141809523Y-131347619D01*
X141857142Y-131442857D01*
X141857142Y-131585714D01*
X141809523Y-131680952D01*
X141761904Y-131728571D01*
X141666666Y-131776190D01*
X141285714Y-131776190D01*
X142809523Y-132252380D02*
X142238095Y-132252380D01*
X142523809Y-132252380D02*
X142523809Y-131252380D01*
X142428571Y-131395238D01*
X142333333Y-131490476D01*
X142238095Y-131538095D01*
X143428571Y-131252380D02*
X143523809Y-131252380D01*
X143619047Y-131300000D01*
X143666666Y-131347619D01*
X143714285Y-131442857D01*
X143761904Y-131633333D01*
X143761904Y-131871428D01*
X143714285Y-132061904D01*
X143666666Y-132157142D01*
X143619047Y-132204761D01*
X143523809Y-132252380D01*
X143428571Y-132252380D01*
X143333333Y-132204761D01*
X143285714Y-132157142D01*
X143238095Y-132061904D01*
X143190476Y-131871428D01*
X143190476Y-131633333D01*
X143238095Y-131442857D01*
X143285714Y-131347619D01*
X143333333Y-131300000D01*
X143428571Y-131252380D01*
X171537333Y-70556380D02*
X171204000Y-70080190D01*
X170965904Y-70556380D02*
X170965904Y-69556380D01*
X171346857Y-69556380D01*
X171442095Y-69604000D01*
X171489714Y-69651619D01*
X171537333Y-69746857D01*
X171537333Y-69889714D01*
X171489714Y-69984952D01*
X171442095Y-70032571D01*
X171346857Y-70080190D01*
X170965904Y-70080190D01*
X171918285Y-69651619D02*
X171965904Y-69604000D01*
X172061142Y-69556380D01*
X172299238Y-69556380D01*
X172394476Y-69604000D01*
X172442095Y-69651619D01*
X172489714Y-69746857D01*
X172489714Y-69842095D01*
X172442095Y-69984952D01*
X171870666Y-70556380D01*
X172489714Y-70556380D01*
X176363333Y-99766380D02*
X176030000Y-99290190D01*
X175791904Y-99766380D02*
X175791904Y-98766380D01*
X176172857Y-98766380D01*
X176268095Y-98814000D01*
X176315714Y-98861619D01*
X176363333Y-98956857D01*
X176363333Y-99099714D01*
X176315714Y-99194952D01*
X176268095Y-99242571D01*
X176172857Y-99290190D01*
X175791904Y-99290190D01*
X177268095Y-98766380D02*
X176791904Y-98766380D01*
X176744285Y-99242571D01*
X176791904Y-99194952D01*
X176887142Y-99147333D01*
X177125238Y-99147333D01*
X177220476Y-99194952D01*
X177268095Y-99242571D01*
X177315714Y-99337809D01*
X177315714Y-99575904D01*
X177268095Y-99671142D01*
X177220476Y-99718761D01*
X177125238Y-99766380D01*
X176887142Y-99766380D01*
X176791904Y-99718761D01*
X176744285Y-99671142D01*
X171537333Y-117197142D02*
X171489714Y-117244761D01*
X171346857Y-117292380D01*
X171251619Y-117292380D01*
X171108761Y-117244761D01*
X171013523Y-117149523D01*
X170965904Y-117054285D01*
X170918285Y-116863809D01*
X170918285Y-116720952D01*
X170965904Y-116530476D01*
X171013523Y-116435238D01*
X171108761Y-116340000D01*
X171251619Y-116292380D01*
X171346857Y-116292380D01*
X171489714Y-116340000D01*
X171537333Y-116387619D01*
X172442095Y-116292380D02*
X171965904Y-116292380D01*
X171918285Y-116768571D01*
X171965904Y-116720952D01*
X172061142Y-116673333D01*
X172299238Y-116673333D01*
X172394476Y-116720952D01*
X172442095Y-116768571D01*
X172489714Y-116863809D01*
X172489714Y-117101904D01*
X172442095Y-117197142D01*
X172394476Y-117244761D01*
X172299238Y-117292380D01*
X172061142Y-117292380D01*
X171965904Y-117244761D01*
X171918285Y-117197142D01*
X170775333Y-103227142D02*
X170727714Y-103274761D01*
X170584857Y-103322380D01*
X170489619Y-103322380D01*
X170346761Y-103274761D01*
X170251523Y-103179523D01*
X170203904Y-103084285D01*
X170156285Y-102893809D01*
X170156285Y-102750952D01*
X170203904Y-102560476D01*
X170251523Y-102465238D01*
X170346761Y-102370000D01*
X170489619Y-102322380D01*
X170584857Y-102322380D01*
X170727714Y-102370000D01*
X170775333Y-102417619D01*
X171632476Y-102322380D02*
X171442000Y-102322380D01*
X171346761Y-102370000D01*
X171299142Y-102417619D01*
X171203904Y-102560476D01*
X171156285Y-102750952D01*
X171156285Y-103131904D01*
X171203904Y-103227142D01*
X171251523Y-103274761D01*
X171346761Y-103322380D01*
X171537238Y-103322380D01*
X171632476Y-103274761D01*
X171680095Y-103227142D01*
X171727714Y-103131904D01*
X171727714Y-102893809D01*
X171680095Y-102798571D01*
X171632476Y-102750952D01*
X171537238Y-102703333D01*
X171346761Y-102703333D01*
X171251523Y-102750952D01*
X171203904Y-102798571D01*
X171156285Y-102893809D01*
X161123333Y-128627142D02*
X161075714Y-128674761D01*
X160932857Y-128722380D01*
X160837619Y-128722380D01*
X160694761Y-128674761D01*
X160599523Y-128579523D01*
X160551904Y-128484285D01*
X160504285Y-128293809D01*
X160504285Y-128150952D01*
X160551904Y-127960476D01*
X160599523Y-127865238D01*
X160694761Y-127770000D01*
X160837619Y-127722380D01*
X160932857Y-127722380D01*
X161075714Y-127770000D01*
X161123333Y-127817619D01*
X161980476Y-128055714D02*
X161980476Y-128722380D01*
X161742380Y-127674761D02*
X161504285Y-128389047D01*
X162123333Y-128389047D01*
X146137333Y-119229142D02*
X146089714Y-119276761D01*
X145946857Y-119324380D01*
X145851619Y-119324380D01*
X145708761Y-119276761D01*
X145613523Y-119181523D01*
X145565904Y-119086285D01*
X145518285Y-118895809D01*
X145518285Y-118752952D01*
X145565904Y-118562476D01*
X145613523Y-118467238D01*
X145708761Y-118372000D01*
X145851619Y-118324380D01*
X145946857Y-118324380D01*
X146089714Y-118372000D01*
X146137333Y-118419619D01*
X146470666Y-118324380D02*
X147089714Y-118324380D01*
X146756380Y-118705333D01*
X146899238Y-118705333D01*
X146994476Y-118752952D01*
X147042095Y-118800571D01*
X147089714Y-118895809D01*
X147089714Y-119133904D01*
X147042095Y-119229142D01*
X146994476Y-119276761D01*
X146899238Y-119324380D01*
X146613523Y-119324380D01*
X146518285Y-119276761D01*
X146470666Y-119229142D01*
X100163333Y-107291142D02*
X100115714Y-107338761D01*
X99972857Y-107386380D01*
X99877619Y-107386380D01*
X99734761Y-107338761D01*
X99639523Y-107243523D01*
X99591904Y-107148285D01*
X99544285Y-106957809D01*
X99544285Y-106814952D01*
X99591904Y-106624476D01*
X99639523Y-106529238D01*
X99734761Y-106434000D01*
X99877619Y-106386380D01*
X99972857Y-106386380D01*
X100115714Y-106434000D01*
X100163333Y-106481619D01*
X100544285Y-106481619D02*
X100591904Y-106434000D01*
X100687142Y-106386380D01*
X100925238Y-106386380D01*
X101020476Y-106434000D01*
X101068095Y-106481619D01*
X101115714Y-106576857D01*
X101115714Y-106672095D01*
X101068095Y-106814952D01*
X100496666Y-107386380D01*
X101115714Y-107386380D01*
X87133333Y-65252380D02*
X86800000Y-64776190D01*
X86561904Y-65252380D02*
X86561904Y-64252380D01*
X86942857Y-64252380D01*
X87038095Y-64300000D01*
X87085714Y-64347619D01*
X87133333Y-64442857D01*
X87133333Y-64585714D01*
X87085714Y-64680952D01*
X87038095Y-64728571D01*
X86942857Y-64776190D01*
X86561904Y-64776190D01*
X88085714Y-65252380D02*
X87514285Y-65252380D01*
X87800000Y-65252380D02*
X87800000Y-64252380D01*
X87704761Y-64395238D01*
X87609523Y-64490476D01*
X87514285Y-64538095D01*
X188301333Y-70429380D02*
X187968000Y-69953190D01*
X187729904Y-70429380D02*
X187729904Y-69429380D01*
X188110857Y-69429380D01*
X188206095Y-69477000D01*
X188253714Y-69524619D01*
X188301333Y-69619857D01*
X188301333Y-69762714D01*
X188253714Y-69857952D01*
X188206095Y-69905571D01*
X188110857Y-69953190D01*
X187729904Y-69953190D01*
X188634666Y-69429380D02*
X189253714Y-69429380D01*
X188920380Y-69810333D01*
X189063238Y-69810333D01*
X189158476Y-69857952D01*
X189206095Y-69905571D01*
X189253714Y-70000809D01*
X189253714Y-70238904D01*
X189206095Y-70334142D01*
X189158476Y-70381761D01*
X189063238Y-70429380D01*
X188777523Y-70429380D01*
X188682285Y-70381761D01*
X188634666Y-70334142D01*
X198334333Y-68905380D02*
X198001000Y-68429190D01*
X197762904Y-68905380D02*
X197762904Y-67905380D01*
X198143857Y-67905380D01*
X198239095Y-67953000D01*
X198286714Y-68000619D01*
X198334333Y-68095857D01*
X198334333Y-68238714D01*
X198286714Y-68333952D01*
X198239095Y-68381571D01*
X198143857Y-68429190D01*
X197762904Y-68429190D01*
X199191476Y-68238714D02*
X199191476Y-68905380D01*
X198953380Y-67857761D02*
X198715285Y-68572047D01*
X199334333Y-68572047D01*
X196937333Y-114244380D02*
X196604000Y-113768190D01*
X196365904Y-114244380D02*
X196365904Y-113244380D01*
X196746857Y-113244380D01*
X196842095Y-113292000D01*
X196889714Y-113339619D01*
X196937333Y-113434857D01*
X196937333Y-113577714D01*
X196889714Y-113672952D01*
X196842095Y-113720571D01*
X196746857Y-113768190D01*
X196365904Y-113768190D01*
X197270666Y-113244380D02*
X197937333Y-113244380D01*
X197508761Y-114244380D01*
X152995333Y-118054380D02*
X152662000Y-117578190D01*
X152423904Y-118054380D02*
X152423904Y-117054380D01*
X152804857Y-117054380D01*
X152900095Y-117102000D01*
X152947714Y-117149619D01*
X152995333Y-117244857D01*
X152995333Y-117387714D01*
X152947714Y-117482952D01*
X152900095Y-117530571D01*
X152804857Y-117578190D01*
X152423904Y-117578190D01*
X153852476Y-117054380D02*
X153662000Y-117054380D01*
X153566761Y-117102000D01*
X153519142Y-117149619D01*
X153423904Y-117292476D01*
X153376285Y-117482952D01*
X153376285Y-117863904D01*
X153423904Y-117959142D01*
X153471523Y-118006761D01*
X153566761Y-118054380D01*
X153757238Y-118054380D01*
X153852476Y-118006761D01*
X153900095Y-117959142D01*
X153947714Y-117863904D01*
X153947714Y-117625809D01*
X153900095Y-117530571D01*
X153852476Y-117482952D01*
X153757238Y-117435333D01*
X153566761Y-117435333D01*
X153471523Y-117482952D01*
X153423904Y-117530571D01*
X153376285Y-117625809D01*
X152995333Y-123134380D02*
X152662000Y-122658190D01*
X152423904Y-123134380D02*
X152423904Y-122134380D01*
X152804857Y-122134380D01*
X152900095Y-122182000D01*
X152947714Y-122229619D01*
X152995333Y-122324857D01*
X152995333Y-122467714D01*
X152947714Y-122562952D01*
X152900095Y-122610571D01*
X152804857Y-122658190D01*
X152423904Y-122658190D01*
X153566761Y-122562952D02*
X153471523Y-122515333D01*
X153423904Y-122467714D01*
X153376285Y-122372476D01*
X153376285Y-122324857D01*
X153423904Y-122229619D01*
X153471523Y-122182000D01*
X153566761Y-122134380D01*
X153757238Y-122134380D01*
X153852476Y-122182000D01*
X153900095Y-122229619D01*
X153947714Y-122324857D01*
X153947714Y-122372476D01*
X153900095Y-122467714D01*
X153852476Y-122515333D01*
X153757238Y-122562952D01*
X153566761Y-122562952D01*
X153471523Y-122610571D01*
X153423904Y-122658190D01*
X153376285Y-122753428D01*
X153376285Y-122943904D01*
X153423904Y-123039142D01*
X153471523Y-123086761D01*
X153566761Y-123134380D01*
X153757238Y-123134380D01*
X153852476Y-123086761D01*
X153900095Y-123039142D01*
X153947714Y-122943904D01*
X153947714Y-122753428D01*
X153900095Y-122658190D01*
X153852476Y-122610571D01*
X153757238Y-122562952D01*
X142581333Y-124404380D02*
X142248000Y-123928190D01*
X142009904Y-124404380D02*
X142009904Y-123404380D01*
X142390857Y-123404380D01*
X142486095Y-123452000D01*
X142533714Y-123499619D01*
X142581333Y-123594857D01*
X142581333Y-123737714D01*
X142533714Y-123832952D01*
X142486095Y-123880571D01*
X142390857Y-123928190D01*
X142009904Y-123928190D01*
X143057523Y-124404380D02*
X143248000Y-124404380D01*
X143343238Y-124356761D01*
X143390857Y-124309142D01*
X143486095Y-124166285D01*
X143533714Y-123975809D01*
X143533714Y-123594857D01*
X143486095Y-123499619D01*
X143438476Y-123452000D01*
X143343238Y-123404380D01*
X143152761Y-123404380D01*
X143057523Y-123452000D01*
X143009904Y-123499619D01*
X142962285Y-123594857D01*
X142962285Y-123832952D01*
X143009904Y-123928190D01*
X143057523Y-123975809D01*
X143152761Y-124023428D01*
X143343238Y-124023428D01*
X143438476Y-123975809D01*
X143486095Y-123928190D01*
X143533714Y-123832952D01*
X137787142Y-80875142D02*
X137739523Y-80922761D01*
X137596666Y-80970380D01*
X137501428Y-80970380D01*
X137358571Y-80922761D01*
X137263333Y-80827523D01*
X137215714Y-80732285D01*
X137168095Y-80541809D01*
X137168095Y-80398952D01*
X137215714Y-80208476D01*
X137263333Y-80113238D01*
X137358571Y-80018000D01*
X137501428Y-79970380D01*
X137596666Y-79970380D01*
X137739523Y-80018000D01*
X137787142Y-80065619D01*
X138739523Y-80970380D02*
X138168095Y-80970380D01*
X138453809Y-80970380D02*
X138453809Y-79970380D01*
X138358571Y-80113238D01*
X138263333Y-80208476D01*
X138168095Y-80256095D01*
X139644285Y-79970380D02*
X139168095Y-79970380D01*
X139120476Y-80446571D01*
X139168095Y-80398952D01*
X139263333Y-80351333D01*
X139501428Y-80351333D01*
X139596666Y-80398952D01*
X139644285Y-80446571D01*
X139691904Y-80541809D01*
X139691904Y-80779904D01*
X139644285Y-80875142D01*
X139596666Y-80922761D01*
X139501428Y-80970380D01*
X139263333Y-80970380D01*
X139168095Y-80922761D01*
X139120476Y-80875142D01*
X133977142Y-60809142D02*
X133929523Y-60856761D01*
X133786666Y-60904380D01*
X133691428Y-60904380D01*
X133548571Y-60856761D01*
X133453333Y-60761523D01*
X133405714Y-60666285D01*
X133358095Y-60475809D01*
X133358095Y-60332952D01*
X133405714Y-60142476D01*
X133453333Y-60047238D01*
X133548571Y-59952000D01*
X133691428Y-59904380D01*
X133786666Y-59904380D01*
X133929523Y-59952000D01*
X133977142Y-59999619D01*
X134929523Y-60904380D02*
X134358095Y-60904380D01*
X134643809Y-60904380D02*
X134643809Y-59904380D01*
X134548571Y-60047238D01*
X134453333Y-60142476D01*
X134358095Y-60190095D01*
X135786666Y-60237714D02*
X135786666Y-60904380D01*
X135548571Y-59856761D02*
X135310476Y-60571047D01*
X135929523Y-60571047D01*
X191381142Y-60809142D02*
X191333523Y-60856761D01*
X191190666Y-60904380D01*
X191095428Y-60904380D01*
X190952571Y-60856761D01*
X190857333Y-60761523D01*
X190809714Y-60666285D01*
X190762095Y-60475809D01*
X190762095Y-60332952D01*
X190809714Y-60142476D01*
X190857333Y-60047238D01*
X190952571Y-59952000D01*
X191095428Y-59904380D01*
X191190666Y-59904380D01*
X191333523Y-59952000D01*
X191381142Y-59999619D01*
X192333523Y-60904380D02*
X191762095Y-60904380D01*
X192047809Y-60904380D02*
X192047809Y-59904380D01*
X191952571Y-60047238D01*
X191857333Y-60142476D01*
X191762095Y-60190095D01*
X192666857Y-59904380D02*
X193285904Y-59904380D01*
X192952571Y-60285333D01*
X193095428Y-60285333D01*
X193190666Y-60332952D01*
X193238285Y-60380571D01*
X193285904Y-60475809D01*
X193285904Y-60713904D01*
X193238285Y-60809142D01*
X193190666Y-60856761D01*
X193095428Y-60904380D01*
X192809714Y-60904380D01*
X192714476Y-60856761D01*
X192666857Y-60809142D01*
X103211333Y-127103142D02*
X103163714Y-127150761D01*
X103020857Y-127198380D01*
X102925619Y-127198380D01*
X102782761Y-127150761D01*
X102687523Y-127055523D01*
X102639904Y-126960285D01*
X102592285Y-126769809D01*
X102592285Y-126626952D01*
X102639904Y-126436476D01*
X102687523Y-126341238D01*
X102782761Y-126246000D01*
X102925619Y-126198380D01*
X103020857Y-126198380D01*
X103163714Y-126246000D01*
X103211333Y-126293619D01*
X104163714Y-127198380D02*
X103592285Y-127198380D01*
X103878000Y-127198380D02*
X103878000Y-126198380D01*
X103782761Y-126341238D01*
X103687523Y-126436476D01*
X103592285Y-126484095D01*
X194397333Y-111863142D02*
X194349714Y-111910761D01*
X194206857Y-111958380D01*
X194111619Y-111958380D01*
X193968761Y-111910761D01*
X193873523Y-111815523D01*
X193825904Y-111720285D01*
X193778285Y-111529809D01*
X193778285Y-111386952D01*
X193825904Y-111196476D01*
X193873523Y-111101238D01*
X193968761Y-111006000D01*
X194111619Y-110958380D01*
X194206857Y-110958380D01*
X194349714Y-111006000D01*
X194397333Y-111053619D01*
X194730666Y-110958380D02*
X195397333Y-110958380D01*
X194968761Y-111958380D01*
X219797333Y-126849142D02*
X219749714Y-126896761D01*
X219606857Y-126944380D01*
X219511619Y-126944380D01*
X219368761Y-126896761D01*
X219273523Y-126801523D01*
X219225904Y-126706285D01*
X219178285Y-126515809D01*
X219178285Y-126372952D01*
X219225904Y-126182476D01*
X219273523Y-126087238D01*
X219368761Y-125992000D01*
X219511619Y-125944380D01*
X219606857Y-125944380D01*
X219749714Y-125992000D01*
X219797333Y-126039619D01*
X220368761Y-126372952D02*
X220273523Y-126325333D01*
X220225904Y-126277714D01*
X220178285Y-126182476D01*
X220178285Y-126134857D01*
X220225904Y-126039619D01*
X220273523Y-125992000D01*
X220368761Y-125944380D01*
X220559238Y-125944380D01*
X220654476Y-125992000D01*
X220702095Y-126039619D01*
X220749714Y-126134857D01*
X220749714Y-126182476D01*
X220702095Y-126277714D01*
X220654476Y-126325333D01*
X220559238Y-126372952D01*
X220368761Y-126372952D01*
X220273523Y-126420571D01*
X220225904Y-126468190D01*
X220178285Y-126563428D01*
X220178285Y-126753904D01*
X220225904Y-126849142D01*
X220273523Y-126896761D01*
X220368761Y-126944380D01*
X220559238Y-126944380D01*
X220654476Y-126896761D01*
X220702095Y-126849142D01*
X220749714Y-126753904D01*
X220749714Y-126563428D01*
X220702095Y-126468190D01*
X220654476Y-126420571D01*
X220559238Y-126372952D01*
X219797333Y-111863142D02*
X219749714Y-111910761D01*
X219606857Y-111958380D01*
X219511619Y-111958380D01*
X219368761Y-111910761D01*
X219273523Y-111815523D01*
X219225904Y-111720285D01*
X219178285Y-111529809D01*
X219178285Y-111386952D01*
X219225904Y-111196476D01*
X219273523Y-111101238D01*
X219368761Y-111006000D01*
X219511619Y-110958380D01*
X219606857Y-110958380D01*
X219749714Y-111006000D01*
X219797333Y-111053619D01*
X220273523Y-111958380D02*
X220464000Y-111958380D01*
X220559238Y-111910761D01*
X220606857Y-111863142D01*
X220702095Y-111720285D01*
X220749714Y-111529809D01*
X220749714Y-111148857D01*
X220702095Y-111053619D01*
X220654476Y-111006000D01*
X220559238Y-110958380D01*
X220368761Y-110958380D01*
X220273523Y-111006000D01*
X220225904Y-111053619D01*
X220178285Y-111148857D01*
X220178285Y-111386952D01*
X220225904Y-111482190D01*
X220273523Y-111529809D01*
X220368761Y-111577428D01*
X220559238Y-111577428D01*
X220654476Y-111529809D01*
X220702095Y-111482190D01*
X220749714Y-111386952D01*
X219321142Y-96369142D02*
X219273523Y-96416761D01*
X219130666Y-96464380D01*
X219035428Y-96464380D01*
X218892571Y-96416761D01*
X218797333Y-96321523D01*
X218749714Y-96226285D01*
X218702095Y-96035809D01*
X218702095Y-95892952D01*
X218749714Y-95702476D01*
X218797333Y-95607238D01*
X218892571Y-95512000D01*
X219035428Y-95464380D01*
X219130666Y-95464380D01*
X219273523Y-95512000D01*
X219321142Y-95559619D01*
X220273523Y-96464380D02*
X219702095Y-96464380D01*
X219987809Y-96464380D02*
X219987809Y-95464380D01*
X219892571Y-95607238D01*
X219797333Y-95702476D01*
X219702095Y-95750095D01*
X220892571Y-95464380D02*
X220987809Y-95464380D01*
X221083047Y-95512000D01*
X221130666Y-95559619D01*
X221178285Y-95654857D01*
X221225904Y-95845333D01*
X221225904Y-96083428D01*
X221178285Y-96273904D01*
X221130666Y-96369142D01*
X221083047Y-96416761D01*
X220987809Y-96464380D01*
X220892571Y-96464380D01*
X220797333Y-96416761D01*
X220749714Y-96369142D01*
X220702095Y-96273904D01*
X220654476Y-96083428D01*
X220654476Y-95845333D01*
X220702095Y-95654857D01*
X220749714Y-95559619D01*
X220797333Y-95512000D01*
X220892571Y-95464380D01*
X219067142Y-81129142D02*
X219019523Y-81176761D01*
X218876666Y-81224380D01*
X218781428Y-81224380D01*
X218638571Y-81176761D01*
X218543333Y-81081523D01*
X218495714Y-80986285D01*
X218448095Y-80795809D01*
X218448095Y-80652952D01*
X218495714Y-80462476D01*
X218543333Y-80367238D01*
X218638571Y-80272000D01*
X218781428Y-80224380D01*
X218876666Y-80224380D01*
X219019523Y-80272000D01*
X219067142Y-80319619D01*
X220019523Y-81224380D02*
X219448095Y-81224380D01*
X219733809Y-81224380D02*
X219733809Y-80224380D01*
X219638571Y-80367238D01*
X219543333Y-80462476D01*
X219448095Y-80510095D01*
X220971904Y-81224380D02*
X220400476Y-81224380D01*
X220686190Y-81224380D02*
X220686190Y-80224380D01*
X220590952Y-80367238D01*
X220495714Y-80462476D01*
X220400476Y-80510095D01*
X219067142Y-60809142D02*
X219019523Y-60856761D01*
X218876666Y-60904380D01*
X218781428Y-60904380D01*
X218638571Y-60856761D01*
X218543333Y-60761523D01*
X218495714Y-60666285D01*
X218448095Y-60475809D01*
X218448095Y-60332952D01*
X218495714Y-60142476D01*
X218543333Y-60047238D01*
X218638571Y-59952000D01*
X218781428Y-59904380D01*
X218876666Y-59904380D01*
X219019523Y-59952000D01*
X219067142Y-59999619D01*
X220019523Y-60904380D02*
X219448095Y-60904380D01*
X219733809Y-60904380D02*
X219733809Y-59904380D01*
X219638571Y-60047238D01*
X219543333Y-60142476D01*
X219448095Y-60190095D01*
X220400476Y-59999619D02*
X220448095Y-59952000D01*
X220543333Y-59904380D01*
X220781428Y-59904380D01*
X220876666Y-59952000D01*
X220924285Y-59999619D01*
X220971904Y-60094857D01*
X220971904Y-60190095D01*
X220924285Y-60332952D01*
X220352857Y-60904380D01*
X220971904Y-60904380D01*
X179617809Y-129738380D02*
X179617809Y-128738380D01*
X180665428Y-129643142D02*
X180617809Y-129690761D01*
X180474952Y-129738380D01*
X180379714Y-129738380D01*
X180236857Y-129690761D01*
X180141619Y-129595523D01*
X180094000Y-129500285D01*
X180046380Y-129309809D01*
X180046380Y-129166952D01*
X180094000Y-128976476D01*
X180141619Y-128881238D01*
X180236857Y-128786000D01*
X180379714Y-128738380D01*
X180474952Y-128738380D01*
X180617809Y-128786000D01*
X180665428Y-128833619D01*
X181046380Y-128833619D02*
X181094000Y-128786000D01*
X181189238Y-128738380D01*
X181427333Y-128738380D01*
X181522571Y-128786000D01*
X181570190Y-128833619D01*
X181617809Y-128928857D01*
X181617809Y-129024095D01*
X181570190Y-129166952D01*
X180998761Y-129738380D01*
X181617809Y-129738380D01*
X205271809Y-129738380D02*
X205271809Y-128738380D01*
X206319428Y-129643142D02*
X206271809Y-129690761D01*
X206128952Y-129738380D01*
X206033714Y-129738380D01*
X205890857Y-129690761D01*
X205795619Y-129595523D01*
X205748000Y-129500285D01*
X205700380Y-129309809D01*
X205700380Y-129166952D01*
X205748000Y-128976476D01*
X205795619Y-128881238D01*
X205890857Y-128786000D01*
X206033714Y-128738380D01*
X206128952Y-128738380D01*
X206271809Y-128786000D01*
X206319428Y-128833619D01*
X207271809Y-129738380D02*
X206700380Y-129738380D01*
X206986095Y-129738380D02*
X206986095Y-128738380D01*
X206890857Y-128881238D01*
X206795619Y-128976476D01*
X206700380Y-129024095D01*
X148375809Y-114498380D02*
X148375809Y-113498380D01*
X149423428Y-114403142D02*
X149375809Y-114450761D01*
X149232952Y-114498380D01*
X149137714Y-114498380D01*
X148994857Y-114450761D01*
X148899619Y-114355523D01*
X148852000Y-114260285D01*
X148804380Y-114069809D01*
X148804380Y-113926952D01*
X148852000Y-113736476D01*
X148899619Y-113641238D01*
X148994857Y-113546000D01*
X149137714Y-113498380D01*
X149232952Y-113498380D01*
X149375809Y-113546000D01*
X149423428Y-113593619D01*
X150328190Y-113498380D02*
X149852000Y-113498380D01*
X149804380Y-113974571D01*
X149852000Y-113926952D01*
X149947238Y-113879333D01*
X150185333Y-113879333D01*
X150280571Y-113926952D01*
X150328190Y-113974571D01*
X150375809Y-114069809D01*
X150375809Y-114307904D01*
X150328190Y-114403142D01*
X150280571Y-114450761D01*
X150185333Y-114498380D01*
X149947238Y-114498380D01*
X149852000Y-114450761D01*
X149804380Y-114403142D01*
X179871809Y-114452380D02*
X179871809Y-113452380D01*
X180919428Y-114357142D02*
X180871809Y-114404761D01*
X180728952Y-114452380D01*
X180633714Y-114452380D01*
X180490857Y-114404761D01*
X180395619Y-114309523D01*
X180348000Y-114214285D01*
X180300380Y-114023809D01*
X180300380Y-113880952D01*
X180348000Y-113690476D01*
X180395619Y-113595238D01*
X180490857Y-113500000D01*
X180633714Y-113452380D01*
X180728952Y-113452380D01*
X180871809Y-113500000D01*
X180919428Y-113547619D01*
X181776571Y-113452380D02*
X181586095Y-113452380D01*
X181490857Y-113500000D01*
X181443238Y-113547619D01*
X181348000Y-113690476D01*
X181300380Y-113880952D01*
X181300380Y-114261904D01*
X181348000Y-114357142D01*
X181395619Y-114404761D01*
X181490857Y-114452380D01*
X181681333Y-114452380D01*
X181776571Y-114404761D01*
X181824190Y-114357142D01*
X181871809Y-114261904D01*
X181871809Y-114023809D01*
X181824190Y-113928571D01*
X181776571Y-113880952D01*
X181681333Y-113833333D01*
X181490857Y-113833333D01*
X181395619Y-113880952D01*
X181348000Y-113928571D01*
X181300380Y-114023809D01*
X206033809Y-102814380D02*
X206033809Y-101814380D01*
X207081428Y-102719142D02*
X207033809Y-102766761D01*
X206890952Y-102814380D01*
X206795714Y-102814380D01*
X206652857Y-102766761D01*
X206557619Y-102671523D01*
X206510000Y-102576285D01*
X206462380Y-102385809D01*
X206462380Y-102242952D01*
X206510000Y-102052476D01*
X206557619Y-101957238D01*
X206652857Y-101862000D01*
X206795714Y-101814380D01*
X206890952Y-101814380D01*
X207033809Y-101862000D01*
X207081428Y-101909619D01*
X207414761Y-101814380D02*
X208081428Y-101814380D01*
X207652857Y-102814380D01*
X206033809Y-99004380D02*
X206033809Y-98004380D01*
X207081428Y-98909142D02*
X207033809Y-98956761D01*
X206890952Y-99004380D01*
X206795714Y-99004380D01*
X206652857Y-98956761D01*
X206557619Y-98861523D01*
X206510000Y-98766285D01*
X206462380Y-98575809D01*
X206462380Y-98432952D01*
X206510000Y-98242476D01*
X206557619Y-98147238D01*
X206652857Y-98052000D01*
X206795714Y-98004380D01*
X206890952Y-98004380D01*
X207033809Y-98052000D01*
X207081428Y-98099619D01*
X207652857Y-98432952D02*
X207557619Y-98385333D01*
X207510000Y-98337714D01*
X207462380Y-98242476D01*
X207462380Y-98194857D01*
X207510000Y-98099619D01*
X207557619Y-98052000D01*
X207652857Y-98004380D01*
X207843333Y-98004380D01*
X207938571Y-98052000D01*
X207986190Y-98099619D01*
X208033809Y-98194857D01*
X208033809Y-98242476D01*
X207986190Y-98337714D01*
X207938571Y-98385333D01*
X207843333Y-98432952D01*
X207652857Y-98432952D01*
X207557619Y-98480571D01*
X207510000Y-98528190D01*
X207462380Y-98623428D01*
X207462380Y-98813904D01*
X207510000Y-98909142D01*
X207557619Y-98956761D01*
X207652857Y-99004380D01*
X207843333Y-99004380D01*
X207938571Y-98956761D01*
X207986190Y-98909142D01*
X208033809Y-98813904D01*
X208033809Y-98623428D01*
X207986190Y-98528190D01*
X207938571Y-98480571D01*
X207843333Y-98432952D01*
X206033809Y-84018380D02*
X206033809Y-83018380D01*
X207081428Y-83923142D02*
X207033809Y-83970761D01*
X206890952Y-84018380D01*
X206795714Y-84018380D01*
X206652857Y-83970761D01*
X206557619Y-83875523D01*
X206510000Y-83780285D01*
X206462380Y-83589809D01*
X206462380Y-83446952D01*
X206510000Y-83256476D01*
X206557619Y-83161238D01*
X206652857Y-83066000D01*
X206795714Y-83018380D01*
X206890952Y-83018380D01*
X207033809Y-83066000D01*
X207081428Y-83113619D01*
X207557619Y-84018380D02*
X207748095Y-84018380D01*
X207843333Y-83970761D01*
X207890952Y-83923142D01*
X207986190Y-83780285D01*
X208033809Y-83589809D01*
X208033809Y-83208857D01*
X207986190Y-83113619D01*
X207938571Y-83066000D01*
X207843333Y-83018380D01*
X207652857Y-83018380D01*
X207557619Y-83066000D01*
X207510000Y-83113619D01*
X207462380Y-83208857D01*
X207462380Y-83446952D01*
X207510000Y-83542190D01*
X207557619Y-83589809D01*
X207652857Y-83637428D01*
X207843333Y-83637428D01*
X207938571Y-83589809D01*
X207986190Y-83542190D01*
X208033809Y-83446952D01*
X197429619Y-63444380D02*
X197429619Y-62444380D01*
X198477238Y-63349142D02*
X198429619Y-63396761D01*
X198286761Y-63444380D01*
X198191523Y-63444380D01*
X198048666Y-63396761D01*
X197953428Y-63301523D01*
X197905809Y-63206285D01*
X197858190Y-63015809D01*
X197858190Y-62872952D01*
X197905809Y-62682476D01*
X197953428Y-62587238D01*
X198048666Y-62492000D01*
X198191523Y-62444380D01*
X198286761Y-62444380D01*
X198429619Y-62492000D01*
X198477238Y-62539619D01*
X199429619Y-63444380D02*
X198858190Y-63444380D01*
X199143904Y-63444380D02*
X199143904Y-62444380D01*
X199048666Y-62587238D01*
X198953428Y-62682476D01*
X198858190Y-62730095D01*
X200382000Y-63444380D02*
X199810571Y-63444380D01*
X200096285Y-63444380D02*
X200096285Y-62444380D01*
X200001047Y-62587238D01*
X199905809Y-62682476D01*
X199810571Y-62730095D01*
X172791619Y-63444380D02*
X172791619Y-62444380D01*
X173839238Y-63349142D02*
X173791619Y-63396761D01*
X173648761Y-63444380D01*
X173553523Y-63444380D01*
X173410666Y-63396761D01*
X173315428Y-63301523D01*
X173267809Y-63206285D01*
X173220190Y-63015809D01*
X173220190Y-62872952D01*
X173267809Y-62682476D01*
X173315428Y-62587238D01*
X173410666Y-62492000D01*
X173553523Y-62444380D01*
X173648761Y-62444380D01*
X173791619Y-62492000D01*
X173839238Y-62539619D01*
X174791619Y-63444380D02*
X174220190Y-63444380D01*
X174505904Y-63444380D02*
X174505904Y-62444380D01*
X174410666Y-62587238D01*
X174315428Y-62682476D01*
X174220190Y-62730095D01*
X175410666Y-62444380D02*
X175505904Y-62444380D01*
X175601142Y-62492000D01*
X175648761Y-62539619D01*
X175696380Y-62634857D01*
X175744000Y-62825333D01*
X175744000Y-63063428D01*
X175696380Y-63253904D01*
X175648761Y-63349142D01*
X175601142Y-63396761D01*
X175505904Y-63444380D01*
X175410666Y-63444380D01*
X175315428Y-63396761D01*
X175267809Y-63349142D01*
X175220190Y-63253904D01*
X175172571Y-63063428D01*
X175172571Y-62825333D01*
X175220190Y-62634857D01*
X175267809Y-62539619D01*
X175315428Y-62492000D01*
X175410666Y-62444380D01*
X147391619Y-63698380D02*
X147391619Y-62698380D01*
X148439238Y-63603142D02*
X148391619Y-63650761D01*
X148248761Y-63698380D01*
X148153523Y-63698380D01*
X148010666Y-63650761D01*
X147915428Y-63555523D01*
X147867809Y-63460285D01*
X147820190Y-63269809D01*
X147820190Y-63126952D01*
X147867809Y-62936476D01*
X147915428Y-62841238D01*
X148010666Y-62746000D01*
X148153523Y-62698380D01*
X148248761Y-62698380D01*
X148391619Y-62746000D01*
X148439238Y-62793619D01*
X149391619Y-63698380D02*
X148820190Y-63698380D01*
X149105904Y-63698380D02*
X149105904Y-62698380D01*
X149010666Y-62841238D01*
X148915428Y-62936476D01*
X148820190Y-62984095D01*
X149772571Y-62793619D02*
X149820190Y-62746000D01*
X149915428Y-62698380D01*
X150153523Y-62698380D01*
X150248761Y-62746000D01*
X150296380Y-62793619D01*
X150344000Y-62888857D01*
X150344000Y-62984095D01*
X150296380Y-63126952D01*
X149724952Y-63698380D01*
X150344000Y-63698380D01*
X116911619Y-63698380D02*
X116911619Y-62698380D01*
X117959238Y-63603142D02*
X117911619Y-63650761D01*
X117768761Y-63698380D01*
X117673523Y-63698380D01*
X117530666Y-63650761D01*
X117435428Y-63555523D01*
X117387809Y-63460285D01*
X117340190Y-63269809D01*
X117340190Y-63126952D01*
X117387809Y-62936476D01*
X117435428Y-62841238D01*
X117530666Y-62746000D01*
X117673523Y-62698380D01*
X117768761Y-62698380D01*
X117911619Y-62746000D01*
X117959238Y-62793619D01*
X118911619Y-63698380D02*
X118340190Y-63698380D01*
X118625904Y-63698380D02*
X118625904Y-62698380D01*
X118530666Y-62841238D01*
X118435428Y-62936476D01*
X118340190Y-62984095D01*
X119244952Y-62698380D02*
X119864000Y-62698380D01*
X119530666Y-63079333D01*
X119673523Y-63079333D01*
X119768761Y-63126952D01*
X119816380Y-63174571D01*
X119864000Y-63269809D01*
X119864000Y-63507904D01*
X119816380Y-63603142D01*
X119768761Y-63650761D01*
X119673523Y-63698380D01*
X119387809Y-63698380D01*
X119292571Y-63650761D01*
X119244952Y-63603142D01*
X117165619Y-91638380D02*
X117165619Y-90638380D01*
X118213238Y-91543142D02*
X118165619Y-91590761D01*
X118022761Y-91638380D01*
X117927523Y-91638380D01*
X117784666Y-91590761D01*
X117689428Y-91495523D01*
X117641809Y-91400285D01*
X117594190Y-91209809D01*
X117594190Y-91066952D01*
X117641809Y-90876476D01*
X117689428Y-90781238D01*
X117784666Y-90686000D01*
X117927523Y-90638380D01*
X118022761Y-90638380D01*
X118165619Y-90686000D01*
X118213238Y-90733619D01*
X119165619Y-91638380D02*
X118594190Y-91638380D01*
X118879904Y-91638380D02*
X118879904Y-90638380D01*
X118784666Y-90781238D01*
X118689428Y-90876476D01*
X118594190Y-90924095D01*
X120070380Y-90638380D02*
X119594190Y-90638380D01*
X119546571Y-91114571D01*
X119594190Y-91066952D01*
X119689428Y-91019333D01*
X119927523Y-91019333D01*
X120022761Y-91066952D01*
X120070380Y-91114571D01*
X120118000Y-91209809D01*
X120118000Y-91447904D01*
X120070380Y-91543142D01*
X120022761Y-91590761D01*
X119927523Y-91638380D01*
X119689428Y-91638380D01*
X119594190Y-91590761D01*
X119546571Y-91543142D01*
X111037809Y-126690380D02*
X111037809Y-125690380D01*
X112085428Y-126595142D02*
X112037809Y-126642761D01*
X111894952Y-126690380D01*
X111799714Y-126690380D01*
X111656857Y-126642761D01*
X111561619Y-126547523D01*
X111514000Y-126452285D01*
X111466380Y-126261809D01*
X111466380Y-126118952D01*
X111514000Y-125928476D01*
X111561619Y-125833238D01*
X111656857Y-125738000D01*
X111799714Y-125690380D01*
X111894952Y-125690380D01*
X112037809Y-125738000D01*
X112085428Y-125785619D01*
X112942571Y-126023714D02*
X112942571Y-126690380D01*
X112704476Y-125642761D02*
X112466380Y-126357047D01*
X113085428Y-126357047D01*
X110783809Y-112974380D02*
X110783809Y-111974380D01*
X111831428Y-112879142D02*
X111783809Y-112926761D01*
X111640952Y-112974380D01*
X111545714Y-112974380D01*
X111402857Y-112926761D01*
X111307619Y-112831523D01*
X111260000Y-112736285D01*
X111212380Y-112545809D01*
X111212380Y-112402952D01*
X111260000Y-112212476D01*
X111307619Y-112117238D01*
X111402857Y-112022000D01*
X111545714Y-111974380D01*
X111640952Y-111974380D01*
X111783809Y-112022000D01*
X111831428Y-112069619D01*
X112164761Y-111974380D02*
X112783809Y-111974380D01*
X112450476Y-112355333D01*
X112593333Y-112355333D01*
X112688571Y-112402952D01*
X112736190Y-112450571D01*
X112783809Y-112545809D01*
X112783809Y-112783904D01*
X112736190Y-112879142D01*
X112688571Y-112926761D01*
X112593333Y-112974380D01*
X112307619Y-112974380D01*
X112212380Y-112926761D01*
X112164761Y-112879142D01*
X167203619Y-91130380D02*
X167203619Y-90130380D01*
X168251238Y-91035142D02*
X168203619Y-91082761D01*
X168060761Y-91130380D01*
X167965523Y-91130380D01*
X167822666Y-91082761D01*
X167727428Y-90987523D01*
X167679809Y-90892285D01*
X167632190Y-90701809D01*
X167632190Y-90558952D01*
X167679809Y-90368476D01*
X167727428Y-90273238D01*
X167822666Y-90178000D01*
X167965523Y-90130380D01*
X168060761Y-90130380D01*
X168203619Y-90178000D01*
X168251238Y-90225619D01*
X169203619Y-91130380D02*
X168632190Y-91130380D01*
X168917904Y-91130380D02*
X168917904Y-90130380D01*
X168822666Y-90273238D01*
X168727428Y-90368476D01*
X168632190Y-90416095D01*
X170060761Y-90463714D02*
X170060761Y-91130380D01*
X169822666Y-90082761D02*
X169584571Y-90797047D01*
X170203619Y-90797047D01*
X97401142Y-69445142D02*
X97353523Y-69492761D01*
X97210666Y-69540380D01*
X97115428Y-69540380D01*
X96972571Y-69492761D01*
X96877333Y-69397523D01*
X96829714Y-69302285D01*
X96782095Y-69111809D01*
X96782095Y-68968952D01*
X96829714Y-68778476D01*
X96877333Y-68683238D01*
X96972571Y-68588000D01*
X97115428Y-68540380D01*
X97210666Y-68540380D01*
X97353523Y-68588000D01*
X97401142Y-68635619D01*
X98353523Y-69540380D02*
X97782095Y-69540380D01*
X98067809Y-69540380D02*
X98067809Y-68540380D01*
X97972571Y-68683238D01*
X97877333Y-68778476D01*
X97782095Y-68826095D01*
X99210666Y-68540380D02*
X99020190Y-68540380D01*
X98924952Y-68588000D01*
X98877333Y-68635619D01*
X98782095Y-68778476D01*
X98734476Y-68968952D01*
X98734476Y-69349904D01*
X98782095Y-69445142D01*
X98829714Y-69492761D01*
X98924952Y-69540380D01*
X99115428Y-69540380D01*
X99210666Y-69492761D01*
X99258285Y-69445142D01*
X99305904Y-69349904D01*
X99305904Y-69111809D01*
X99258285Y-69016571D01*
X99210666Y-68968952D01*
X99115428Y-68921333D01*
X98924952Y-68921333D01*
X98829714Y-68968952D01*
X98782095Y-69016571D01*
X98734476Y-69111809D01*
M02*
