G04 #@! TF.GenerationSoftware,KiCad,Pcbnew,5.1.10*
G04 #@! TF.CreationDate,2021-08-06T08:54:22+02:00*
G04 #@! TF.ProjectId,nano,6e616e6f-2e6b-4696-9361-645f70636258,rev?*
G04 #@! TF.SameCoordinates,Original*
G04 #@! TF.FileFunction,Copper,L2,Bot*
G04 #@! TF.FilePolarity,Positive*
%FSLAX46Y46*%
G04 Gerber Fmt 4.6, Leading zero omitted, Abs format (unit mm)*
G04 Created by KiCad (PCBNEW 5.1.10) date 2021-08-06 08:54:22*
%MOMM*%
%LPD*%
G01*
G04 APERTURE LIST*
G04 #@! TA.AperFunction,ComponentPad*
%ADD10C,4.000000*%
G04 #@! TD*
G04 #@! TA.AperFunction,ComponentPad*
%ADD11C,1.600000*%
G04 #@! TD*
G04 #@! TA.AperFunction,ComponentPad*
%ADD12R,1.600000X1.600000*%
G04 #@! TD*
G04 #@! TA.AperFunction,ConnectorPad*
%ADD13R,1.780000X7.620000*%
G04 #@! TD*
G04 #@! TA.AperFunction,ComponentPad*
%ADD14O,1.600000X1.600000*%
G04 #@! TD*
G04 #@! TA.AperFunction,ViaPad*
%ADD15C,1.600000*%
G04 #@! TD*
G04 #@! TA.AperFunction,ViaPad*
%ADD16C,1.400000*%
G04 #@! TD*
G04 #@! TA.AperFunction,Conductor*
%ADD17C,1.250000*%
G04 #@! TD*
G04 #@! TA.AperFunction,Conductor*
%ADD18C,0.250000*%
G04 #@! TD*
G04 #@! TA.AperFunction,Conductor*
%ADD19C,0.500000*%
G04 #@! TD*
G04 APERTURE END LIST*
D10*
X90655000Y-105131000D03*
X90655000Y-80131000D03*
D11*
X89235000Y-88476000D03*
X89235000Y-91246000D03*
X89235000Y-94016000D03*
X89235000Y-96786000D03*
X92075000Y-87091000D03*
X92075000Y-89861000D03*
X92075000Y-92631000D03*
X92075000Y-95401000D03*
D12*
X92075000Y-98171000D03*
D13*
X107950000Y-39470000D03*
X110490000Y-39470000D03*
X113030000Y-39470000D03*
X115570000Y-39470000D03*
X138430000Y-39470000D03*
X140970000Y-39470000D03*
X143510000Y-39470000D03*
X146050000Y-39470000D03*
X148590000Y-39470000D03*
X151130000Y-39470000D03*
X158750000Y-39470000D03*
X161290000Y-39470000D03*
X163830000Y-39470000D03*
X166370000Y-39470000D03*
X168910000Y-39470000D03*
X171450000Y-39470000D03*
X179070000Y-39470000D03*
X181610000Y-39470000D03*
X184150000Y-39470000D03*
D14*
X155400000Y-130000000D03*
D11*
X142700000Y-130000000D03*
D14*
X177900000Y-67400000D03*
D11*
X165200000Y-67400000D03*
D14*
X183100000Y-96600000D03*
D11*
X170400000Y-96600000D03*
D14*
X169500000Y-115800000D03*
D11*
X169500000Y-128500000D03*
D14*
X167900000Y-99300000D03*
D11*
X167900000Y-112000000D03*
X164100000Y-126000000D03*
X159100000Y-126000000D03*
X148900000Y-121000000D03*
X143900000Y-121000000D03*
D14*
X103100000Y-100600000D03*
D11*
X103100000Y-113300000D03*
D14*
X90100000Y-58500000D03*
D11*
X90100000Y-71200000D03*
D14*
X194500000Y-67400000D03*
D11*
X181800000Y-67400000D03*
D14*
X210800000Y-69800000D03*
D11*
X198100000Y-69800000D03*
D14*
X209400000Y-115800000D03*
D11*
X196700000Y-115800000D03*
D14*
X165400000Y-115800000D03*
D11*
X152700000Y-115800000D03*
D14*
X165400000Y-120800000D03*
D11*
X152700000Y-120800000D03*
D14*
X155400000Y-126000000D03*
D11*
X142700000Y-126000000D03*
X138500000Y-73600000D03*
X138500000Y-78600000D03*
X134700000Y-53600000D03*
X134700000Y-58600000D03*
X191700000Y-53400000D03*
X191700000Y-58400000D03*
X103300000Y-124800000D03*
X103300000Y-119800000D03*
X194700000Y-104400000D03*
X194700000Y-109400000D03*
X220100000Y-119600000D03*
X220100000Y-124600000D03*
X219900000Y-104400000D03*
X219900000Y-109400000D03*
X219900000Y-89200000D03*
X219900000Y-94200000D03*
X219700000Y-73800000D03*
X219700000Y-78800000D03*
X219700000Y-53400000D03*
X219700000Y-58400000D03*
D14*
X173100000Y-119580000D03*
X188340000Y-127200000D03*
X175640000Y-119580000D03*
X185800000Y-127200000D03*
X178180000Y-119580000D03*
X183260000Y-127200000D03*
X180720000Y-119580000D03*
X180720000Y-127200000D03*
X183260000Y-119580000D03*
X178180000Y-127200000D03*
X185800000Y-119580000D03*
X175640000Y-127200000D03*
X188340000Y-119580000D03*
D12*
X173100000Y-127200000D03*
D14*
X196700000Y-119580000D03*
X214480000Y-127200000D03*
X199240000Y-119580000D03*
X211940000Y-127200000D03*
X201780000Y-119580000D03*
X209400000Y-127200000D03*
X204320000Y-119580000D03*
X206860000Y-127200000D03*
X206860000Y-119580000D03*
X204320000Y-127200000D03*
X209400000Y-119580000D03*
X201780000Y-127200000D03*
X211940000Y-119580000D03*
X199240000Y-127200000D03*
X214480000Y-119580000D03*
D12*
X196700000Y-127200000D03*
D14*
X144900000Y-104380000D03*
X162680000Y-112000000D03*
X147440000Y-104380000D03*
X160140000Y-112000000D03*
X149980000Y-104380000D03*
X157600000Y-112000000D03*
X152520000Y-104380000D03*
X155060000Y-112000000D03*
X155060000Y-104380000D03*
X152520000Y-112000000D03*
X157600000Y-104380000D03*
X149980000Y-112000000D03*
X160140000Y-104380000D03*
X147440000Y-112000000D03*
X162680000Y-104380000D03*
D12*
X144900000Y-112000000D03*
D14*
X172900000Y-104380000D03*
X188140000Y-112000000D03*
X175440000Y-104380000D03*
X185600000Y-112000000D03*
X177980000Y-104380000D03*
X183060000Y-112000000D03*
X180520000Y-104380000D03*
X180520000Y-112000000D03*
X183060000Y-104380000D03*
X177980000Y-112000000D03*
X185600000Y-104380000D03*
X175440000Y-112000000D03*
X188140000Y-104380000D03*
D12*
X172900000Y-112000000D03*
D14*
X199300000Y-104180000D03*
X214540000Y-111800000D03*
X201840000Y-104180000D03*
X212000000Y-111800000D03*
X204380000Y-104180000D03*
X209460000Y-111800000D03*
X206920000Y-104180000D03*
X206920000Y-111800000D03*
X209460000Y-104180000D03*
X204380000Y-111800000D03*
X212000000Y-104180000D03*
X201840000Y-111800000D03*
X214540000Y-104180000D03*
D12*
X199300000Y-111800000D03*
D14*
X199300000Y-88980000D03*
X214540000Y-96600000D03*
X201840000Y-88980000D03*
X212000000Y-96600000D03*
X204380000Y-88980000D03*
X209460000Y-96600000D03*
X206920000Y-88980000D03*
X206920000Y-96600000D03*
X209460000Y-88980000D03*
X204380000Y-96600000D03*
X212000000Y-88980000D03*
X201840000Y-96600000D03*
X214540000Y-88980000D03*
D12*
X199300000Y-96600000D03*
D14*
X199300000Y-73780000D03*
X214540000Y-81400000D03*
X201840000Y-73780000D03*
X212000000Y-81400000D03*
X204380000Y-73780000D03*
X209460000Y-81400000D03*
X206920000Y-73780000D03*
X206920000Y-81400000D03*
X209460000Y-73780000D03*
X204380000Y-81400000D03*
X212000000Y-73780000D03*
X201840000Y-81400000D03*
X214540000Y-73780000D03*
D12*
X199300000Y-81400000D03*
D14*
X196700000Y-53380000D03*
X214480000Y-61000000D03*
X199240000Y-53380000D03*
X211940000Y-61000000D03*
X201780000Y-53380000D03*
X209400000Y-61000000D03*
X204320000Y-53380000D03*
X206860000Y-61000000D03*
X206860000Y-53380000D03*
X204320000Y-61000000D03*
X209400000Y-53380000D03*
X201780000Y-61000000D03*
X211940000Y-53380000D03*
X199240000Y-61000000D03*
X214480000Y-53380000D03*
D12*
X196700000Y-61000000D03*
D14*
X168900000Y-53380000D03*
X186680000Y-61000000D03*
X171440000Y-53380000D03*
X184140000Y-61000000D03*
X173980000Y-53380000D03*
X181600000Y-61000000D03*
X176520000Y-53380000D03*
X179060000Y-61000000D03*
X179060000Y-53380000D03*
X176520000Y-61000000D03*
X181600000Y-53380000D03*
X173980000Y-61000000D03*
X184140000Y-53380000D03*
X171440000Y-61000000D03*
X186680000Y-53380000D03*
D12*
X168900000Y-61000000D03*
D14*
X139700000Y-53580000D03*
X157480000Y-61200000D03*
X142240000Y-53580000D03*
X154940000Y-61200000D03*
X144780000Y-53580000D03*
X152400000Y-61200000D03*
X147320000Y-53580000D03*
X149860000Y-61200000D03*
X149860000Y-53580000D03*
X147320000Y-61200000D03*
X152400000Y-53580000D03*
X144780000Y-61200000D03*
X154940000Y-53580000D03*
X142240000Y-61200000D03*
X157480000Y-53580000D03*
D12*
X139700000Y-61200000D03*
D14*
X106700000Y-53600000D03*
X129560000Y-61220000D03*
X109240000Y-53600000D03*
X127020000Y-61220000D03*
X111780000Y-53600000D03*
X124480000Y-61220000D03*
X114320000Y-53600000D03*
X121940000Y-61220000D03*
X116860000Y-53600000D03*
X119400000Y-61220000D03*
X119400000Y-53600000D03*
X116860000Y-61220000D03*
X121940000Y-53600000D03*
X114320000Y-61220000D03*
X124480000Y-53600000D03*
X111780000Y-61220000D03*
X127020000Y-53600000D03*
X109240000Y-61220000D03*
X129560000Y-53600000D03*
D12*
X106700000Y-61220000D03*
D14*
X104300000Y-73960000D03*
X132240000Y-89200000D03*
X106840000Y-73960000D03*
X129700000Y-89200000D03*
X109380000Y-73960000D03*
X127160000Y-89200000D03*
X111920000Y-73960000D03*
X124620000Y-89200000D03*
X114460000Y-73960000D03*
X122080000Y-89200000D03*
X117000000Y-73960000D03*
X119540000Y-89200000D03*
X119540000Y-73960000D03*
X117000000Y-89200000D03*
X122080000Y-73960000D03*
X114460000Y-89200000D03*
X124620000Y-73960000D03*
X111920000Y-89200000D03*
X127160000Y-73960000D03*
X109380000Y-89200000D03*
X129700000Y-73960000D03*
X106840000Y-89200000D03*
X132240000Y-73960000D03*
D12*
X104300000Y-89200000D03*
D14*
X108300000Y-116980000D03*
X115920000Y-124600000D03*
X110840000Y-116980000D03*
X113380000Y-124600000D03*
X113380000Y-116980000D03*
X110840000Y-124600000D03*
X115920000Y-116980000D03*
D12*
X108300000Y-124600000D03*
D14*
X108000000Y-102980000D03*
X115620000Y-110600000D03*
X110540000Y-102980000D03*
X113080000Y-110600000D03*
X113080000Y-102980000D03*
X110540000Y-110600000D03*
X115620000Y-102980000D03*
D12*
X108000000Y-110600000D03*
D14*
X143500000Y-73600000D03*
X191760000Y-88840000D03*
X146040000Y-73600000D03*
X189220000Y-88840000D03*
X148580000Y-73600000D03*
X186680000Y-88840000D03*
X151120000Y-73600000D03*
X184140000Y-88840000D03*
X153660000Y-73600000D03*
X181600000Y-88840000D03*
X156200000Y-73600000D03*
X179060000Y-88840000D03*
X158740000Y-73600000D03*
X176520000Y-88840000D03*
X161280000Y-73600000D03*
X173980000Y-88840000D03*
X163820000Y-73600000D03*
X171440000Y-88840000D03*
X166360000Y-73600000D03*
X168900000Y-88840000D03*
X168900000Y-73600000D03*
X166360000Y-88840000D03*
X171440000Y-73600000D03*
X163820000Y-88840000D03*
X173980000Y-73600000D03*
X161280000Y-88840000D03*
X176520000Y-73600000D03*
X158740000Y-88840000D03*
X179060000Y-73600000D03*
X156200000Y-88840000D03*
X181600000Y-73600000D03*
X153660000Y-88840000D03*
X184140000Y-73600000D03*
X151120000Y-88840000D03*
X186680000Y-73600000D03*
X148580000Y-88840000D03*
X189220000Y-73600000D03*
X146040000Y-88840000D03*
X191760000Y-73600000D03*
D12*
X143500000Y-88840000D03*
X96520000Y-64135000D03*
D11*
X100020000Y-64135000D03*
D15*
X161300000Y-50800000D03*
X163800000Y-49400000D03*
D16*
X162700000Y-109400000D03*
D15*
X158900000Y-118400000D03*
X161700000Y-117600000D03*
X176700000Y-115800000D03*
X171900000Y-114400000D03*
X164300000Y-129800000D03*
X131100000Y-100600000D03*
X129300000Y-99400000D03*
X118300000Y-96800000D03*
X112100000Y-95600000D03*
X143500000Y-93000000D03*
X147300000Y-94200000D03*
X147600000Y-101600000D03*
X151100000Y-99200000D03*
X157500000Y-98000000D03*
X161500000Y-99200000D03*
X153900000Y-95400000D03*
X178100000Y-92800000D03*
X173500000Y-99800000D03*
X195900000Y-100400000D03*
X190300000Y-117000000D03*
X208200000Y-78000000D03*
X210800000Y-79300000D03*
X185500000Y-76200000D03*
X182900000Y-77600000D03*
X171400000Y-78800000D03*
X174000000Y-80000000D03*
X176500000Y-81400000D03*
X179100000Y-82600000D03*
X181600000Y-84000000D03*
X184100000Y-85200000D03*
X186700000Y-86200000D03*
X155000000Y-75600000D03*
X139900000Y-70000000D03*
X104300000Y-67600000D03*
X106800000Y-66200000D03*
X108000000Y-63600000D03*
X113700000Y-65000000D03*
X109400000Y-67600000D03*
X133500000Y-64200000D03*
X135700000Y-66500000D03*
X148500000Y-66500000D03*
X148500000Y-68500000D03*
X153700000Y-68500000D03*
X156300000Y-68500000D03*
X161544000Y-68500000D03*
D16*
X156200000Y-62600000D03*
D15*
X124700000Y-104400000D03*
X127300000Y-104400000D03*
X129700000Y-104400000D03*
X132300000Y-104400000D03*
X134900000Y-104400000D03*
X137500000Y-104400000D03*
X122100000Y-112000000D03*
X127300000Y-112000000D03*
X129900000Y-112000000D03*
X132300000Y-112000000D03*
X134900000Y-112000000D03*
X137500000Y-112000000D03*
X119700000Y-112000000D03*
X119700000Y-104400000D03*
X122100000Y-119600000D03*
X124700000Y-119600000D03*
X127300000Y-119600000D03*
X129900000Y-119600000D03*
X132300000Y-119600000D03*
X134900000Y-119600000D03*
X137500000Y-119600000D03*
X122300000Y-127200000D03*
X124900000Y-127200000D03*
X127300000Y-127200000D03*
X129900000Y-127200000D03*
X132500000Y-127200000D03*
X134900000Y-127200000D03*
X137500000Y-127200000D03*
X122100000Y-104400000D03*
X119700000Y-127200000D03*
X194100000Y-129000000D03*
X192300000Y-130400000D03*
D16*
X175300000Y-64800000D03*
X177900000Y-63600000D03*
X180300000Y-62600000D03*
X184100000Y-67400000D03*
D15*
X195400000Y-50800000D03*
X196900000Y-49600000D03*
X194300000Y-53400000D03*
X201900000Y-50800000D03*
X183600000Y-46400000D03*
X132700000Y-49600000D03*
X130900000Y-47000000D03*
X111700000Y-47200000D03*
D16*
X108000000Y-51400000D03*
D15*
X106700000Y-47200000D03*
X135900000Y-47000000D03*
X172700000Y-45800000D03*
X165100000Y-45800000D03*
X162500000Y-45800000D03*
X160100000Y-45800000D03*
X157500000Y-45800000D03*
X154900000Y-45800000D03*
X151100000Y-45800000D03*
X144700000Y-45800000D03*
X119700000Y-119600000D03*
D16*
X167900000Y-104400000D03*
D15*
X96500000Y-71200000D03*
X124700000Y-112000000D03*
X126100000Y-98000000D03*
D17*
X89300000Y-54800000D02*
X89700000Y-54800000D01*
X89700000Y-54800000D02*
X96300000Y-54800000D01*
X89700000Y-54800000D02*
X88900000Y-54800000D01*
X88900000Y-54800000D02*
X86300000Y-57400000D01*
X86300000Y-57400000D02*
X86300000Y-72600000D01*
X86300000Y-72600000D02*
X88900000Y-75200000D01*
X88900000Y-75200000D02*
X99300000Y-75200000D01*
X99300000Y-75200000D02*
X101500000Y-77400000D01*
X101500000Y-90400000D02*
X103900000Y-92800000D01*
X101500000Y-83800000D02*
X101500000Y-90400000D01*
X101500000Y-77400000D02*
X101500000Y-83800000D01*
X105300000Y-114800000D02*
X105300000Y-109400000D01*
X105300000Y-109400000D02*
X103100000Y-107200000D01*
X118408630Y-106800000D02*
X134700000Y-106800000D01*
X134700000Y-106800000D02*
X137500000Y-109600000D01*
X137500000Y-109600000D02*
X137500000Y-111400000D01*
X217700000Y-122000000D02*
X220100000Y-119600000D01*
X142700000Y-126000000D02*
X148900000Y-126000000D01*
X151500000Y-123400000D02*
X154100000Y-123400000D01*
X142700000Y-130000000D02*
X142700000Y-130000000D01*
X148900000Y-126000000D02*
X151500000Y-123400000D01*
X154100000Y-123400000D02*
X156700000Y-120800000D01*
X169500000Y-128400000D02*
X169500000Y-128400000D01*
X219900000Y-104400000D02*
X217700000Y-106600000D01*
X144900000Y-106600000D02*
X144900000Y-104380000D01*
D18*
X147440000Y-112000000D02*
X147440000Y-110868630D01*
X173100000Y-127200000D02*
X173100000Y-128250000D01*
X143900000Y-120800000D02*
X143900000Y-120800000D01*
D17*
X142700000Y-130000000D02*
X142700000Y-126000000D01*
X143500000Y-73600000D02*
X138660000Y-73600000D01*
X98500000Y-69400000D02*
X96700000Y-71200000D01*
X131700000Y-69400000D02*
X98500000Y-69400000D01*
X135900000Y-73600000D02*
X131700000Y-69400000D01*
X137500000Y-127000000D02*
X137500000Y-127000000D01*
X115920000Y-118780000D02*
X115920000Y-116980000D01*
X119100000Y-121960000D02*
X115920000Y-118780000D01*
X137500000Y-125400000D02*
X135700000Y-123600000D01*
X137500000Y-127200000D02*
X137500000Y-125400000D01*
X135700000Y-123600000D02*
X123300000Y-123600000D01*
X123300000Y-123600000D02*
X121660000Y-121960000D01*
X121660000Y-121960000D02*
X119100000Y-121960000D01*
D18*
X124700000Y-119600000D02*
X124700000Y-118610051D01*
X124700000Y-118610051D02*
X124700000Y-117000000D01*
X124700000Y-117000000D02*
X125900000Y-115800000D01*
X118100000Y-123400000D02*
X113380000Y-118680000D01*
X120900000Y-123400000D02*
X118100000Y-123400000D01*
X122300000Y-127200000D02*
X122300000Y-124800000D01*
X113380000Y-118680000D02*
X113380000Y-116980000D01*
X122300000Y-124800000D02*
X120900000Y-123400000D01*
X173100000Y-129000000D02*
X173100000Y-127200000D01*
X155300000Y-129800000D02*
X156700000Y-128400000D01*
X165500000Y-128400000D02*
X167700000Y-130600000D01*
X167700000Y-130600000D02*
X171500000Y-130600000D01*
X156700000Y-128400000D02*
X165500000Y-128400000D01*
X171500000Y-130600000D02*
X173100000Y-129000000D01*
X211100000Y-130400000D02*
X192300000Y-130400000D01*
X203500000Y-129000000D02*
X203900000Y-129000000D01*
D17*
X214700000Y-124600000D02*
X220100000Y-124600000D01*
X199500000Y-124600000D02*
X207100000Y-124600000D01*
X188300000Y-124600000D02*
X188340000Y-124640000D01*
X188340000Y-124640000D02*
X188340000Y-127200000D01*
X188300000Y-124600000D02*
X199500000Y-124600000D01*
X169700000Y-124600000D02*
X188300000Y-124600000D01*
X217300000Y-91800000D02*
X219900000Y-89200000D01*
X217500000Y-96600000D02*
X219900000Y-94200000D01*
X214740000Y-96600000D02*
X217500000Y-96600000D01*
D18*
X157100000Y-124200000D02*
X162500000Y-124200000D01*
X162500000Y-124200000D02*
X164300000Y-126000000D01*
X155300000Y-126000000D02*
X157100000Y-124200000D01*
X191500000Y-118200000D02*
X190300000Y-117000000D01*
X214880000Y-119780000D02*
X213300000Y-118200000D01*
X213300000Y-118200000D02*
X191500000Y-118200000D01*
D17*
X188100000Y-109400000D02*
X188140000Y-109440000D01*
X188140000Y-109440000D02*
X188140000Y-112000000D01*
X188100000Y-109400000D02*
X175100000Y-109400000D01*
X194700000Y-109400000D02*
X188100000Y-109400000D01*
X217100000Y-81400000D02*
X214540000Y-81400000D01*
X219700000Y-78800000D02*
X217100000Y-81400000D01*
D19*
X106700000Y-53600000D02*
X106900000Y-55800000D01*
D17*
X216900000Y-56200000D02*
X219700000Y-53400000D01*
X106700000Y-53600000D02*
X106700000Y-56200000D01*
X191900000Y-56200000D02*
X191700000Y-56000000D01*
X191700000Y-56000000D02*
X191700000Y-53400000D01*
X196700000Y-56200000D02*
X196700000Y-53380000D01*
X196700000Y-56200000D02*
X216900000Y-56200000D01*
X191900000Y-56200000D02*
X196700000Y-56200000D01*
X168900000Y-56000000D02*
X168900000Y-53380000D01*
X169100000Y-56200000D02*
X168900000Y-56000000D01*
X169100000Y-56200000D02*
X191900000Y-56200000D01*
X139700000Y-56200000D02*
X139700000Y-53580000D01*
X139700000Y-56200000D02*
X169100000Y-56200000D01*
X134700000Y-56200000D02*
X134700000Y-53600000D01*
X134700000Y-56200000D02*
X139700000Y-56200000D01*
X106700000Y-56200000D02*
X134700000Y-56200000D01*
D18*
X138300000Y-44600000D02*
X135900000Y-47000000D01*
X136500000Y-51400000D02*
X107900000Y-51400000D01*
X151100000Y-39770000D02*
X150930000Y-39600000D01*
X151100000Y-45800000D02*
X151100000Y-39770000D01*
X165100000Y-45800000D02*
X167700000Y-45800000D01*
X144700000Y-45800000D02*
X145850000Y-44650000D01*
X208660001Y-72980001D02*
X208660001Y-72960001D01*
X209460000Y-73780000D02*
X208660001Y-72980001D01*
X208660001Y-72960001D02*
X208100000Y-72400000D01*
X208100000Y-72400000D02*
X192500000Y-72400000D01*
X192500000Y-72400000D02*
X190500000Y-70400000D01*
X190500000Y-70400000D02*
X172900000Y-70400000D01*
X172900000Y-70400000D02*
X167500000Y-65000000D01*
X167500000Y-65000000D02*
X154700000Y-65000000D01*
X154700000Y-65000000D02*
X153100000Y-63400000D01*
X153100000Y-63400000D02*
X137900000Y-63400000D01*
X137900000Y-63400000D02*
X137500000Y-63000000D01*
X137500000Y-63000000D02*
X132300000Y-63000000D01*
X130300000Y-65000000D02*
X113700000Y-65000000D01*
X132300000Y-63000000D02*
X130300000Y-65000000D01*
X136100000Y-70000000D02*
X139900000Y-70000000D01*
X132300000Y-66200000D02*
X136100000Y-70000000D01*
X192900000Y-65800000D02*
X179500000Y-65800000D01*
X184100000Y-67400000D02*
X191100000Y-67400000D01*
X191100000Y-67400000D02*
X192900000Y-69200000D01*
X205700000Y-69800000D02*
X210900000Y-69800000D01*
X203300000Y-67400000D02*
X205700000Y-69800000D01*
D17*
X206860000Y-58640000D02*
X206860000Y-61000000D01*
X186680000Y-58820000D02*
X186680000Y-61000000D01*
X179060000Y-58640000D02*
X179060000Y-61000000D01*
X157480000Y-58580000D02*
X157480000Y-61200000D01*
D18*
X109100000Y-48400000D02*
X109100000Y-45800000D01*
X132700000Y-49600000D02*
X110300000Y-49600000D01*
X110300000Y-49600000D02*
X109100000Y-48400000D01*
X148500000Y-66200000D02*
X148700000Y-66400000D01*
X154900000Y-66800000D02*
X156300000Y-68200000D01*
X151900000Y-66800000D02*
X154900000Y-66800000D01*
X160300000Y-65800000D02*
X153500000Y-65800000D01*
X153500000Y-65800000D02*
X152500000Y-64800000D01*
X152500000Y-64800000D02*
X137700000Y-64800000D01*
X137100000Y-64200000D02*
X133500000Y-64200000D01*
X137700000Y-64800000D02*
X137100000Y-64200000D01*
X161300000Y-66800000D02*
X160300000Y-65800000D01*
D17*
X219700000Y-49400000D02*
X219700000Y-53400000D01*
X217300000Y-47000000D02*
X219700000Y-49400000D01*
X181100000Y-48000000D02*
X192100000Y-48000000D01*
X192100000Y-48000000D02*
X193100000Y-47000000D01*
X193100000Y-47000000D02*
X217300000Y-47000000D01*
X221700000Y-48200000D02*
X218500000Y-45000000D01*
X221700000Y-56400000D02*
X221700000Y-48200000D01*
D18*
X161700000Y-117600000D02*
X171300000Y-117600000D01*
X171300000Y-117600000D02*
X173100000Y-115800000D01*
X145650000Y-113800000D02*
X171300000Y-113800000D01*
X144900000Y-113050000D02*
X145650000Y-113800000D01*
X144900000Y-112000000D02*
X144900000Y-113050000D01*
X171300000Y-113800000D02*
X171900000Y-114400000D01*
D17*
X119700000Y-117400000D02*
X119700000Y-119600000D01*
X162680000Y-112000000D02*
X168100000Y-112000000D01*
X167900000Y-106200000D02*
X167900000Y-104400000D01*
X168300000Y-106600000D02*
X167900000Y-106200000D01*
X168300000Y-106600000D02*
X144900000Y-106600000D01*
X172900000Y-106600000D02*
X172900000Y-104380000D01*
X172900000Y-106600000D02*
X168300000Y-106600000D01*
D18*
X139900000Y-100600000D02*
X131100000Y-100600000D01*
X142100000Y-102800000D02*
X139900000Y-100600000D01*
D17*
X199300000Y-106400000D02*
X199300000Y-104180000D01*
X217700000Y-106600000D02*
X199900000Y-106600000D01*
X199900000Y-106600000D02*
X172900000Y-106600000D01*
D18*
X194700000Y-103000000D02*
X194700000Y-104400000D01*
X160140000Y-104380000D02*
X157600000Y-104380000D01*
X174508630Y-127200000D02*
X173100000Y-127200000D01*
X175640000Y-127200000D02*
X174508630Y-127200000D01*
D17*
X196700000Y-121800000D02*
X196700000Y-119780000D01*
X197300000Y-122000000D02*
X217700000Y-122000000D01*
X173100000Y-121800000D02*
X173100000Y-119580000D01*
X173300000Y-122000000D02*
X197300000Y-122000000D01*
X173300000Y-122000000D02*
X173100000Y-121800000D01*
X142700000Y-126000000D02*
X142700000Y-126000000D01*
D18*
X98900000Y-73000000D02*
X94700000Y-73000000D01*
X94700000Y-73000000D02*
X93700000Y-72000000D01*
X129700000Y-73960000D02*
X129700000Y-75000000D01*
X116900000Y-71200000D02*
X100700000Y-71200000D01*
X100700000Y-71200000D02*
X98900000Y-73000000D01*
D17*
X111900000Y-92800000D02*
X112100000Y-93000000D01*
X112100000Y-93000000D02*
X112100000Y-95600000D01*
X103900000Y-92800000D02*
X111900000Y-92800000D01*
D18*
X169900000Y-98600000D02*
X191900000Y-98600000D01*
X168100000Y-96800000D02*
X169900000Y-98600000D01*
X118300000Y-96800000D02*
X168100000Y-96800000D01*
X199240000Y-61000000D02*
X197900000Y-62340000D01*
X197900000Y-62340000D02*
X191760000Y-62340000D01*
X191760000Y-62340000D02*
X190500000Y-63600000D01*
X201780000Y-63320000D02*
X201780000Y-61000000D01*
X192700000Y-63400000D02*
X201700000Y-63400000D01*
X201700000Y-63400000D02*
X201780000Y-63320000D01*
X175300000Y-64800000D02*
X191300000Y-64800000D01*
X191300000Y-64800000D02*
X192700000Y-63400000D01*
X197700000Y-67400000D02*
X195900000Y-69200000D01*
X192900000Y-69200000D02*
X195900000Y-69200000D01*
X197700000Y-67400000D02*
X203300000Y-67400000D01*
X173500000Y-99800000D02*
X192100000Y-99800000D01*
X207100000Y-99200000D02*
X207420000Y-99200000D01*
X192100000Y-99800000D02*
X192700000Y-99200000D01*
X195900000Y-100400000D02*
X205700000Y-100400000D01*
X207420000Y-99200000D02*
X207500000Y-99200000D01*
X206700000Y-99200000D02*
X206900000Y-99200000D01*
X206700000Y-99200000D02*
X207500000Y-99200000D01*
X192700000Y-99200000D02*
X206700000Y-99200000D01*
X203500000Y-94200000D02*
X202700000Y-93400000D01*
X202900000Y-93600000D02*
X203500000Y-94200000D01*
X199900000Y-93400000D02*
X199300000Y-93400000D01*
X202700000Y-93400000D02*
X199900000Y-93400000D01*
X198228630Y-94928630D02*
X197500000Y-94200000D01*
X197500000Y-94200000D02*
X181500000Y-94200000D01*
X181500000Y-94200000D02*
X180300000Y-95400000D01*
X180300000Y-95400000D02*
X153900000Y-95400000D01*
X143900000Y-92800000D02*
X143700000Y-93000000D01*
X178100000Y-92800000D02*
X143900000Y-92800000D01*
X119540000Y-87640000D02*
X119540000Y-89200000D01*
X211100000Y-78800000D02*
X210500000Y-79400000D01*
X182900000Y-77600000D02*
X183889949Y-77600000D01*
X183889949Y-77600000D02*
X191700000Y-77600000D01*
X191700000Y-77600000D02*
X192300000Y-77600000D01*
X191700000Y-77600000D02*
X192100000Y-77600000D01*
X177900000Y-63600000D02*
X190500000Y-63600000D01*
X190700000Y-61000000D02*
X196700000Y-61000000D01*
X189100000Y-62600000D02*
X190700000Y-61000000D01*
X180300000Y-62600000D02*
X189100000Y-62600000D01*
X133100000Y-85200000D02*
X118100000Y-85200000D01*
X142500000Y-85200000D02*
X141300000Y-86400000D01*
X134300000Y-86400000D02*
X133100000Y-85200000D01*
X184300000Y-85200000D02*
X142500000Y-85200000D01*
X141300000Y-86400000D02*
X134300000Y-86400000D01*
X117000000Y-86500000D02*
X117000000Y-89200000D01*
X117000000Y-86300000D02*
X117000000Y-89200000D01*
X117100000Y-86200000D02*
X117000000Y-86300000D01*
X118100000Y-85200000D02*
X117100000Y-86200000D01*
D17*
X111900000Y-92800000D02*
X132500000Y-92800000D01*
D18*
X106840000Y-81460000D02*
X106900000Y-81400000D01*
X106840000Y-81460000D02*
X108300000Y-80000000D01*
X106840000Y-82260000D02*
X106840000Y-81460000D01*
X106840000Y-89200000D02*
X106840000Y-82260000D01*
X108300000Y-80000000D02*
X106900000Y-81400000D01*
X108900000Y-80000000D02*
X108300000Y-80000000D01*
X141300000Y-81400000D02*
X142700000Y-80000000D01*
X142700000Y-80000000D02*
X174100000Y-80000000D01*
X134900000Y-81400000D02*
X133500000Y-80000000D01*
X135900000Y-81400000D02*
X134900000Y-81400000D01*
X135300000Y-81400000D02*
X135900000Y-81400000D01*
X108900000Y-80000000D02*
X133500000Y-80000000D01*
X135900000Y-81400000D02*
X141300000Y-81400000D01*
X140900000Y-80200000D02*
X142300000Y-78800000D01*
X133500000Y-78800000D02*
X134900000Y-80200000D01*
X134900000Y-80200000D02*
X140900000Y-80200000D01*
X105700000Y-78800000D02*
X133500000Y-78800000D01*
X104300000Y-80200000D02*
X105700000Y-78800000D01*
X104300000Y-89200000D02*
X104300000Y-80200000D01*
X109380000Y-83320000D02*
X109380000Y-89200000D01*
X109380000Y-82920000D02*
X109380000Y-83320000D01*
X111920000Y-89200000D02*
X111920000Y-84020000D01*
X111920000Y-84020000D02*
X111900000Y-84000000D01*
X161500000Y-99200000D02*
X158900000Y-99200000D01*
X158900000Y-99200000D02*
X157700000Y-100400000D01*
X157700000Y-100400000D02*
X142500000Y-100400000D01*
X142500000Y-100400000D02*
X141500000Y-99400000D01*
X141500000Y-99400000D02*
X129300000Y-99400000D01*
X176700000Y-81400000D02*
X175710051Y-81400000D01*
X111920000Y-83980000D02*
X111920000Y-84020000D01*
X113100000Y-82800000D02*
X111920000Y-83980000D01*
X134500000Y-83800000D02*
X133500000Y-82800000D01*
X142500000Y-82600000D02*
X141300000Y-83800000D01*
X133500000Y-82800000D02*
X113100000Y-82800000D01*
X141300000Y-83800000D02*
X134500000Y-83800000D01*
X152300000Y-84000000D02*
X151700000Y-84000000D01*
X114460000Y-85240000D02*
X115700000Y-84000000D01*
X114460000Y-89200000D02*
X114460000Y-85240000D01*
X115700000Y-84000000D02*
X133300000Y-84000000D01*
X133300000Y-84000000D02*
X134500000Y-85200000D01*
X140700000Y-85200000D02*
X141100000Y-85200000D01*
X134500000Y-85200000D02*
X140700000Y-85200000D01*
X120300000Y-86800000D02*
X119540000Y-87560000D01*
X119540000Y-87560000D02*
X119540000Y-89200000D01*
X133300000Y-86800000D02*
X120300000Y-86800000D01*
X134300000Y-87800000D02*
X133300000Y-86800000D01*
X143300000Y-84000000D02*
X152300000Y-84000000D01*
X140700000Y-85200000D02*
X141300000Y-85200000D01*
X142500000Y-84000000D02*
X141300000Y-85200000D01*
X143300000Y-84000000D02*
X142500000Y-84000000D01*
X158900000Y-118400000D02*
X157910051Y-118400000D01*
X157910051Y-118400000D02*
X157500000Y-118400000D01*
X157500000Y-118400000D02*
X159100000Y-118400000D01*
X147440000Y-110868630D02*
X148700000Y-109608630D01*
X148700000Y-109608630D02*
X148700000Y-109600000D01*
X148900000Y-109400000D02*
X149300000Y-109400000D01*
X148700000Y-109600000D02*
X148900000Y-109400000D01*
D17*
X98300000Y-69400000D02*
X96500000Y-71200000D01*
X98500000Y-69400000D02*
X98300000Y-69400000D01*
X96500000Y-71200000D02*
X96500000Y-71200000D01*
D18*
X150200000Y-68500000D02*
X150800000Y-67900000D01*
X148500000Y-68500000D02*
X150200000Y-68500000D01*
X150500000Y-68200000D02*
X150800000Y-67900000D01*
X150800000Y-67900000D02*
X151900000Y-66800000D01*
X148500000Y-66500000D02*
X135700000Y-66500000D01*
X153700000Y-69550000D02*
X153700000Y-68500000D01*
X154350000Y-70200000D02*
X153700000Y-69550000D01*
X155900000Y-70200000D02*
X154350000Y-70200000D01*
X155500000Y-70200000D02*
X155900000Y-70200000D01*
X160650000Y-70200000D02*
X161300000Y-69550000D01*
X160100000Y-70200000D02*
X160650000Y-70200000D01*
X160100000Y-70200000D02*
X160500000Y-70200000D01*
X155900000Y-70200000D02*
X160100000Y-70200000D01*
X179500000Y-65800000D02*
X177900000Y-67400000D01*
X192900000Y-65800000D02*
X194500000Y-67400000D01*
X189400000Y-71400000D02*
X191760000Y-73760000D01*
X144900000Y-71400000D02*
X189400000Y-71400000D01*
X143500000Y-70000000D02*
X144900000Y-71400000D01*
X139900000Y-70000000D02*
X143500000Y-70000000D01*
X183100000Y-96600000D02*
X199500000Y-96600000D01*
D17*
X103300000Y-119800000D02*
X103300000Y-116800000D01*
X103300000Y-116800000D02*
X105300000Y-114800000D01*
X100300000Y-121800000D02*
X103300000Y-124800000D01*
X100300000Y-113300000D02*
X100300000Y-121800000D01*
X90400000Y-113300000D02*
X100300000Y-113300000D01*
X119700000Y-100900000D02*
X119700000Y-104400000D01*
X119400000Y-100600000D02*
X119700000Y-100900000D01*
D18*
X133804000Y-108296000D02*
X117004000Y-108296000D01*
X135100000Y-115800000D02*
X136300000Y-114600000D01*
X132500000Y-115800000D02*
X135100000Y-115800000D01*
X136300000Y-114600000D02*
X136300000Y-110600000D01*
X136300000Y-110600000D02*
X133804000Y-108296000D01*
X125900000Y-115800000D02*
X132200000Y-115800000D01*
X132300000Y-115500000D02*
X132300000Y-112000000D01*
X132200000Y-115800000D02*
X132500000Y-115800000D01*
X132300000Y-115600000D02*
X132300000Y-115500000D01*
X132300000Y-115700000D02*
X132300000Y-112000000D01*
X132200000Y-115800000D02*
X132300000Y-115700000D01*
X123900000Y-121400000D02*
X122100000Y-119600000D01*
X150900000Y-117200000D02*
X142700000Y-117200000D01*
X142700000Y-117200000D02*
X138500000Y-121400000D01*
X152100000Y-118400000D02*
X150900000Y-117200000D01*
X138500000Y-121400000D02*
X123900000Y-121400000D01*
X174920000Y-62600000D02*
X176520000Y-61000000D01*
D17*
X96400000Y-48900000D02*
X96400000Y-51200000D01*
X98100000Y-47200000D02*
X96400000Y-48900000D01*
X106700000Y-47200000D02*
X98100000Y-47200000D01*
D18*
X108000000Y-63600000D02*
X109500000Y-63600000D01*
X109500000Y-63600000D02*
X107900000Y-63600000D01*
X107800000Y-66200000D02*
X106800000Y-66200000D01*
X107800000Y-66200000D02*
X132300000Y-66200000D01*
X106700000Y-66200000D02*
X107800000Y-66200000D01*
X93700000Y-62600000D02*
X93700000Y-62100000D01*
X93700000Y-72000000D02*
X93700000Y-62600000D01*
X93700000Y-62100000D02*
X93700000Y-60800000D01*
X91400000Y-58500000D02*
X90100000Y-58500000D01*
X93700000Y-60800000D02*
X91400000Y-58500000D01*
X132100000Y-67600000D02*
X104300000Y-67600000D01*
X135900000Y-71400000D02*
X132100000Y-67600000D01*
X143700000Y-71400000D02*
X135900000Y-71400000D01*
X192300000Y-77600000D02*
X194000000Y-79300000D01*
X206700000Y-78000000D02*
X208200000Y-78000000D01*
X208500000Y-78000000D02*
X206700000Y-78000000D01*
X209600000Y-79300000D02*
X210800000Y-79300000D01*
X194000000Y-79300000D02*
X209600000Y-79300000D01*
X203700000Y-94400000D02*
X204380000Y-95080000D01*
X204380000Y-95080000D02*
X204380000Y-96600000D01*
X203500000Y-94200000D02*
X203700000Y-94400000D01*
X201028630Y-94928630D02*
X201500000Y-94928630D01*
X201028630Y-94928630D02*
X198228630Y-94928630D01*
X201840000Y-95268630D02*
X201840000Y-96600000D01*
X201735685Y-95164315D02*
X201840000Y-95268630D01*
X201735685Y-95164315D02*
X201500000Y-94928630D01*
X205720000Y-97800000D02*
X206920000Y-96600000D01*
X205470000Y-98050000D02*
X206920000Y-96600000D01*
X192450000Y-98050000D02*
X205470000Y-98050000D01*
X191900000Y-98600000D02*
X192450000Y-98050000D01*
X204380000Y-102380000D02*
X204380000Y-104180000D01*
X147700000Y-101600000D02*
X203800000Y-101600000D01*
X203300000Y-101600000D02*
X203900000Y-101600000D01*
X203300000Y-101600000D02*
X203700000Y-101600000D01*
X147600000Y-101600000D02*
X203300000Y-101600000D01*
X204380000Y-102080000D02*
X204380000Y-104180000D01*
X203900000Y-101600000D02*
X204380000Y-102080000D01*
X200700000Y-102800000D02*
X142100000Y-102800000D01*
X200900000Y-102800000D02*
X200700000Y-102800000D01*
X201840000Y-102840000D02*
X201840000Y-104180000D01*
X200700000Y-102800000D02*
X201800000Y-102800000D01*
X201800000Y-102800000D02*
X201840000Y-102840000D01*
X209460000Y-101211668D02*
X209460000Y-104180000D01*
X209024166Y-100775834D02*
X209460000Y-101211668D01*
X207500000Y-99200000D02*
X209024166Y-100775834D01*
X206920000Y-101780000D02*
X206920000Y-104180000D01*
X206920000Y-101620000D02*
X206920000Y-104180000D01*
X206600000Y-101300000D02*
X206920000Y-101620000D01*
X205700000Y-100400000D02*
X206600000Y-101300000D01*
D17*
X206860000Y-124840000D02*
X206860000Y-127200000D01*
X207100000Y-124600000D02*
X206860000Y-124840000D01*
D18*
X211940000Y-129560000D02*
X211940000Y-127200000D01*
X211600000Y-129900000D02*
X211940000Y-129560000D01*
X211600000Y-129900000D02*
X211100000Y-130400000D01*
X203300000Y-129000000D02*
X203900000Y-129000000D01*
X203300000Y-129000000D02*
X203500000Y-129000000D01*
X194100000Y-129000000D02*
X203300000Y-129000000D01*
X204320000Y-128580000D02*
X204320000Y-127200000D01*
X203900000Y-129000000D02*
X204320000Y-128580000D01*
D17*
X199240000Y-124860000D02*
X199240000Y-127200000D01*
X199500000Y-124600000D02*
X199240000Y-124860000D01*
X214480000Y-125180000D02*
X214480000Y-127200000D01*
X213900000Y-124600000D02*
X214700000Y-124600000D01*
X207100000Y-124600000D02*
X213900000Y-124600000D01*
X199700000Y-91800000D02*
X199300000Y-91400000D01*
X201400000Y-91800000D02*
X199700000Y-91800000D01*
X199500000Y-91800000D02*
X201400000Y-91800000D01*
X199300000Y-91400000D02*
X199300000Y-91800000D01*
X199300000Y-88980000D02*
X199300000Y-91400000D01*
X201400000Y-91800000D02*
X217300000Y-91800000D01*
X218500000Y-45000000D02*
X217696681Y-45003319D01*
X184563319Y-45003319D02*
X184220000Y-44660000D01*
X184220000Y-44660000D02*
X184220000Y-39600000D01*
X217696681Y-45003319D02*
X184563319Y-45003319D01*
D18*
X181700000Y-44500000D02*
X181700000Y-43400000D01*
X183600000Y-46400000D02*
X181700000Y-44500000D01*
X181700000Y-43400000D02*
X181680000Y-39600000D01*
D17*
X179140000Y-46040000D02*
X179140000Y-39600000D01*
X180600000Y-47500000D02*
X179140000Y-46040000D01*
X180600000Y-47500000D02*
X181100000Y-48000000D01*
X180000000Y-46900000D02*
X180600000Y-47500000D01*
X113100000Y-45800000D02*
X111700000Y-47200000D01*
X113100000Y-39600000D02*
X113100000Y-45800000D01*
X108020000Y-44660000D02*
X108020000Y-39600000D01*
X106700000Y-47200000D02*
X106700000Y-45980000D01*
X106700000Y-45980000D02*
X108020000Y-44660000D01*
D18*
X110560000Y-44340000D02*
X110560000Y-39600000D01*
X109700000Y-45200000D02*
X110560000Y-44340000D01*
X109700000Y-45200000D02*
X110290000Y-44610000D01*
X109100000Y-45800000D02*
X109700000Y-45200000D01*
X115640000Y-45940000D02*
X115640000Y-39600000D01*
X116400000Y-46700000D02*
X115640000Y-45940000D01*
X116700000Y-47000000D02*
X116400000Y-46700000D01*
X135900000Y-47000000D02*
X138500000Y-44400000D01*
X138500000Y-44400000D02*
X138500000Y-39600000D01*
X145800000Y-49900000D02*
X146300000Y-49400000D01*
X144780000Y-50920000D02*
X144780000Y-53580000D01*
X145800000Y-49900000D02*
X144780000Y-50920000D01*
X147320000Y-51880000D02*
X147500000Y-51700000D01*
X147320000Y-53580000D02*
X147320000Y-51880000D01*
X168400000Y-45100000D02*
X168980000Y-44520000D01*
X168400000Y-45100000D02*
X168710000Y-44790000D01*
X168980000Y-44520000D02*
X168980000Y-39600000D01*
X167700000Y-45800000D02*
X168400000Y-45100000D01*
D17*
X175440000Y-109740000D02*
X175440000Y-112000000D01*
X175100000Y-109400000D02*
X175440000Y-109740000D01*
D18*
X175200000Y-115800000D02*
X176900000Y-115800000D01*
X175200000Y-115800000D02*
X176700000Y-115800000D01*
X173100000Y-115800000D02*
X175200000Y-115800000D01*
X153868630Y-75600000D02*
X153700000Y-75600000D01*
X155000000Y-75600000D02*
X153868630Y-75600000D01*
X155100000Y-75600000D02*
X153700000Y-75600000D01*
D17*
X169400000Y-115800000D02*
X169500000Y-115900000D01*
X165400000Y-115800000D02*
X169500000Y-115800000D01*
X132240000Y-92540000D02*
X132240000Y-89200000D01*
X132500000Y-92800000D02*
X132240000Y-92540000D01*
X132500000Y-92800000D02*
X139700000Y-92800000D01*
X103100000Y-107200000D02*
X103100000Y-100600000D01*
X135900000Y-73600000D02*
X138500000Y-73600000D01*
X117000000Y-114600000D02*
X118800000Y-116400000D01*
X118800000Y-116400000D02*
X119700000Y-117400000D01*
X100300000Y-113300000D02*
X103100000Y-113300000D01*
D18*
X124900000Y-128600000D02*
X124900000Y-127200000D01*
X114300000Y-120900000D02*
X118800000Y-125400000D01*
X110840000Y-116980000D02*
X110840000Y-119540000D01*
X120100000Y-125400000D02*
X120900000Y-126200000D01*
X118800000Y-125400000D02*
X120100000Y-125400000D01*
X120900000Y-128600000D02*
X121500000Y-129200000D01*
X121500000Y-129200000D02*
X124300000Y-129200000D01*
X120900000Y-126200000D02*
X120900000Y-128600000D01*
X124300000Y-129200000D02*
X124900000Y-128600000D01*
D17*
X164268630Y-120800000D02*
X162100000Y-120800000D01*
X165400000Y-120800000D02*
X164268630Y-120800000D01*
X156700000Y-120800000D02*
X162100000Y-120800000D01*
X162100000Y-120800000D02*
X162900000Y-120800000D01*
X166700000Y-122000000D02*
X165900000Y-122000000D01*
X166700000Y-122000000D02*
X165400000Y-122000000D01*
X173300000Y-122000000D02*
X166700000Y-122000000D01*
X165400000Y-120800000D02*
X165400000Y-122000000D01*
X167900000Y-109400000D02*
X167900000Y-112000000D01*
X175100000Y-109400000D02*
X167900000Y-109400000D01*
D18*
X149000000Y-99200000D02*
X151100000Y-99200000D01*
X149000000Y-99200000D02*
X149400000Y-99200000D01*
X140900000Y-77600000D02*
X140400000Y-77100000D01*
X140900000Y-77600000D02*
X182900000Y-77600000D01*
X146120000Y-44380000D02*
X146120000Y-39600000D01*
X144700000Y-45800000D02*
X146120000Y-44380000D01*
X141040000Y-46860000D02*
X141040000Y-39600000D01*
X140400000Y-47500000D02*
X141040000Y-46860000D01*
X140400000Y-47500000D02*
X136500000Y-51400000D01*
X140770000Y-47130000D02*
X140400000Y-47500000D01*
D17*
X191500000Y-58600000D02*
X191700000Y-58400000D01*
X134700000Y-58600000D02*
X191500000Y-58600000D01*
D18*
X157100000Y-62600000D02*
X156200000Y-62600000D01*
X157100000Y-62600000D02*
X174920000Y-62600000D01*
X156300000Y-62600000D02*
X157100000Y-62600000D01*
X194400000Y-50800000D02*
X195400000Y-50800000D01*
X194900000Y-50800000D02*
X194400000Y-50800000D01*
D17*
X219700000Y-58400000D02*
X221700000Y-56400000D01*
X192831370Y-58400000D02*
X191700000Y-58400000D01*
X214480000Y-58620000D02*
X214480000Y-61000000D01*
X214700000Y-58400000D02*
X192831370Y-58400000D01*
X214700000Y-58400000D02*
X214480000Y-58620000D01*
X219700000Y-58400000D02*
X214700000Y-58400000D01*
D18*
X156300000Y-99200000D02*
X157500000Y-98000000D01*
X156100000Y-99200000D02*
X151100000Y-99200000D01*
X156100000Y-99200000D02*
X156300000Y-99200000D01*
X161700000Y-109400000D02*
X162700000Y-109400000D01*
X149300000Y-109400000D02*
X161700000Y-109400000D01*
D17*
X169500000Y-124800000D02*
X169700000Y-124600000D01*
X169500000Y-128500000D02*
X169500000Y-124800000D01*
D18*
X147873334Y-51373334D02*
X148446668Y-50800000D01*
X147873334Y-51373334D02*
X148300000Y-51000000D01*
X148446668Y-50800000D02*
X161300000Y-50800000D01*
X147500000Y-51700000D02*
X147873334Y-51373334D01*
X161200000Y-49400000D02*
X163800000Y-49400000D01*
X161200000Y-49400000D02*
X162500000Y-49400000D01*
X146300000Y-49400000D02*
X161200000Y-49400000D01*
X118300000Y-73700000D02*
X118300000Y-74600000D01*
X118900000Y-75200000D02*
X118300000Y-74600000D01*
X118300000Y-74200000D02*
X118300000Y-73700000D01*
X119540000Y-72360000D02*
X119540000Y-73960000D01*
X120700000Y-71200000D02*
X119540000Y-72360000D01*
X130900000Y-71200000D02*
X120700000Y-71200000D01*
X132240000Y-72540000D02*
X130900000Y-71200000D01*
X132240000Y-73960000D02*
X132240000Y-72540000D01*
X122700000Y-72000000D02*
X122080000Y-72620000D01*
X130100000Y-72000000D02*
X122700000Y-72000000D01*
X130900000Y-72800000D02*
X130100000Y-72000000D01*
X122080000Y-72620000D02*
X122080000Y-73960000D01*
X153700000Y-75600000D02*
X144300000Y-75600000D01*
X143900000Y-75200000D02*
X131700000Y-75200000D01*
X144300000Y-75600000D02*
X143900000Y-75200000D01*
X131700000Y-75200000D02*
X130900000Y-74400000D01*
X130900000Y-74400000D02*
X130900000Y-72800000D01*
X117900000Y-72200000D02*
X118300000Y-72600000D01*
X117900000Y-72200000D02*
X116900000Y-71200000D01*
X118300000Y-73700000D02*
X118300000Y-72600000D01*
X118100000Y-72400000D02*
X117900000Y-72200000D01*
X169700000Y-78800000D02*
X171400000Y-78800000D01*
X169700000Y-78800000D02*
X171700000Y-78800000D01*
X142300000Y-78800000D02*
X169700000Y-78800000D01*
X179700000Y-84000000D02*
X152300000Y-84000000D01*
X179700000Y-84000000D02*
X181600000Y-84000000D01*
X181900000Y-84000000D02*
X179700000Y-84000000D01*
X177900000Y-82600000D02*
X179100000Y-82600000D01*
X177900000Y-82600000D02*
X142500000Y-82600000D01*
X179300000Y-82600000D02*
X177900000Y-82600000D01*
X175300000Y-81400000D02*
X176500000Y-81400000D01*
X150300000Y-118400000D02*
X152700000Y-120800000D01*
X146100000Y-118400000D02*
X150300000Y-118400000D01*
X143900000Y-120600000D02*
X146100000Y-118400000D01*
X143900000Y-120800000D02*
X143900000Y-120600000D01*
X156900000Y-118400000D02*
X152100000Y-118400000D01*
X156900000Y-118400000D02*
X158900000Y-118400000D01*
X157500000Y-118400000D02*
X156900000Y-118400000D01*
X209400000Y-64800000D02*
X210800000Y-66200000D01*
X209400000Y-61000000D02*
X209400000Y-64800000D01*
X210800000Y-66200000D02*
X210800000Y-66800000D01*
X210800000Y-66800000D02*
X210800000Y-69800000D01*
X129400000Y-47000000D02*
X130900000Y-47000000D01*
X129400000Y-47000000D02*
X116700000Y-47000000D01*
X130700000Y-47000000D02*
X129400000Y-47000000D01*
X140400000Y-77100000D02*
X136260000Y-77100000D01*
X136260000Y-77100000D02*
X135890000Y-77470000D01*
X135890000Y-77470000D02*
X115570000Y-77470000D01*
X114460000Y-76360000D02*
X115570000Y-77470000D01*
X114460000Y-73960000D02*
X114460000Y-76360000D01*
X116840000Y-74120000D02*
X117000000Y-73960000D01*
X169700000Y-76800000D02*
X143100000Y-76800000D01*
X170300000Y-76200000D02*
X169700000Y-76800000D01*
X193100000Y-76200000D02*
X170300000Y-76200000D01*
X194900000Y-78000000D02*
X193100000Y-76200000D01*
X143100000Y-76800000D02*
X142500000Y-76200000D01*
X206700000Y-78000000D02*
X194900000Y-78000000D01*
D17*
X96400000Y-51200000D02*
X87230000Y-51200000D01*
X87230000Y-51200000D02*
X83820000Y-54610000D01*
X83820000Y-54610000D02*
X83820000Y-110490000D01*
X86630000Y-113300000D02*
X90400000Y-113300000D01*
X83820000Y-110490000D02*
X86630000Y-113300000D01*
X191760000Y-88840000D02*
X191760000Y-90160000D01*
X191760000Y-90160000D02*
X191115000Y-90805000D01*
X141695000Y-90805000D02*
X139700000Y-92800000D01*
X191115000Y-90805000D02*
X141695000Y-90805000D01*
D18*
X187620000Y-87400000D02*
X189220000Y-89000000D01*
X142470000Y-87400000D02*
X187620000Y-87400000D01*
X140870000Y-89000000D02*
X142470000Y-87400000D01*
X134300000Y-89000000D02*
X140870000Y-89000000D01*
X133100000Y-87800000D02*
X134300000Y-89000000D01*
X123660000Y-87800000D02*
X133100000Y-87800000D01*
X122080000Y-89380000D02*
X123660000Y-87800000D01*
X122080000Y-89200000D02*
X122080000Y-89380000D01*
X162500000Y-45800000D02*
X163850000Y-44450000D01*
X163850000Y-44450000D02*
X165735000Y-44450000D01*
X166370000Y-43815000D02*
X166370000Y-39370000D01*
X165735000Y-44450000D02*
X166370000Y-43815000D01*
D17*
X96400000Y-51200000D02*
X96400000Y-58300000D01*
X96400000Y-58300000D02*
X96700000Y-58600000D01*
X129560000Y-59075000D02*
X129085000Y-58600000D01*
X129560000Y-61220000D02*
X129560000Y-59075000D01*
X129085000Y-58600000D02*
X134700000Y-58600000D01*
X100020000Y-58745000D02*
X99875000Y-58600000D01*
X100020000Y-64135000D02*
X100020000Y-58745000D01*
X99875000Y-58600000D02*
X129085000Y-58600000D01*
X96700000Y-58600000D02*
X99875000Y-58600000D01*
D18*
X119700000Y-129225000D02*
X119700000Y-127200000D01*
X121920000Y-131445000D02*
X119700000Y-129225000D01*
X162655000Y-131445000D02*
X121920000Y-131445000D01*
X164300000Y-129800000D02*
X162655000Y-131445000D01*
X114300000Y-120900000D02*
X112200000Y-120900000D01*
X110902500Y-119602500D02*
X112100000Y-120800000D01*
X110840000Y-119540000D02*
X110902500Y-119602500D01*
X129900000Y-112000000D02*
X128390000Y-110490000D01*
X128390000Y-110490000D02*
X118745000Y-110490000D01*
X118745000Y-110490000D02*
X117235000Y-112000000D01*
X116840000Y-109220000D02*
X113030000Y-105410000D01*
X133350000Y-109220000D02*
X116840000Y-109220000D01*
X134900000Y-110770000D02*
X133350000Y-109220000D01*
X134900000Y-112000000D02*
X134900000Y-110770000D01*
D17*
X117000000Y-114600000D02*
X108920000Y-114600000D01*
X108300000Y-115220000D02*
X108300000Y-116980000D01*
X108920000Y-114600000D02*
X108300000Y-115220000D01*
D18*
X143300000Y-99200000D02*
X149000000Y-99200000D01*
X142100000Y-98000000D02*
X143300000Y-99200000D01*
X126100000Y-98000000D02*
X142100000Y-98000000D01*
X108300000Y-122800000D02*
X108300000Y-124600000D01*
X106680000Y-119380000D02*
X108300000Y-121000000D01*
X106680000Y-114300000D02*
X106680000Y-119380000D01*
X107780000Y-113200000D02*
X106680000Y-114300000D01*
X124100000Y-114000000D02*
X118900000Y-114000000D01*
X124700000Y-113400000D02*
X124100000Y-114000000D01*
X108300000Y-121000000D02*
X108300000Y-122800000D01*
X118100000Y-113200000D02*
X107780000Y-113200000D01*
X118900000Y-114000000D02*
X118100000Y-113200000D01*
X124700000Y-112000000D02*
X124700000Y-113400000D01*
X130865000Y-102235000D02*
X129700000Y-103400000D01*
X141100000Y-103635000D02*
X139700000Y-102235000D01*
X139700000Y-102235000D02*
X130865000Y-102235000D01*
X141100000Y-113400000D02*
X141100000Y-103635000D01*
X129700000Y-103400000D02*
X129700000Y-104400000D01*
X143500000Y-115800000D02*
X141100000Y-113400000D01*
X152700000Y-115800000D02*
X143500000Y-115800000D01*
X175260000Y-93980000D02*
X147520000Y-93980000D01*
X175895000Y-94615000D02*
X175260000Y-93980000D01*
X179485000Y-94615000D02*
X175895000Y-94615000D01*
X181300000Y-92800000D02*
X179485000Y-94615000D01*
X147520000Y-93980000D02*
X147300000Y-94200000D01*
X198100000Y-92800000D02*
X181300000Y-92800000D01*
X198700000Y-93400000D02*
X198100000Y-92800000D01*
X199900000Y-93400000D02*
X198700000Y-93400000D01*
X134300000Y-87800000D02*
X140800000Y-87800000D01*
X140800000Y-87800000D02*
X142240000Y-86360000D01*
X186540000Y-86360000D02*
X186700000Y-86200000D01*
X142240000Y-86360000D02*
X186540000Y-86360000D01*
X193500000Y-71400000D02*
X212160000Y-71400000D01*
X191500000Y-69400000D02*
X193500000Y-71400000D01*
X169100000Y-63600000D02*
X174900000Y-69400000D01*
X154700000Y-63600000D02*
X169100000Y-63600000D01*
X153700000Y-62600000D02*
X154700000Y-63600000D01*
X212160000Y-71400000D02*
X214540000Y-73780000D01*
X138700000Y-62600000D02*
X153700000Y-62600000D01*
X174900000Y-69400000D02*
X191500000Y-69400000D01*
X137700000Y-61600000D02*
X138700000Y-62600000D01*
X132300000Y-61600000D02*
X137700000Y-61600000D01*
X130300000Y-63600000D02*
X132300000Y-61600000D01*
X109500000Y-63600000D02*
X130300000Y-63600000D01*
D17*
X199300000Y-73780000D02*
X199300000Y-75475000D01*
X199300000Y-75475000D02*
X200025000Y-76200000D01*
X217300000Y-76200000D02*
X219700000Y-73800000D01*
X200025000Y-76200000D02*
X217300000Y-76200000D01*
D18*
X142755000Y-81400000D02*
X176500000Y-81400000D01*
X134380000Y-82550000D02*
X141605000Y-82550000D01*
X133230000Y-81400000D02*
X134380000Y-82550000D01*
X110700000Y-81400000D02*
X133230000Y-81400000D01*
X109380000Y-82720000D02*
X110700000Y-81400000D01*
X141605000Y-82550000D02*
X142755000Y-81400000D01*
X109380000Y-83320000D02*
X109380000Y-82720000D01*
X189220000Y-73600000D02*
X189220000Y-72888000D01*
X189220000Y-72888000D02*
X188468000Y-72136000D01*
X144436000Y-72136000D02*
X143700000Y-71400000D01*
X188468000Y-72136000D02*
X144436000Y-72136000D01*
X177500000Y-49400000D02*
X178900000Y-50800000D01*
X167510000Y-49400000D02*
X177500000Y-49400000D01*
X178900000Y-50800000D02*
X194400000Y-50800000D01*
X165354000Y-47244000D02*
X167510000Y-49400000D01*
X149860000Y-47244000D02*
X165354000Y-47244000D01*
X148660000Y-46044000D02*
X149860000Y-47244000D01*
X148660000Y-39600000D02*
X148660000Y-46044000D01*
X143510000Y-43815000D02*
X143510000Y-39370000D01*
X142875000Y-44450000D02*
X143510000Y-43815000D01*
X142875000Y-46355000D02*
X142875000Y-44450000D01*
X144526000Y-48006000D02*
X142875000Y-46355000D01*
X167386000Y-50800000D02*
X164592000Y-48006000D01*
X176700000Y-50800000D02*
X167386000Y-50800000D01*
X164592000Y-48006000D02*
X144526000Y-48006000D01*
X177500000Y-51600000D02*
X176700000Y-50800000D01*
X192500000Y-51600000D02*
X177500000Y-51600000D01*
X194300000Y-53400000D02*
X192500000Y-51600000D01*
X163830000Y-43180000D02*
X163830000Y-39370000D01*
X162861000Y-44149000D02*
X163830000Y-43180000D01*
X161751000Y-44149000D02*
X162861000Y-44149000D01*
X160100000Y-45800000D02*
X161751000Y-44149000D01*
X161290000Y-43180000D02*
X161290000Y-39370000D01*
X160351000Y-44119000D02*
X161290000Y-43180000D01*
X159181000Y-44119000D02*
X160351000Y-44119000D01*
X157500000Y-45800000D02*
X159181000Y-44119000D01*
X158750000Y-43180000D02*
X158750000Y-39370000D01*
X157968000Y-43962000D02*
X158750000Y-43180000D01*
X156738000Y-43962000D02*
X157968000Y-43962000D01*
X154900000Y-45800000D02*
X156738000Y-43962000D01*
X171450000Y-44196000D02*
X171450000Y-39370000D01*
X171196000Y-47498000D02*
X171196000Y-44450000D01*
X171898000Y-48200000D02*
X171196000Y-47498000D01*
X177500000Y-48200000D02*
X171898000Y-48200000D01*
X179300000Y-50000000D02*
X177500000Y-48200000D01*
X171196000Y-44450000D02*
X171450000Y-44196000D01*
X193100000Y-49600000D02*
X192700000Y-50000000D01*
X192700000Y-50000000D02*
X179300000Y-50000000D01*
X196900000Y-49600000D02*
X193100000Y-49600000D01*
X199300000Y-48200000D02*
X201900000Y-50800000D01*
X193700000Y-48200000D02*
X199300000Y-48200000D01*
X192700000Y-49200000D02*
X193700000Y-48200000D01*
X179850000Y-49200000D02*
X192700000Y-49200000D01*
X176450000Y-45800000D02*
X179850000Y-49200000D01*
X172700000Y-45800000D02*
X176450000Y-45800000D01*
X142500000Y-76200000D02*
X117602000Y-76200000D01*
X117000000Y-75598000D02*
X117000000Y-73960000D01*
X117602000Y-76200000D02*
X117000000Y-75598000D01*
X118900000Y-75200000D02*
X118900000Y-75212000D01*
X118900000Y-75212000D02*
X119126000Y-75438000D01*
X129262000Y-75438000D02*
X129700000Y-75000000D01*
X124620000Y-73960000D02*
X124620000Y-75344000D01*
X124714000Y-75438000D02*
X129262000Y-75438000D01*
X124620000Y-75344000D02*
X124714000Y-75438000D01*
X119126000Y-75438000D02*
X124714000Y-75438000D01*
D17*
X103300000Y-100600000D02*
X108300000Y-100600000D01*
X108300000Y-100600000D02*
X119400000Y-100600000D01*
D18*
X117235000Y-112000000D02*
X110600000Y-112000000D01*
X110600000Y-112000000D02*
X109500000Y-112000000D01*
X114204000Y-105496000D02*
X114054000Y-105346000D01*
X117004000Y-108296000D02*
X114204000Y-105496000D01*
D17*
X118408630Y-106800000D02*
X116504315Y-104895685D01*
D18*
X113030000Y-105410000D02*
X112110000Y-105410000D01*
X110540000Y-104140000D02*
X111810000Y-105410000D01*
X110540000Y-102980000D02*
X110540000Y-104140000D01*
X112110000Y-105410000D02*
X111810000Y-105410000D01*
X113080000Y-104372000D02*
X113404000Y-104696000D01*
X113080000Y-102980000D02*
X113080000Y-104372000D01*
X113404000Y-104696000D02*
X114204000Y-105496000D01*
X113280000Y-104572000D02*
X113404000Y-104696000D01*
D17*
X108000000Y-100900000D02*
X108300000Y-100600000D01*
X108000000Y-102980000D02*
X108000000Y-100900000D01*
X116504315Y-104895685D02*
X116495685Y-104895685D01*
X115620000Y-104020000D02*
X115620000Y-102980000D01*
X116495685Y-104895685D02*
X115620000Y-104020000D01*
D18*
X109400000Y-112000000D02*
X108000000Y-110600000D01*
X110300000Y-112000000D02*
X109400000Y-112000000D01*
X110600000Y-112000000D02*
X110300000Y-112000000D01*
X110300000Y-112000000D02*
X109600000Y-112000000D01*
X161300000Y-66800000D02*
X161300000Y-66812000D01*
X161544000Y-67056000D02*
X161544000Y-68500000D01*
X161300000Y-66812000D02*
X161544000Y-67056000D01*
X161300000Y-69550000D02*
X161336000Y-69550000D01*
X161544000Y-69342000D02*
X161544000Y-68500000D01*
X161336000Y-69550000D02*
X161544000Y-69342000D01*
D17*
X214540000Y-110072000D02*
X215212000Y-109400000D01*
X214540000Y-111800000D02*
X214540000Y-110072000D01*
X215212000Y-109400000D02*
X194700000Y-109400000D01*
X219900000Y-109400000D02*
X215212000Y-109400000D01*
X89235000Y-85517000D02*
X89235000Y-88476000D01*
X90952000Y-83800000D02*
X89235000Y-85517000D01*
X101500000Y-83800000D02*
X90952000Y-83800000D01*
X89235000Y-88476000D02*
X89235000Y-91246000D01*
X89235000Y-91246000D02*
X89235000Y-94016000D01*
X89235000Y-94016000D02*
X89235000Y-96786000D01*
X90620000Y-98171000D02*
X89235000Y-96786000D01*
X92075000Y-98171000D02*
X90620000Y-98171000D01*
M02*
