G04 #@! TF.GenerationSoftware,KiCad,Pcbnew,5.1.10*
G04 #@! TF.CreationDate,2021-08-06T08:54:22+02:00*
G04 #@! TF.ProjectId,nano,6e616e6f-2e6b-4696-9361-645f70636258,rev?*
G04 #@! TF.SameCoordinates,Original*
G04 #@! TF.FileFunction,Soldermask,Top*
G04 #@! TF.FilePolarity,Negative*
%FSLAX46Y46*%
G04 Gerber Fmt 4.6, Leading zero omitted, Abs format (unit mm)*
G04 Created by KiCad (PCBNEW 5.1.10) date 2021-08-06 08:54:22*
%MOMM*%
%LPD*%
G01*
G04 APERTURE LIST*
%ADD10C,4.102000*%
%ADD11C,1.702000*%
%ADD12C,3.302000*%
%ADD13O,1.702000X1.702000*%
%ADD14C,0.150000*%
G04 APERTURE END LIST*
D10*
X90655000Y-105131000D03*
X90655000Y-80131000D03*
D11*
X89235000Y-88476000D03*
X89235000Y-91246000D03*
X89235000Y-94016000D03*
X89235000Y-96786000D03*
X92075000Y-87091000D03*
X92075000Y-89861000D03*
X92075000Y-92631000D03*
X92075000Y-95401000D03*
G36*
G01*
X91275000Y-97320000D02*
X92875000Y-97320000D01*
G75*
G02*
X92926000Y-97371000I0J-51000D01*
G01*
X92926000Y-98971000D01*
G75*
G02*
X92875000Y-99022000I-51000J0D01*
G01*
X91275000Y-99022000D01*
G75*
G02*
X91224000Y-98971000I0J51000D01*
G01*
X91224000Y-97371000D01*
G75*
G02*
X91275000Y-97320000I51000J0D01*
G01*
G37*
G36*
G01*
X109549000Y-43280000D02*
X109549000Y-35660000D01*
G75*
G02*
X109600000Y-35609000I51000J0D01*
G01*
X111380000Y-35609000D01*
G75*
G02*
X111431000Y-35660000I0J-51000D01*
G01*
X111431000Y-43280000D01*
G75*
G02*
X111380000Y-43331000I-51000J0D01*
G01*
X109600000Y-43331000D01*
G75*
G02*
X109549000Y-43280000I0J51000D01*
G01*
G37*
G36*
G01*
X112089000Y-43280000D02*
X112089000Y-35660000D01*
G75*
G02*
X112140000Y-35609000I51000J0D01*
G01*
X113920000Y-35609000D01*
G75*
G02*
X113971000Y-35660000I0J-51000D01*
G01*
X113971000Y-43280000D01*
G75*
G02*
X113920000Y-43331000I-51000J0D01*
G01*
X112140000Y-43331000D01*
G75*
G02*
X112089000Y-43280000I0J51000D01*
G01*
G37*
G36*
G01*
X114629000Y-43280000D02*
X114629000Y-35660000D01*
G75*
G02*
X114680000Y-35609000I51000J0D01*
G01*
X116460000Y-35609000D01*
G75*
G02*
X116511000Y-35660000I0J-51000D01*
G01*
X116511000Y-43280000D01*
G75*
G02*
X116460000Y-43331000I-51000J0D01*
G01*
X114680000Y-43331000D01*
G75*
G02*
X114629000Y-43280000I0J51000D01*
G01*
G37*
G36*
G01*
X117169000Y-43280000D02*
X117169000Y-35660000D01*
G75*
G02*
X117220000Y-35609000I51000J0D01*
G01*
X119000000Y-35609000D01*
G75*
G02*
X119051000Y-35660000I0J-51000D01*
G01*
X119051000Y-43280000D01*
G75*
G02*
X119000000Y-43331000I-51000J0D01*
G01*
X117220000Y-43331000D01*
G75*
G02*
X117169000Y-43280000I0J51000D01*
G01*
G37*
G36*
G01*
X119709000Y-43280000D02*
X119709000Y-35660000D01*
G75*
G02*
X119760000Y-35609000I51000J0D01*
G01*
X121540000Y-35609000D01*
G75*
G02*
X121591000Y-35660000I0J-51000D01*
G01*
X121591000Y-43280000D01*
G75*
G02*
X121540000Y-43331000I-51000J0D01*
G01*
X119760000Y-43331000D01*
G75*
G02*
X119709000Y-43280000I0J51000D01*
G01*
G37*
G36*
G01*
X122249000Y-43280000D02*
X122249000Y-35660000D01*
G75*
G02*
X122300000Y-35609000I51000J0D01*
G01*
X124080000Y-35609000D01*
G75*
G02*
X124131000Y-35660000I0J-51000D01*
G01*
X124131000Y-43280000D01*
G75*
G02*
X124080000Y-43331000I-51000J0D01*
G01*
X122300000Y-43331000D01*
G75*
G02*
X122249000Y-43280000I0J51000D01*
G01*
G37*
G36*
G01*
X124789000Y-43280000D02*
X124789000Y-35660000D01*
G75*
G02*
X124840000Y-35609000I51000J0D01*
G01*
X126620000Y-35609000D01*
G75*
G02*
X126671000Y-35660000I0J-51000D01*
G01*
X126671000Y-43280000D01*
G75*
G02*
X126620000Y-43331000I-51000J0D01*
G01*
X124840000Y-43331000D01*
G75*
G02*
X124789000Y-43280000I0J51000D01*
G01*
G37*
G36*
G01*
X127329000Y-43280000D02*
X127329000Y-35660000D01*
G75*
G02*
X127380000Y-35609000I51000J0D01*
G01*
X129160000Y-35609000D01*
G75*
G02*
X129211000Y-35660000I0J-51000D01*
G01*
X129211000Y-43280000D01*
G75*
G02*
X129160000Y-43331000I-51000J0D01*
G01*
X127380000Y-43331000D01*
G75*
G02*
X127329000Y-43280000I0J51000D01*
G01*
G37*
G36*
G01*
X129869000Y-43280000D02*
X129869000Y-35660000D01*
G75*
G02*
X129920000Y-35609000I51000J0D01*
G01*
X131700000Y-35609000D01*
G75*
G02*
X131751000Y-35660000I0J-51000D01*
G01*
X131751000Y-43280000D01*
G75*
G02*
X131700000Y-43331000I-51000J0D01*
G01*
X129920000Y-43331000D01*
G75*
G02*
X129869000Y-43280000I0J51000D01*
G01*
G37*
G36*
G01*
X132409000Y-43280000D02*
X132409000Y-35660000D01*
G75*
G02*
X132460000Y-35609000I51000J0D01*
G01*
X134240000Y-35609000D01*
G75*
G02*
X134291000Y-35660000I0J-51000D01*
G01*
X134291000Y-43280000D01*
G75*
G02*
X134240000Y-43331000I-51000J0D01*
G01*
X132460000Y-43331000D01*
G75*
G02*
X132409000Y-43280000I0J51000D01*
G01*
G37*
G36*
G01*
X145109000Y-43280000D02*
X145109000Y-35660000D01*
G75*
G02*
X145160000Y-35609000I51000J0D01*
G01*
X146940000Y-35609000D01*
G75*
G02*
X146991000Y-35660000I0J-51000D01*
G01*
X146991000Y-43280000D01*
G75*
G02*
X146940000Y-43331000I-51000J0D01*
G01*
X145160000Y-43331000D01*
G75*
G02*
X145109000Y-43280000I0J51000D01*
G01*
G37*
G36*
G01*
X147649000Y-43280000D02*
X147649000Y-35660000D01*
G75*
G02*
X147700000Y-35609000I51000J0D01*
G01*
X149480000Y-35609000D01*
G75*
G02*
X149531000Y-35660000I0J-51000D01*
G01*
X149531000Y-43280000D01*
G75*
G02*
X149480000Y-43331000I-51000J0D01*
G01*
X147700000Y-43331000D01*
G75*
G02*
X147649000Y-43280000I0J51000D01*
G01*
G37*
G36*
G01*
X160349000Y-43280000D02*
X160349000Y-35660000D01*
G75*
G02*
X160400000Y-35609000I51000J0D01*
G01*
X162180000Y-35609000D01*
G75*
G02*
X162231000Y-35660000I0J-51000D01*
G01*
X162231000Y-43280000D01*
G75*
G02*
X162180000Y-43331000I-51000J0D01*
G01*
X160400000Y-43331000D01*
G75*
G02*
X160349000Y-43280000I0J51000D01*
G01*
G37*
G36*
G01*
X162889000Y-43280000D02*
X162889000Y-35660000D01*
G75*
G02*
X162940000Y-35609000I51000J0D01*
G01*
X164720000Y-35609000D01*
G75*
G02*
X164771000Y-35660000I0J-51000D01*
G01*
X164771000Y-43280000D01*
G75*
G02*
X164720000Y-43331000I-51000J0D01*
G01*
X162940000Y-43331000D01*
G75*
G02*
X162889000Y-43280000I0J51000D01*
G01*
G37*
G36*
G01*
X165429000Y-43280000D02*
X165429000Y-35660000D01*
G75*
G02*
X165480000Y-35609000I51000J0D01*
G01*
X167260000Y-35609000D01*
G75*
G02*
X167311000Y-35660000I0J-51000D01*
G01*
X167311000Y-43280000D01*
G75*
G02*
X167260000Y-43331000I-51000J0D01*
G01*
X165480000Y-43331000D01*
G75*
G02*
X165429000Y-43280000I0J51000D01*
G01*
G37*
G36*
G01*
X167969000Y-43280000D02*
X167969000Y-35660000D01*
G75*
G02*
X168020000Y-35609000I51000J0D01*
G01*
X169800000Y-35609000D01*
G75*
G02*
X169851000Y-35660000I0J-51000D01*
G01*
X169851000Y-43280000D01*
G75*
G02*
X169800000Y-43331000I-51000J0D01*
G01*
X168020000Y-43331000D01*
G75*
G02*
X167969000Y-43280000I0J51000D01*
G01*
G37*
G36*
G01*
X170509000Y-43280000D02*
X170509000Y-35660000D01*
G75*
G02*
X170560000Y-35609000I51000J0D01*
G01*
X172340000Y-35609000D01*
G75*
G02*
X172391000Y-35660000I0J-51000D01*
G01*
X172391000Y-43280000D01*
G75*
G02*
X172340000Y-43331000I-51000J0D01*
G01*
X170560000Y-43331000D01*
G75*
G02*
X170509000Y-43280000I0J51000D01*
G01*
G37*
G36*
G01*
X173049000Y-43280000D02*
X173049000Y-35660000D01*
G75*
G02*
X173100000Y-35609000I51000J0D01*
G01*
X174880000Y-35609000D01*
G75*
G02*
X174931000Y-35660000I0J-51000D01*
G01*
X174931000Y-43280000D01*
G75*
G02*
X174880000Y-43331000I-51000J0D01*
G01*
X173100000Y-43331000D01*
G75*
G02*
X173049000Y-43280000I0J51000D01*
G01*
G37*
G36*
G01*
X175589000Y-43280000D02*
X175589000Y-35660000D01*
G75*
G02*
X175640000Y-35609000I51000J0D01*
G01*
X177420000Y-35609000D01*
G75*
G02*
X177471000Y-35660000I0J-51000D01*
G01*
X177471000Y-43280000D01*
G75*
G02*
X177420000Y-43331000I-51000J0D01*
G01*
X175640000Y-43331000D01*
G75*
G02*
X175589000Y-43280000I0J51000D01*
G01*
G37*
G36*
G01*
X178129000Y-43280000D02*
X178129000Y-35660000D01*
G75*
G02*
X178180000Y-35609000I51000J0D01*
G01*
X179960000Y-35609000D01*
G75*
G02*
X180011000Y-35660000I0J-51000D01*
G01*
X180011000Y-43280000D01*
G75*
G02*
X179960000Y-43331000I-51000J0D01*
G01*
X178180000Y-43331000D01*
G75*
G02*
X178129000Y-43280000I0J51000D01*
G01*
G37*
G36*
G01*
X180669000Y-43280000D02*
X180669000Y-35660000D01*
G75*
G02*
X180720000Y-35609000I51000J0D01*
G01*
X182500000Y-35609000D01*
G75*
G02*
X182551000Y-35660000I0J-51000D01*
G01*
X182551000Y-43280000D01*
G75*
G02*
X182500000Y-43331000I-51000J0D01*
G01*
X180720000Y-43331000D01*
G75*
G02*
X180669000Y-43280000I0J51000D01*
G01*
G37*
G36*
G01*
X183209000Y-43280000D02*
X183209000Y-35660000D01*
G75*
G02*
X183260000Y-35609000I51000J0D01*
G01*
X185040000Y-35609000D01*
G75*
G02*
X185091000Y-35660000I0J-51000D01*
G01*
X185091000Y-43280000D01*
G75*
G02*
X185040000Y-43331000I-51000J0D01*
G01*
X183260000Y-43331000D01*
G75*
G02*
X183209000Y-43280000I0J51000D01*
G01*
G37*
G36*
G01*
X157537000Y-67351000D02*
X155137000Y-67351000D01*
G75*
G02*
X155086000Y-67300000I0J51000D01*
G01*
X155086000Y-65700000D01*
G75*
G02*
X155137000Y-65649000I51000J0D01*
G01*
X157537000Y-65649000D01*
G75*
G02*
X157588000Y-65700000I0J-51000D01*
G01*
X157588000Y-67300000D01*
G75*
G02*
X157537000Y-67351000I-51000J0D01*
G01*
G37*
G36*
G01*
X157537000Y-69351000D02*
X155137000Y-69351000D01*
G75*
G02*
X155086000Y-69300000I0J51000D01*
G01*
X155086000Y-67700000D01*
G75*
G02*
X155137000Y-67649000I51000J0D01*
G01*
X157537000Y-67649000D01*
G75*
G02*
X157588000Y-67700000I0J-51000D01*
G01*
X157588000Y-69300000D01*
G75*
G02*
X157537000Y-69351000I-51000J0D01*
G01*
G37*
D12*
X87500000Y-47300000D03*
X87500000Y-119300000D03*
D13*
X155400000Y-130000000D03*
D11*
X142700000Y-130000000D03*
D13*
X177900000Y-67400000D03*
D11*
X165200000Y-67400000D03*
D13*
X183100000Y-96600000D03*
D11*
X170400000Y-96600000D03*
D13*
X169500000Y-115800000D03*
D11*
X169500000Y-128500000D03*
D13*
X167900000Y-99300000D03*
D11*
X167900000Y-112000000D03*
X164100000Y-126000000D03*
X159100000Y-126000000D03*
X148900000Y-121000000D03*
X143900000Y-121000000D03*
D13*
X103100000Y-100600000D03*
D11*
X103100000Y-113300000D03*
D13*
X90100000Y-58500000D03*
D11*
X90100000Y-71200000D03*
D13*
X194500000Y-67400000D03*
D11*
X181800000Y-67400000D03*
D13*
X210800000Y-69800000D03*
D11*
X198100000Y-69800000D03*
D13*
X209400000Y-115800000D03*
D11*
X196700000Y-115800000D03*
D13*
X165400000Y-115800000D03*
D11*
X152700000Y-115800000D03*
D13*
X165400000Y-120800000D03*
D11*
X152700000Y-120800000D03*
D13*
X155400000Y-126000000D03*
D11*
X142700000Y-126000000D03*
G36*
G01*
X215700000Y-49951000D02*
X213300000Y-49951000D01*
G75*
G02*
X213249000Y-49900000I0J51000D01*
G01*
X213249000Y-48300000D01*
G75*
G02*
X213300000Y-48249000I51000J0D01*
G01*
X215700000Y-48249000D01*
G75*
G02*
X215751000Y-48300000I0J-51000D01*
G01*
X215751000Y-49900000D01*
G75*
G02*
X215700000Y-49951000I-51000J0D01*
G01*
G37*
G36*
G01*
X215700000Y-51951000D02*
X213300000Y-51951000D01*
G75*
G02*
X213249000Y-51900000I0J51000D01*
G01*
X213249000Y-50300000D01*
G75*
G02*
X213300000Y-50249000I51000J0D01*
G01*
X215700000Y-50249000D01*
G75*
G02*
X215751000Y-50300000I0J-51000D01*
G01*
X215751000Y-51900000D01*
G75*
G02*
X215700000Y-51951000I-51000J0D01*
G01*
G37*
G36*
G01*
X210600000Y-49951000D02*
X208200000Y-49951000D01*
G75*
G02*
X208149000Y-49900000I0J51000D01*
G01*
X208149000Y-48300000D01*
G75*
G02*
X208200000Y-48249000I51000J0D01*
G01*
X210600000Y-48249000D01*
G75*
G02*
X210651000Y-48300000I0J-51000D01*
G01*
X210651000Y-49900000D01*
G75*
G02*
X210600000Y-49951000I-51000J0D01*
G01*
G37*
G36*
G01*
X210600000Y-51951000D02*
X208200000Y-51951000D01*
G75*
G02*
X208149000Y-51900000I0J51000D01*
G01*
X208149000Y-50300000D01*
G75*
G02*
X208200000Y-50249000I51000J0D01*
G01*
X210600000Y-50249000D01*
G75*
G02*
X210651000Y-50300000I0J-51000D01*
G01*
X210651000Y-51900000D01*
G75*
G02*
X210600000Y-51951000I-51000J0D01*
G01*
G37*
G36*
G01*
X205500000Y-49951000D02*
X203100000Y-49951000D01*
G75*
G02*
X203049000Y-49900000I0J51000D01*
G01*
X203049000Y-48300000D01*
G75*
G02*
X203100000Y-48249000I51000J0D01*
G01*
X205500000Y-48249000D01*
G75*
G02*
X205551000Y-48300000I0J-51000D01*
G01*
X205551000Y-49900000D01*
G75*
G02*
X205500000Y-49951000I-51000J0D01*
G01*
G37*
G36*
G01*
X205500000Y-51951000D02*
X203100000Y-51951000D01*
G75*
G02*
X203049000Y-51900000I0J51000D01*
G01*
X203049000Y-50300000D01*
G75*
G02*
X203100000Y-50249000I51000J0D01*
G01*
X205500000Y-50249000D01*
G75*
G02*
X205551000Y-50300000I0J-51000D01*
G01*
X205551000Y-51900000D01*
G75*
G02*
X205500000Y-51951000I-51000J0D01*
G01*
G37*
G36*
G01*
X200500000Y-49951000D02*
X198100000Y-49951000D01*
G75*
G02*
X198049000Y-49900000I0J51000D01*
G01*
X198049000Y-48300000D01*
G75*
G02*
X198100000Y-48249000I51000J0D01*
G01*
X200500000Y-48249000D01*
G75*
G02*
X200551000Y-48300000I0J-51000D01*
G01*
X200551000Y-49900000D01*
G75*
G02*
X200500000Y-49951000I-51000J0D01*
G01*
G37*
G36*
G01*
X200500000Y-51951000D02*
X198100000Y-51951000D01*
G75*
G02*
X198049000Y-51900000I0J51000D01*
G01*
X198049000Y-50300000D01*
G75*
G02*
X198100000Y-50249000I51000J0D01*
G01*
X200500000Y-50249000D01*
G75*
G02*
X200551000Y-50300000I0J-51000D01*
G01*
X200551000Y-51900000D01*
G75*
G02*
X200500000Y-51951000I-51000J0D01*
G01*
G37*
G36*
G01*
X152300000Y-97151000D02*
X149900000Y-97151000D01*
G75*
G02*
X149849000Y-97100000I0J51000D01*
G01*
X149849000Y-95500000D01*
G75*
G02*
X149900000Y-95449000I51000J0D01*
G01*
X152300000Y-95449000D01*
G75*
G02*
X152351000Y-95500000I0J-51000D01*
G01*
X152351000Y-97100000D01*
G75*
G02*
X152300000Y-97151000I-51000J0D01*
G01*
G37*
G36*
G01*
X152300000Y-99151000D02*
X149900000Y-99151000D01*
G75*
G02*
X149849000Y-99100000I0J51000D01*
G01*
X149849000Y-97500000D01*
G75*
G02*
X149900000Y-97449000I51000J0D01*
G01*
X152300000Y-97449000D01*
G75*
G02*
X152351000Y-97500000I0J-51000D01*
G01*
X152351000Y-99100000D01*
G75*
G02*
X152300000Y-99151000I-51000J0D01*
G01*
G37*
G36*
G01*
X141281000Y-94958000D02*
X138881000Y-94958000D01*
G75*
G02*
X138830000Y-94907000I0J51000D01*
G01*
X138830000Y-93307000D01*
G75*
G02*
X138881000Y-93256000I51000J0D01*
G01*
X141281000Y-93256000D01*
G75*
G02*
X141332000Y-93307000I0J-51000D01*
G01*
X141332000Y-94907000D01*
G75*
G02*
X141281000Y-94958000I-51000J0D01*
G01*
G37*
G36*
G01*
X141281000Y-96958000D02*
X138881000Y-96958000D01*
G75*
G02*
X138830000Y-96907000I0J51000D01*
G01*
X138830000Y-95307000D01*
G75*
G02*
X138881000Y-95256000I51000J0D01*
G01*
X141281000Y-95256000D01*
G75*
G02*
X141332000Y-95307000I0J-51000D01*
G01*
X141332000Y-96907000D01*
G75*
G02*
X141281000Y-96958000I-51000J0D01*
G01*
G37*
G36*
G01*
X138300000Y-94951000D02*
X135900000Y-94951000D01*
G75*
G02*
X135849000Y-94900000I0J51000D01*
G01*
X135849000Y-93300000D01*
G75*
G02*
X135900000Y-93249000I51000J0D01*
G01*
X138300000Y-93249000D01*
G75*
G02*
X138351000Y-93300000I0J-51000D01*
G01*
X138351000Y-94900000D01*
G75*
G02*
X138300000Y-94951000I-51000J0D01*
G01*
G37*
G36*
G01*
X138300000Y-96951000D02*
X135900000Y-96951000D01*
G75*
G02*
X135849000Y-96900000I0J51000D01*
G01*
X135849000Y-95300000D01*
G75*
G02*
X135900000Y-95249000I51000J0D01*
G01*
X138300000Y-95249000D01*
G75*
G02*
X138351000Y-95300000I0J-51000D01*
G01*
X138351000Y-96900000D01*
G75*
G02*
X138300000Y-96951000I-51000J0D01*
G01*
G37*
G36*
G01*
X135312000Y-94958000D02*
X132912000Y-94958000D01*
G75*
G02*
X132861000Y-94907000I0J51000D01*
G01*
X132861000Y-93307000D01*
G75*
G02*
X132912000Y-93256000I51000J0D01*
G01*
X135312000Y-93256000D01*
G75*
G02*
X135363000Y-93307000I0J-51000D01*
G01*
X135363000Y-94907000D01*
G75*
G02*
X135312000Y-94958000I-51000J0D01*
G01*
G37*
G36*
G01*
X135312000Y-96958000D02*
X132912000Y-96958000D01*
G75*
G02*
X132861000Y-96907000I0J51000D01*
G01*
X132861000Y-95307000D01*
G75*
G02*
X132912000Y-95256000I51000J0D01*
G01*
X135312000Y-95256000D01*
G75*
G02*
X135363000Y-95307000I0J-51000D01*
G01*
X135363000Y-96907000D01*
G75*
G02*
X135312000Y-96958000I-51000J0D01*
G01*
G37*
G36*
G01*
X163125000Y-67351000D02*
X160725000Y-67351000D01*
G75*
G02*
X160674000Y-67300000I0J51000D01*
G01*
X160674000Y-65700000D01*
G75*
G02*
X160725000Y-65649000I51000J0D01*
G01*
X163125000Y-65649000D01*
G75*
G02*
X163176000Y-65700000I0J-51000D01*
G01*
X163176000Y-67300000D01*
G75*
G02*
X163125000Y-67351000I-51000J0D01*
G01*
G37*
G36*
G01*
X163125000Y-69351000D02*
X160725000Y-69351000D01*
G75*
G02*
X160674000Y-69300000I0J51000D01*
G01*
X160674000Y-67700000D01*
G75*
G02*
X160725000Y-67649000I51000J0D01*
G01*
X163125000Y-67649000D01*
G75*
G02*
X163176000Y-67700000I0J-51000D01*
G01*
X163176000Y-69300000D01*
G75*
G02*
X163125000Y-69351000I-51000J0D01*
G01*
G37*
G36*
G01*
X160331000Y-67351000D02*
X157931000Y-67351000D01*
G75*
G02*
X157880000Y-67300000I0J51000D01*
G01*
X157880000Y-65700000D01*
G75*
G02*
X157931000Y-65649000I51000J0D01*
G01*
X160331000Y-65649000D01*
G75*
G02*
X160382000Y-65700000I0J-51000D01*
G01*
X160382000Y-67300000D01*
G75*
G02*
X160331000Y-67351000I-51000J0D01*
G01*
G37*
G36*
G01*
X160331000Y-69351000D02*
X157931000Y-69351000D01*
G75*
G02*
X157880000Y-69300000I0J51000D01*
G01*
X157880000Y-67700000D01*
G75*
G02*
X157931000Y-67649000I51000J0D01*
G01*
X160331000Y-67649000D01*
G75*
G02*
X160382000Y-67700000I0J-51000D01*
G01*
X160382000Y-69300000D01*
G75*
G02*
X160331000Y-69351000I-51000J0D01*
G01*
G37*
G36*
G01*
X154870000Y-67351000D02*
X152470000Y-67351000D01*
G75*
G02*
X152419000Y-67300000I0J51000D01*
G01*
X152419000Y-65700000D01*
G75*
G02*
X152470000Y-65649000I51000J0D01*
G01*
X154870000Y-65649000D01*
G75*
G02*
X154921000Y-65700000I0J-51000D01*
G01*
X154921000Y-67300000D01*
G75*
G02*
X154870000Y-67351000I-51000J0D01*
G01*
G37*
G36*
G01*
X154870000Y-69351000D02*
X152470000Y-69351000D01*
G75*
G02*
X152419000Y-69300000I0J51000D01*
G01*
X152419000Y-67700000D01*
G75*
G02*
X152470000Y-67649000I51000J0D01*
G01*
X154870000Y-67649000D01*
G75*
G02*
X154921000Y-67700000I0J-51000D01*
G01*
X154921000Y-69300000D01*
G75*
G02*
X154870000Y-69351000I-51000J0D01*
G01*
G37*
G36*
G01*
X152203000Y-67351000D02*
X149803000Y-67351000D01*
G75*
G02*
X149752000Y-67300000I0J51000D01*
G01*
X149752000Y-65700000D01*
G75*
G02*
X149803000Y-65649000I51000J0D01*
G01*
X152203000Y-65649000D01*
G75*
G02*
X152254000Y-65700000I0J-51000D01*
G01*
X152254000Y-67300000D01*
G75*
G02*
X152203000Y-67351000I-51000J0D01*
G01*
G37*
G36*
G01*
X152203000Y-69351000D02*
X149803000Y-69351000D01*
G75*
G02*
X149752000Y-69300000I0J51000D01*
G01*
X149752000Y-67700000D01*
G75*
G02*
X149803000Y-67649000I51000J0D01*
G01*
X152203000Y-67649000D01*
G75*
G02*
X152254000Y-67700000I0J-51000D01*
G01*
X152254000Y-69300000D01*
G75*
G02*
X152203000Y-69351000I-51000J0D01*
G01*
G37*
G36*
G01*
X149536000Y-67351000D02*
X147136000Y-67351000D01*
G75*
G02*
X147085000Y-67300000I0J51000D01*
G01*
X147085000Y-65700000D01*
G75*
G02*
X147136000Y-65649000I51000J0D01*
G01*
X149536000Y-65649000D01*
G75*
G02*
X149587000Y-65700000I0J-51000D01*
G01*
X149587000Y-67300000D01*
G75*
G02*
X149536000Y-67351000I-51000J0D01*
G01*
G37*
G36*
G01*
X149536000Y-69351000D02*
X147136000Y-69351000D01*
G75*
G02*
X147085000Y-69300000I0J51000D01*
G01*
X147085000Y-67700000D01*
G75*
G02*
X147136000Y-67649000I51000J0D01*
G01*
X149536000Y-67649000D01*
G75*
G02*
X149587000Y-67700000I0J-51000D01*
G01*
X149587000Y-69300000D01*
G75*
G02*
X149536000Y-69351000I-51000J0D01*
G01*
G37*
G36*
G01*
X164300000Y-95951000D02*
X161900000Y-95951000D01*
G75*
G02*
X161849000Y-95900000I0J51000D01*
G01*
X161849000Y-94300000D01*
G75*
G02*
X161900000Y-94249000I51000J0D01*
G01*
X164300000Y-94249000D01*
G75*
G02*
X164351000Y-94300000I0J-51000D01*
G01*
X164351000Y-95900000D01*
G75*
G02*
X164300000Y-95951000I-51000J0D01*
G01*
G37*
G36*
G01*
X164300000Y-97951000D02*
X161900000Y-97951000D01*
G75*
G02*
X161849000Y-97900000I0J51000D01*
G01*
X161849000Y-96300000D01*
G75*
G02*
X161900000Y-96249000I51000J0D01*
G01*
X164300000Y-96249000D01*
G75*
G02*
X164351000Y-96300000I0J-51000D01*
G01*
X164351000Y-97900000D01*
G75*
G02*
X164300000Y-97951000I-51000J0D01*
G01*
G37*
G36*
G01*
X161100000Y-95951000D02*
X158700000Y-95951000D01*
G75*
G02*
X158649000Y-95900000I0J51000D01*
G01*
X158649000Y-94300000D01*
G75*
G02*
X158700000Y-94249000I51000J0D01*
G01*
X161100000Y-94249000D01*
G75*
G02*
X161151000Y-94300000I0J-51000D01*
G01*
X161151000Y-95900000D01*
G75*
G02*
X161100000Y-95951000I-51000J0D01*
G01*
G37*
G36*
G01*
X161100000Y-97951000D02*
X158700000Y-97951000D01*
G75*
G02*
X158649000Y-97900000I0J51000D01*
G01*
X158649000Y-96300000D01*
G75*
G02*
X158700000Y-96249000I51000J0D01*
G01*
X161100000Y-96249000D01*
G75*
G02*
X161151000Y-96300000I0J-51000D01*
G01*
X161151000Y-97900000D01*
G75*
G02*
X161100000Y-97951000I-51000J0D01*
G01*
G37*
G36*
G01*
X175380500Y-48751000D02*
X172980500Y-48751000D01*
G75*
G02*
X172929500Y-48700000I0J51000D01*
G01*
X172929500Y-47100000D01*
G75*
G02*
X172980500Y-47049000I51000J0D01*
G01*
X175380500Y-47049000D01*
G75*
G02*
X175431500Y-47100000I0J-51000D01*
G01*
X175431500Y-48700000D01*
G75*
G02*
X175380500Y-48751000I-51000J0D01*
G01*
G37*
G36*
G01*
X175380500Y-50751000D02*
X172980500Y-50751000D01*
G75*
G02*
X172929500Y-50700000I0J51000D01*
G01*
X172929500Y-49100000D01*
G75*
G02*
X172980500Y-49049000I51000J0D01*
G01*
X175380500Y-49049000D01*
G75*
G02*
X175431500Y-49100000I0J-51000D01*
G01*
X175431500Y-50700000D01*
G75*
G02*
X175380500Y-50751000I-51000J0D01*
G01*
G37*
G36*
G01*
X172396000Y-48762000D02*
X169996000Y-48762000D01*
G75*
G02*
X169945000Y-48711000I0J51000D01*
G01*
X169945000Y-47111000D01*
G75*
G02*
X169996000Y-47060000I51000J0D01*
G01*
X172396000Y-47060000D01*
G75*
G02*
X172447000Y-47111000I0J-51000D01*
G01*
X172447000Y-48711000D01*
G75*
G02*
X172396000Y-48762000I-51000J0D01*
G01*
G37*
G36*
G01*
X172396000Y-50762000D02*
X169996000Y-50762000D01*
G75*
G02*
X169945000Y-50711000I0J51000D01*
G01*
X169945000Y-49111000D01*
G75*
G02*
X169996000Y-49060000I51000J0D01*
G01*
X172396000Y-49060000D01*
G75*
G02*
X172447000Y-49111000I0J-51000D01*
G01*
X172447000Y-50711000D01*
G75*
G02*
X172396000Y-50762000I-51000J0D01*
G01*
G37*
G36*
G01*
X215900000Y-65151000D02*
X213500000Y-65151000D01*
G75*
G02*
X213449000Y-65100000I0J51000D01*
G01*
X213449000Y-63500000D01*
G75*
G02*
X213500000Y-63449000I51000J0D01*
G01*
X215900000Y-63449000D01*
G75*
G02*
X215951000Y-63500000I0J-51000D01*
G01*
X215951000Y-65100000D01*
G75*
G02*
X215900000Y-65151000I-51000J0D01*
G01*
G37*
G36*
G01*
X215900000Y-67151000D02*
X213500000Y-67151000D01*
G75*
G02*
X213449000Y-67100000I0J51000D01*
G01*
X213449000Y-65500000D01*
G75*
G02*
X213500000Y-65449000I51000J0D01*
G01*
X215900000Y-65449000D01*
G75*
G02*
X215951000Y-65500000I0J-51000D01*
G01*
X215951000Y-67100000D01*
G75*
G02*
X215900000Y-67151000I-51000J0D01*
G01*
G37*
G36*
G01*
X212100000Y-65151000D02*
X209700000Y-65151000D01*
G75*
G02*
X209649000Y-65100000I0J51000D01*
G01*
X209649000Y-63500000D01*
G75*
G02*
X209700000Y-63449000I51000J0D01*
G01*
X212100000Y-63449000D01*
G75*
G02*
X212151000Y-63500000I0J-51000D01*
G01*
X212151000Y-65100000D01*
G75*
G02*
X212100000Y-65151000I-51000J0D01*
G01*
G37*
G36*
G01*
X212100000Y-67151000D02*
X209700000Y-67151000D01*
G75*
G02*
X209649000Y-67100000I0J51000D01*
G01*
X209649000Y-65500000D01*
G75*
G02*
X209700000Y-65449000I51000J0D01*
G01*
X212100000Y-65449000D01*
G75*
G02*
X212151000Y-65500000I0J-51000D01*
G01*
X212151000Y-67100000D01*
G75*
G02*
X212100000Y-67151000I-51000J0D01*
G01*
G37*
G36*
G01*
X208300000Y-65151000D02*
X205900000Y-65151000D01*
G75*
G02*
X205849000Y-65100000I0J51000D01*
G01*
X205849000Y-63500000D01*
G75*
G02*
X205900000Y-63449000I51000J0D01*
G01*
X208300000Y-63449000D01*
G75*
G02*
X208351000Y-63500000I0J-51000D01*
G01*
X208351000Y-65100000D01*
G75*
G02*
X208300000Y-65151000I-51000J0D01*
G01*
G37*
G36*
G01*
X208300000Y-67151000D02*
X205900000Y-67151000D01*
G75*
G02*
X205849000Y-67100000I0J51000D01*
G01*
X205849000Y-65500000D01*
G75*
G02*
X205900000Y-65449000I51000J0D01*
G01*
X208300000Y-65449000D01*
G75*
G02*
X208351000Y-65500000I0J-51000D01*
G01*
X208351000Y-67100000D01*
G75*
G02*
X208300000Y-67151000I-51000J0D01*
G01*
G37*
G36*
G01*
X204300000Y-65151000D02*
X201900000Y-65151000D01*
G75*
G02*
X201849000Y-65100000I0J51000D01*
G01*
X201849000Y-63500000D01*
G75*
G02*
X201900000Y-63449000I51000J0D01*
G01*
X204300000Y-63449000D01*
G75*
G02*
X204351000Y-63500000I0J-51000D01*
G01*
X204351000Y-65100000D01*
G75*
G02*
X204300000Y-65151000I-51000J0D01*
G01*
G37*
G36*
G01*
X204300000Y-67151000D02*
X201900000Y-67151000D01*
G75*
G02*
X201849000Y-67100000I0J51000D01*
G01*
X201849000Y-65500000D01*
G75*
G02*
X201900000Y-65449000I51000J0D01*
G01*
X204300000Y-65449000D01*
G75*
G02*
X204351000Y-65500000I0J-51000D01*
G01*
X204351000Y-67100000D01*
G75*
G02*
X204300000Y-67151000I-51000J0D01*
G01*
G37*
G36*
G01*
X201987000Y-84651000D02*
X199587000Y-84651000D01*
G75*
G02*
X199536000Y-84600000I0J51000D01*
G01*
X199536000Y-83000000D01*
G75*
G02*
X199587000Y-82949000I51000J0D01*
G01*
X201987000Y-82949000D01*
G75*
G02*
X202038000Y-83000000I0J-51000D01*
G01*
X202038000Y-84600000D01*
G75*
G02*
X201987000Y-84651000I-51000J0D01*
G01*
G37*
G36*
G01*
X201987000Y-86651000D02*
X199587000Y-86651000D01*
G75*
G02*
X199536000Y-86600000I0J51000D01*
G01*
X199536000Y-85000000D01*
G75*
G02*
X199587000Y-84949000I51000J0D01*
G01*
X201987000Y-84949000D01*
G75*
G02*
X202038000Y-85000000I0J-51000D01*
G01*
X202038000Y-86600000D01*
G75*
G02*
X201987000Y-86651000I-51000J0D01*
G01*
G37*
G36*
G01*
X199129500Y-84651000D02*
X196729500Y-84651000D01*
G75*
G02*
X196678500Y-84600000I0J51000D01*
G01*
X196678500Y-83000000D01*
G75*
G02*
X196729500Y-82949000I51000J0D01*
G01*
X199129500Y-82949000D01*
G75*
G02*
X199180500Y-83000000I0J-51000D01*
G01*
X199180500Y-84600000D01*
G75*
G02*
X199129500Y-84651000I-51000J0D01*
G01*
G37*
G36*
G01*
X199129500Y-86651000D02*
X196729500Y-86651000D01*
G75*
G02*
X196678500Y-86600000I0J51000D01*
G01*
X196678500Y-85000000D01*
G75*
G02*
X196729500Y-84949000I51000J0D01*
G01*
X199129500Y-84949000D01*
G75*
G02*
X199180500Y-85000000I0J-51000D01*
G01*
X199180500Y-86600000D01*
G75*
G02*
X199129500Y-86651000I-51000J0D01*
G01*
G37*
G36*
G01*
X196272000Y-84651000D02*
X193872000Y-84651000D01*
G75*
G02*
X193821000Y-84600000I0J51000D01*
G01*
X193821000Y-83000000D01*
G75*
G02*
X193872000Y-82949000I51000J0D01*
G01*
X196272000Y-82949000D01*
G75*
G02*
X196323000Y-83000000I0J-51000D01*
G01*
X196323000Y-84600000D01*
G75*
G02*
X196272000Y-84651000I-51000J0D01*
G01*
G37*
G36*
G01*
X196272000Y-86651000D02*
X193872000Y-86651000D01*
G75*
G02*
X193821000Y-86600000I0J51000D01*
G01*
X193821000Y-85000000D01*
G75*
G02*
X193872000Y-84949000I51000J0D01*
G01*
X196272000Y-84949000D01*
G75*
G02*
X196323000Y-85000000I0J-51000D01*
G01*
X196323000Y-86600000D01*
G75*
G02*
X196272000Y-86651000I-51000J0D01*
G01*
G37*
X138500000Y-73600000D03*
X138500000Y-78600000D03*
X134700000Y-53600000D03*
X134700000Y-58600000D03*
X191700000Y-53400000D03*
X191700000Y-58400000D03*
X103300000Y-124800000D03*
X103300000Y-119800000D03*
X194700000Y-104400000D03*
X194700000Y-109400000D03*
X220100000Y-119600000D03*
X220100000Y-124600000D03*
X219900000Y-104400000D03*
X219900000Y-109400000D03*
X219900000Y-89200000D03*
X219900000Y-94200000D03*
X219700000Y-73800000D03*
X219700000Y-78800000D03*
X219700000Y-53400000D03*
X219700000Y-58400000D03*
D13*
X173100000Y-119580000D03*
X188340000Y-127200000D03*
X175640000Y-119580000D03*
X185800000Y-127200000D03*
X178180000Y-119580000D03*
X183260000Y-127200000D03*
X180720000Y-119580000D03*
X180720000Y-127200000D03*
X183260000Y-119580000D03*
X178180000Y-127200000D03*
X185800000Y-119580000D03*
X175640000Y-127200000D03*
X188340000Y-119580000D03*
G36*
G01*
X173900000Y-128051000D02*
X172300000Y-128051000D01*
G75*
G02*
X172249000Y-128000000I0J51000D01*
G01*
X172249000Y-126400000D01*
G75*
G02*
X172300000Y-126349000I51000J0D01*
G01*
X173900000Y-126349000D01*
G75*
G02*
X173951000Y-126400000I0J-51000D01*
G01*
X173951000Y-128000000D01*
G75*
G02*
X173900000Y-128051000I-51000J0D01*
G01*
G37*
X196700000Y-119580000D03*
X214480000Y-127200000D03*
X199240000Y-119580000D03*
X211940000Y-127200000D03*
X201780000Y-119580000D03*
X209400000Y-127200000D03*
X204320000Y-119580000D03*
X206860000Y-127200000D03*
X206860000Y-119580000D03*
X204320000Y-127200000D03*
X209400000Y-119580000D03*
X201780000Y-127200000D03*
X211940000Y-119580000D03*
X199240000Y-127200000D03*
X214480000Y-119580000D03*
G36*
G01*
X197500000Y-128051000D02*
X195900000Y-128051000D01*
G75*
G02*
X195849000Y-128000000I0J51000D01*
G01*
X195849000Y-126400000D01*
G75*
G02*
X195900000Y-126349000I51000J0D01*
G01*
X197500000Y-126349000D01*
G75*
G02*
X197551000Y-126400000I0J-51000D01*
G01*
X197551000Y-128000000D01*
G75*
G02*
X197500000Y-128051000I-51000J0D01*
G01*
G37*
X144900000Y-104380000D03*
X162680000Y-112000000D03*
X147440000Y-104380000D03*
X160140000Y-112000000D03*
X149980000Y-104380000D03*
X157600000Y-112000000D03*
X152520000Y-104380000D03*
X155060000Y-112000000D03*
X155060000Y-104380000D03*
X152520000Y-112000000D03*
X157600000Y-104380000D03*
X149980000Y-112000000D03*
X160140000Y-104380000D03*
X147440000Y-112000000D03*
X162680000Y-104380000D03*
G36*
G01*
X145700000Y-112851000D02*
X144100000Y-112851000D01*
G75*
G02*
X144049000Y-112800000I0J51000D01*
G01*
X144049000Y-111200000D01*
G75*
G02*
X144100000Y-111149000I51000J0D01*
G01*
X145700000Y-111149000D01*
G75*
G02*
X145751000Y-111200000I0J-51000D01*
G01*
X145751000Y-112800000D01*
G75*
G02*
X145700000Y-112851000I-51000J0D01*
G01*
G37*
X172900000Y-104380000D03*
X188140000Y-112000000D03*
X175440000Y-104380000D03*
X185600000Y-112000000D03*
X177980000Y-104380000D03*
X183060000Y-112000000D03*
X180520000Y-104380000D03*
X180520000Y-112000000D03*
X183060000Y-104380000D03*
X177980000Y-112000000D03*
X185600000Y-104380000D03*
X175440000Y-112000000D03*
X188140000Y-104380000D03*
G36*
G01*
X173700000Y-112851000D02*
X172100000Y-112851000D01*
G75*
G02*
X172049000Y-112800000I0J51000D01*
G01*
X172049000Y-111200000D01*
G75*
G02*
X172100000Y-111149000I51000J0D01*
G01*
X173700000Y-111149000D01*
G75*
G02*
X173751000Y-111200000I0J-51000D01*
G01*
X173751000Y-112800000D01*
G75*
G02*
X173700000Y-112851000I-51000J0D01*
G01*
G37*
X199300000Y-104180000D03*
X214540000Y-111800000D03*
X201840000Y-104180000D03*
X212000000Y-111800000D03*
X204380000Y-104180000D03*
X209460000Y-111800000D03*
X206920000Y-104180000D03*
X206920000Y-111800000D03*
X209460000Y-104180000D03*
X204380000Y-111800000D03*
X212000000Y-104180000D03*
X201840000Y-111800000D03*
X214540000Y-104180000D03*
G36*
G01*
X200100000Y-112651000D02*
X198500000Y-112651000D01*
G75*
G02*
X198449000Y-112600000I0J51000D01*
G01*
X198449000Y-111000000D01*
G75*
G02*
X198500000Y-110949000I51000J0D01*
G01*
X200100000Y-110949000D01*
G75*
G02*
X200151000Y-111000000I0J-51000D01*
G01*
X200151000Y-112600000D01*
G75*
G02*
X200100000Y-112651000I-51000J0D01*
G01*
G37*
X199300000Y-88980000D03*
X214540000Y-96600000D03*
X201840000Y-88980000D03*
X212000000Y-96600000D03*
X204380000Y-88980000D03*
X209460000Y-96600000D03*
X206920000Y-88980000D03*
X206920000Y-96600000D03*
X209460000Y-88980000D03*
X204380000Y-96600000D03*
X212000000Y-88980000D03*
X201840000Y-96600000D03*
X214540000Y-88980000D03*
G36*
G01*
X200100000Y-97451000D02*
X198500000Y-97451000D01*
G75*
G02*
X198449000Y-97400000I0J51000D01*
G01*
X198449000Y-95800000D01*
G75*
G02*
X198500000Y-95749000I51000J0D01*
G01*
X200100000Y-95749000D01*
G75*
G02*
X200151000Y-95800000I0J-51000D01*
G01*
X200151000Y-97400000D01*
G75*
G02*
X200100000Y-97451000I-51000J0D01*
G01*
G37*
X199300000Y-73780000D03*
X214540000Y-81400000D03*
X201840000Y-73780000D03*
X212000000Y-81400000D03*
X204380000Y-73780000D03*
X209460000Y-81400000D03*
X206920000Y-73780000D03*
X206920000Y-81400000D03*
X209460000Y-73780000D03*
X204380000Y-81400000D03*
X212000000Y-73780000D03*
X201840000Y-81400000D03*
X214540000Y-73780000D03*
G36*
G01*
X200100000Y-82251000D02*
X198500000Y-82251000D01*
G75*
G02*
X198449000Y-82200000I0J51000D01*
G01*
X198449000Y-80600000D01*
G75*
G02*
X198500000Y-80549000I51000J0D01*
G01*
X200100000Y-80549000D01*
G75*
G02*
X200151000Y-80600000I0J-51000D01*
G01*
X200151000Y-82200000D01*
G75*
G02*
X200100000Y-82251000I-51000J0D01*
G01*
G37*
X196700000Y-53380000D03*
X214480000Y-61000000D03*
X199240000Y-53380000D03*
X211940000Y-61000000D03*
X201780000Y-53380000D03*
X209400000Y-61000000D03*
X204320000Y-53380000D03*
X206860000Y-61000000D03*
X206860000Y-53380000D03*
X204320000Y-61000000D03*
X209400000Y-53380000D03*
X201780000Y-61000000D03*
X211940000Y-53380000D03*
X199240000Y-61000000D03*
X214480000Y-53380000D03*
G36*
G01*
X197500000Y-61851000D02*
X195900000Y-61851000D01*
G75*
G02*
X195849000Y-61800000I0J51000D01*
G01*
X195849000Y-60200000D01*
G75*
G02*
X195900000Y-60149000I51000J0D01*
G01*
X197500000Y-60149000D01*
G75*
G02*
X197551000Y-60200000I0J-51000D01*
G01*
X197551000Y-61800000D01*
G75*
G02*
X197500000Y-61851000I-51000J0D01*
G01*
G37*
X168900000Y-53380000D03*
X186680000Y-61000000D03*
X171440000Y-53380000D03*
X184140000Y-61000000D03*
X173980000Y-53380000D03*
X181600000Y-61000000D03*
X176520000Y-53380000D03*
X179060000Y-61000000D03*
X179060000Y-53380000D03*
X176520000Y-61000000D03*
X181600000Y-53380000D03*
X173980000Y-61000000D03*
X184140000Y-53380000D03*
X171440000Y-61000000D03*
X186680000Y-53380000D03*
G36*
G01*
X169700000Y-61851000D02*
X168100000Y-61851000D01*
G75*
G02*
X168049000Y-61800000I0J51000D01*
G01*
X168049000Y-60200000D01*
G75*
G02*
X168100000Y-60149000I51000J0D01*
G01*
X169700000Y-60149000D01*
G75*
G02*
X169751000Y-60200000I0J-51000D01*
G01*
X169751000Y-61800000D01*
G75*
G02*
X169700000Y-61851000I-51000J0D01*
G01*
G37*
X139700000Y-53580000D03*
X157480000Y-61200000D03*
X142240000Y-53580000D03*
X154940000Y-61200000D03*
X144780000Y-53580000D03*
X152400000Y-61200000D03*
X147320000Y-53580000D03*
X149860000Y-61200000D03*
X149860000Y-53580000D03*
X147320000Y-61200000D03*
X152400000Y-53580000D03*
X144780000Y-61200000D03*
X154940000Y-53580000D03*
X142240000Y-61200000D03*
X157480000Y-53580000D03*
G36*
G01*
X140500000Y-62051000D02*
X138900000Y-62051000D01*
G75*
G02*
X138849000Y-62000000I0J51000D01*
G01*
X138849000Y-60400000D01*
G75*
G02*
X138900000Y-60349000I51000J0D01*
G01*
X140500000Y-60349000D01*
G75*
G02*
X140551000Y-60400000I0J-51000D01*
G01*
X140551000Y-62000000D01*
G75*
G02*
X140500000Y-62051000I-51000J0D01*
G01*
G37*
X106700000Y-53600000D03*
X129560000Y-61220000D03*
X109240000Y-53600000D03*
X127020000Y-61220000D03*
X111780000Y-53600000D03*
X124480000Y-61220000D03*
X114320000Y-53600000D03*
X121940000Y-61220000D03*
X116860000Y-53600000D03*
X119400000Y-61220000D03*
X119400000Y-53600000D03*
X116860000Y-61220000D03*
X121940000Y-53600000D03*
X114320000Y-61220000D03*
X124480000Y-53600000D03*
X111780000Y-61220000D03*
X127020000Y-53600000D03*
X109240000Y-61220000D03*
X129560000Y-53600000D03*
G36*
G01*
X107500000Y-62071000D02*
X105900000Y-62071000D01*
G75*
G02*
X105849000Y-62020000I0J51000D01*
G01*
X105849000Y-60420000D01*
G75*
G02*
X105900000Y-60369000I51000J0D01*
G01*
X107500000Y-60369000D01*
G75*
G02*
X107551000Y-60420000I0J-51000D01*
G01*
X107551000Y-62020000D01*
G75*
G02*
X107500000Y-62071000I-51000J0D01*
G01*
G37*
X104300000Y-73960000D03*
X132240000Y-89200000D03*
X106840000Y-73960000D03*
X129700000Y-89200000D03*
X109380000Y-73960000D03*
X127160000Y-89200000D03*
X111920000Y-73960000D03*
X124620000Y-89200000D03*
X114460000Y-73960000D03*
X122080000Y-89200000D03*
X117000000Y-73960000D03*
X119540000Y-89200000D03*
X119540000Y-73960000D03*
X117000000Y-89200000D03*
X122080000Y-73960000D03*
X114460000Y-89200000D03*
X124620000Y-73960000D03*
X111920000Y-89200000D03*
X127160000Y-73960000D03*
X109380000Y-89200000D03*
X129700000Y-73960000D03*
X106840000Y-89200000D03*
X132240000Y-73960000D03*
G36*
G01*
X105100000Y-90051000D02*
X103500000Y-90051000D01*
G75*
G02*
X103449000Y-90000000I0J51000D01*
G01*
X103449000Y-88400000D01*
G75*
G02*
X103500000Y-88349000I51000J0D01*
G01*
X105100000Y-88349000D01*
G75*
G02*
X105151000Y-88400000I0J-51000D01*
G01*
X105151000Y-90000000D01*
G75*
G02*
X105100000Y-90051000I-51000J0D01*
G01*
G37*
X108300000Y-116980000D03*
X115920000Y-124600000D03*
X110840000Y-116980000D03*
X113380000Y-124600000D03*
X113380000Y-116980000D03*
X110840000Y-124600000D03*
X115920000Y-116980000D03*
G36*
G01*
X109100000Y-125451000D02*
X107500000Y-125451000D01*
G75*
G02*
X107449000Y-125400000I0J51000D01*
G01*
X107449000Y-123800000D01*
G75*
G02*
X107500000Y-123749000I51000J0D01*
G01*
X109100000Y-123749000D01*
G75*
G02*
X109151000Y-123800000I0J-51000D01*
G01*
X109151000Y-125400000D01*
G75*
G02*
X109100000Y-125451000I-51000J0D01*
G01*
G37*
X108000000Y-102980000D03*
X115620000Y-110600000D03*
X110540000Y-102980000D03*
X113080000Y-110600000D03*
X113080000Y-102980000D03*
X110540000Y-110600000D03*
X115620000Y-102980000D03*
G36*
G01*
X108800000Y-111451000D02*
X107200000Y-111451000D01*
G75*
G02*
X107149000Y-111400000I0J51000D01*
G01*
X107149000Y-109800000D01*
G75*
G02*
X107200000Y-109749000I51000J0D01*
G01*
X108800000Y-109749000D01*
G75*
G02*
X108851000Y-109800000I0J-51000D01*
G01*
X108851000Y-111400000D01*
G75*
G02*
X108800000Y-111451000I-51000J0D01*
G01*
G37*
X143500000Y-73600000D03*
X191760000Y-88840000D03*
X146040000Y-73600000D03*
X189220000Y-88840000D03*
X148580000Y-73600000D03*
X186680000Y-88840000D03*
X151120000Y-73600000D03*
X184140000Y-88840000D03*
X153660000Y-73600000D03*
X181600000Y-88840000D03*
X156200000Y-73600000D03*
X179060000Y-88840000D03*
X158740000Y-73600000D03*
X176520000Y-88840000D03*
X161280000Y-73600000D03*
X173980000Y-88840000D03*
X163820000Y-73600000D03*
X171440000Y-88840000D03*
X166360000Y-73600000D03*
X168900000Y-88840000D03*
X168900000Y-73600000D03*
X166360000Y-88840000D03*
X171440000Y-73600000D03*
X163820000Y-88840000D03*
X173980000Y-73600000D03*
X161280000Y-88840000D03*
X176520000Y-73600000D03*
X158740000Y-88840000D03*
X179060000Y-73600000D03*
X156200000Y-88840000D03*
X181600000Y-73600000D03*
X153660000Y-88840000D03*
X184140000Y-73600000D03*
X151120000Y-88840000D03*
X186680000Y-73600000D03*
X148580000Y-88840000D03*
X189220000Y-73600000D03*
X146040000Y-88840000D03*
X191760000Y-73600000D03*
G36*
G01*
X144300000Y-89691000D02*
X142700000Y-89691000D01*
G75*
G02*
X142649000Y-89640000I0J51000D01*
G01*
X142649000Y-88040000D01*
G75*
G02*
X142700000Y-87989000I51000J0D01*
G01*
X144300000Y-87989000D01*
G75*
G02*
X144351000Y-88040000I0J-51000D01*
G01*
X144351000Y-89640000D01*
G75*
G02*
X144300000Y-89691000I-51000J0D01*
G01*
G37*
G36*
G01*
X95669000Y-64935000D02*
X95669000Y-63335000D01*
G75*
G02*
X95720000Y-63284000I51000J0D01*
G01*
X97320000Y-63284000D01*
G75*
G02*
X97371000Y-63335000I0J-51000D01*
G01*
X97371000Y-64935000D01*
G75*
G02*
X97320000Y-64986000I-51000J0D01*
G01*
X95720000Y-64986000D01*
G75*
G02*
X95669000Y-64935000I0J51000D01*
G01*
G37*
D11*
X100020000Y-64135000D03*
D14*
G36*
X155087732Y-67648000D02*
G01*
X155088000Y-67649000D01*
X155088000Y-69351000D01*
X155087000Y-69352732D01*
X155086000Y-69353000D01*
X154921000Y-69353000D01*
X154919268Y-69352000D01*
X154919000Y-69351000D01*
X154919000Y-67649000D01*
X154920000Y-67647268D01*
X154921000Y-67647000D01*
X155086000Y-67647000D01*
X155087732Y-67648000D01*
G37*
G36*
X152420732Y-67648000D02*
G01*
X152421000Y-67649000D01*
X152421000Y-69351000D01*
X152420000Y-69352732D01*
X152419000Y-69353000D01*
X152254000Y-69353000D01*
X152252268Y-69352000D01*
X152252000Y-69351000D01*
X152252000Y-67649000D01*
X152253000Y-67647268D01*
X152254000Y-67647000D01*
X152419000Y-67647000D01*
X152420732Y-67648000D01*
G37*
G36*
X149753732Y-67648000D02*
G01*
X149754000Y-67649000D01*
X149754000Y-69351000D01*
X149753000Y-69352732D01*
X149752000Y-69353000D01*
X149587000Y-69353000D01*
X149585268Y-69352000D01*
X149585000Y-69351000D01*
X149585000Y-67649000D01*
X149586000Y-67647268D01*
X149587000Y-67647000D01*
X149752000Y-67647000D01*
X149753732Y-67648000D01*
G37*
G36*
X155087732Y-65648000D02*
G01*
X155088000Y-65649000D01*
X155088000Y-67351000D01*
X155087000Y-67352732D01*
X155086000Y-67353000D01*
X154921000Y-67353000D01*
X154919268Y-67352000D01*
X154919000Y-67351000D01*
X154919000Y-65649000D01*
X154920000Y-65647268D01*
X154921000Y-65647000D01*
X155086000Y-65647000D01*
X155087732Y-65648000D01*
G37*
G36*
X152420732Y-65648000D02*
G01*
X152421000Y-65649000D01*
X152421000Y-67351000D01*
X152420000Y-67352732D01*
X152419000Y-67353000D01*
X152254000Y-67353000D01*
X152252268Y-67352000D01*
X152252000Y-67351000D01*
X152252000Y-65649000D01*
X152253000Y-65647268D01*
X152254000Y-65647000D01*
X152419000Y-65647000D01*
X152420732Y-65648000D01*
G37*
G36*
X149753732Y-65648000D02*
G01*
X149754000Y-65649000D01*
X149754000Y-67351000D01*
X149753000Y-67352732D01*
X149752000Y-67353000D01*
X149587000Y-67353000D01*
X149585268Y-67352000D01*
X149585000Y-67351000D01*
X149585000Y-65649000D01*
X149586000Y-65647268D01*
X149587000Y-65647000D01*
X149752000Y-65647000D01*
X149753732Y-65648000D01*
G37*
M02*
