M48
; DRILL file {KiCad 5.1.10} date Fri Aug  6 09:19:39 2021
; FORMAT={2:4/ absolute / inch / suppress leading zeros}
; #@! TF.CreationDate,2021-08-06T09:19:39+02:00
; #@! TF.GenerationSoftware,Kicad,Pcbnew,5.1.10
; #@! TF.FileFunction,Plated,1,2,PTH
FMAT,2
INCH,TZ
T1C0.0315
T2C0.0394
T3C0.1260
%
G90
G05
T1
X35472Y-23031
X35472Y-28031
X37992Y-28031
X38000Y-25250
X39378Y-25250
X40591Y-39606
X40591Y-44606
X40669Y-47165
X40669Y-49134
X41063Y-26614
X41063Y-29118
X41063Y-35118
X42008Y-18583
X42008Y-21102
X42008Y-24102
X42047Y-26063
X42063Y-29118
X42063Y-35118
X42520Y-20236
X42520Y-25039
X42520Y-40543
X42520Y-43543
X42638Y-46055
X42638Y-49055
X43008Y-21102
X43008Y-24102
X43063Y-29118
X43063Y-35118
X43071Y-26614
X43520Y-40543
X43520Y-43543
X43638Y-46055
X43638Y-49055
X43976Y-18583
X44008Y-21102
X44008Y-24102
X44063Y-29118
X44063Y-35118
X44134Y-37638
X44520Y-40543
X44520Y-43543
X44638Y-46055
X44638Y-49055
X44764Y-25591
X45008Y-21102
X45008Y-24102
X45063Y-29118
X45063Y-35118
X45520Y-40543
X45520Y-43543
X45638Y-46055
X45638Y-49055
X46008Y-21102
X46008Y-24102
X46063Y-29118
X46063Y-35118
X46575Y-38110
X47008Y-21102
X47008Y-24102
X47063Y-29118
X47063Y-35118
X47126Y-41102
X47126Y-44094
X47126Y-47087
X47126Y-50079
X48008Y-21102
X48008Y-24102
X48063Y-29118
X48063Y-35118
X48071Y-41102
X48071Y-44094
X48071Y-47087
X48150Y-50079
X49008Y-21102
X49008Y-24102
X49063Y-29118
X49063Y-35118
X49094Y-41102
X49094Y-44094
X49094Y-47087
X49173Y-50079
X49646Y-38583
X50008Y-21102
X50008Y-24102
X50063Y-29118
X50063Y-35118
X50118Y-41102
X50118Y-44094
X50118Y-47087
X50118Y-50079
X50906Y-39134
X51008Y-21102
X51008Y-24102
X51063Y-29118
X51063Y-35118
X51063Y-41102
X51142Y-44094
X51142Y-47087
X51142Y-50079
X51535Y-18504
X51614Y-39606
X52063Y-29118
X52063Y-35118
X52087Y-41102
X52087Y-44094
X52087Y-47087
X52165Y-50079
X52244Y-19528
X52559Y-25276
X53031Y-21102
X53031Y-23071
X53110Y-41102
X53110Y-44094
X53110Y-47087
X53110Y-50079
X53425Y-26181
X53504Y-18504
X54134Y-41102
X54134Y-44094
X54134Y-47087
X54134Y-50079
X54528Y-28976
X54528Y-30945
X55000Y-21094
X55000Y-24094
X55079Y-27559
X56000Y-21094
X56000Y-24094
X56181Y-49606
X56181Y-51181
X56496Y-28976
X56496Y-34976
X56496Y-36614
X56654Y-47638
X56969Y-18031
X57000Y-21094
X57000Y-24094
X57047Y-41094
X57047Y-44094
X57496Y-28976
X57496Y-34976
X57992Y-37087
X58000Y-21094
X58000Y-24094
X58047Y-41094
X58047Y-44094
X58110Y-40000
X58465Y-26181
X58465Y-26969
X58496Y-28976
X58496Y-34976
X58622Y-47638
X59000Y-21094
X59000Y-24094
X59047Y-41094
X59047Y-44094
X59488Y-18031
X59488Y-39055
X59496Y-28976
X59496Y-34976
X60000Y-21094
X60000Y-24094
X60047Y-41094
X60047Y-44094
X60118Y-45591
X60118Y-47559
X60496Y-28976
X60496Y-34976
X60512Y-26969
X60591Y-37559
X60984Y-18031
X61000Y-21094
X61000Y-24094
X61024Y-29764
X61047Y-41094
X61047Y-44094
X61181Y-49606
X61181Y-51181
X61496Y-24646
X61496Y-28976
X61496Y-34976
X61535Y-26969
X62000Y-21094
X62000Y-24094
X62008Y-18031
X62008Y-38583
X62047Y-41094
X62047Y-44094
X62496Y-28976
X62496Y-34976
X62559Y-46614
X62638Y-49606
X63031Y-18031
X63047Y-41094
X63047Y-44094
X63496Y-28976
X63496Y-34976
X63504Y-20000
X63583Y-39055
X63600Y-26969
X63661Y-46299
X63976Y-18031
X64047Y-41094
X64047Y-44094
X64055Y-43071
X64488Y-19449
X64496Y-28976
X64496Y-34976
X64606Y-49606
X64685Y-51102
X65000Y-18031
X65039Y-26535
X65118Y-45591
X65118Y-47559
X65496Y-28976
X65496Y-34976
X66102Y-39094
X66102Y-41102
X66102Y-44094
X66496Y-21016
X66496Y-24016
X66496Y-28976
X66496Y-34976
X66732Y-45591
X66732Y-50591
X67087Y-38031
X67480Y-31024
X67496Y-21016
X67496Y-24016
X67496Y-28976
X67496Y-34976
X67677Y-45039
X67992Y-18031
X68071Y-41094
X68071Y-44094
X68150Y-47079
X68150Y-50079
X68307Y-39291
X68496Y-21016
X68496Y-24016
X68496Y-28976
X68496Y-34976
X68504Y-31496
X69016Y-25512
X69071Y-41094
X69071Y-44094
X69150Y-47079
X69150Y-50079
X69488Y-32047
X69496Y-21016
X69496Y-24016
X69496Y-28976
X69496Y-34976
X69567Y-45591
X70039Y-25039
X70039Y-26535
X70071Y-41094
X70071Y-44094
X70118Y-36535
X70150Y-47079
X70150Y-50079
X70496Y-21016
X70496Y-24016
X70496Y-28976
X70496Y-34976
X70512Y-32520
X70984Y-24646
X71071Y-41094
X71071Y-44094
X71150Y-47079
X71150Y-50079
X71496Y-21016
X71496Y-24016
X71496Y-28976
X71496Y-33071
X71496Y-34976
X71575Y-26535
X72008Y-30551
X72071Y-41094
X72071Y-44094
X72087Y-38031
X72150Y-47079
X72150Y-50079
X72283Y-18268
X72480Y-26535
X72480Y-33543
X72496Y-21016
X72496Y-24016
X72496Y-28976
X72496Y-34976
X73031Y-30000
X73071Y-41094
X73071Y-44094
X73150Y-47079
X73150Y-50079
X73496Y-21016
X73496Y-24016
X73496Y-28976
X73496Y-34976
X73504Y-33937
X74071Y-41094
X74071Y-44094
X74150Y-47079
X74150Y-50079
X74496Y-28976
X74496Y-34976
X74921Y-46063
X75472Y-21024
X75472Y-22992
X75496Y-28976
X75496Y-34976
X75709Y-51339
X76417Y-50787
X76496Y-21024
X76575Y-26535
X76654Y-41102
X76654Y-43071
X76929Y-20000
X77126Y-39528
X77441Y-21016
X77441Y-24016
X77441Y-45591
X77441Y-47079
X77441Y-50079
X77520Y-19528
X77992Y-27480
X78441Y-21016
X78441Y-24016
X78441Y-47079
X78441Y-50079
X78465Y-29047
X78465Y-32047
X78465Y-35031
X78465Y-38031
X78465Y-41016
X78465Y-44016
X79441Y-21016
X79441Y-24016
X79441Y-47079
X79441Y-50079
X79465Y-29047
X79465Y-32047
X79465Y-35031
X79465Y-38031
X79465Y-41016
X79465Y-44016
X79488Y-20000
X80441Y-21016
X80441Y-24016
X80441Y-47079
X80441Y-50079
X80465Y-29047
X80465Y-32047
X80465Y-35031
X80465Y-38031
X80465Y-41016
X80465Y-44016
X81441Y-21016
X81441Y-24016
X81441Y-47079
X81441Y-50079
X81465Y-29047
X81465Y-32047
X81465Y-35031
X81465Y-38031
X81465Y-41016
X81465Y-44016
X81969Y-30709
X82441Y-21016
X82441Y-24016
X82441Y-45591
X82441Y-47079
X82441Y-50079
X82465Y-29047
X82465Y-32047
X82465Y-35031
X82465Y-38031
X82465Y-41016
X82465Y-44016
X82992Y-27480
X82992Y-31220
X83441Y-21016
X83441Y-24016
X83441Y-47079
X83441Y-50079
X83465Y-29047
X83465Y-32047
X83465Y-35031
X83465Y-38031
X83465Y-41016
X83465Y-44016
X84441Y-21016
X84441Y-24016
X84441Y-47079
X84441Y-50079
X84465Y-29047
X84465Y-32047
X84465Y-35031
X84465Y-38031
X84465Y-41016
X84465Y-44016
X86496Y-21024
X86496Y-22992
X86496Y-29055
X86496Y-31024
X86575Y-35118
X86575Y-37087
X86575Y-41102
X86575Y-43071
X86654Y-47087
X86654Y-49055
T2
X35132Y-34833
X35132Y-35924
X35132Y-37014
X35132Y-38105
X36250Y-34288
X36250Y-35378
X36250Y-36469
X36250Y-37559
X36250Y-38650
T3
X35691Y-31548
X35691Y-41390
T0
M30
