G04 #@! TF.GenerationSoftware,KiCad,Pcbnew,5.1.10*
G04 #@! TF.CreationDate,2021-08-06T08:54:22+02:00*
G04 #@! TF.ProjectId,nano,6e616e6f-2e6b-4696-9361-645f70636258,rev?*
G04 #@! TF.SameCoordinates,Original*
G04 #@! TF.FileFunction,Soldermask,Bot*
G04 #@! TF.FilePolarity,Negative*
%FSLAX46Y46*%
G04 Gerber Fmt 4.6, Leading zero omitted, Abs format (unit mm)*
G04 Created by KiCad (PCBNEW 5.1.10) date 2021-08-06 08:54:22*
%MOMM*%
%LPD*%
G01*
G04 APERTURE LIST*
%ADD10C,4.102000*%
%ADD11C,1.702000*%
%ADD12C,3.302000*%
%ADD13O,1.702000X1.702000*%
G04 APERTURE END LIST*
D10*
X90655000Y-105131000D03*
X90655000Y-80131000D03*
D11*
X89235000Y-88476000D03*
X89235000Y-91246000D03*
X89235000Y-94016000D03*
X89235000Y-96786000D03*
X92075000Y-87091000D03*
X92075000Y-89861000D03*
X92075000Y-92631000D03*
X92075000Y-95401000D03*
G36*
G01*
X91275000Y-97320000D02*
X92875000Y-97320000D01*
G75*
G02*
X92926000Y-97371000I0J-51000D01*
G01*
X92926000Y-98971000D01*
G75*
G02*
X92875000Y-99022000I-51000J0D01*
G01*
X91275000Y-99022000D01*
G75*
G02*
X91224000Y-98971000I0J51000D01*
G01*
X91224000Y-97371000D01*
G75*
G02*
X91275000Y-97320000I51000J0D01*
G01*
G37*
G36*
G01*
X107009000Y-43280000D02*
X107009000Y-35660000D01*
G75*
G02*
X107060000Y-35609000I51000J0D01*
G01*
X108840000Y-35609000D01*
G75*
G02*
X108891000Y-35660000I0J-51000D01*
G01*
X108891000Y-43280000D01*
G75*
G02*
X108840000Y-43331000I-51000J0D01*
G01*
X107060000Y-43331000D01*
G75*
G02*
X107009000Y-43280000I0J51000D01*
G01*
G37*
G36*
G01*
X109549000Y-43280000D02*
X109549000Y-35660000D01*
G75*
G02*
X109600000Y-35609000I51000J0D01*
G01*
X111380000Y-35609000D01*
G75*
G02*
X111431000Y-35660000I0J-51000D01*
G01*
X111431000Y-43280000D01*
G75*
G02*
X111380000Y-43331000I-51000J0D01*
G01*
X109600000Y-43331000D01*
G75*
G02*
X109549000Y-43280000I0J51000D01*
G01*
G37*
G36*
G01*
X112089000Y-43280000D02*
X112089000Y-35660000D01*
G75*
G02*
X112140000Y-35609000I51000J0D01*
G01*
X113920000Y-35609000D01*
G75*
G02*
X113971000Y-35660000I0J-51000D01*
G01*
X113971000Y-43280000D01*
G75*
G02*
X113920000Y-43331000I-51000J0D01*
G01*
X112140000Y-43331000D01*
G75*
G02*
X112089000Y-43280000I0J51000D01*
G01*
G37*
G36*
G01*
X114629000Y-43280000D02*
X114629000Y-35660000D01*
G75*
G02*
X114680000Y-35609000I51000J0D01*
G01*
X116460000Y-35609000D01*
G75*
G02*
X116511000Y-35660000I0J-51000D01*
G01*
X116511000Y-43280000D01*
G75*
G02*
X116460000Y-43331000I-51000J0D01*
G01*
X114680000Y-43331000D01*
G75*
G02*
X114629000Y-43280000I0J51000D01*
G01*
G37*
G36*
G01*
X137489000Y-43280000D02*
X137489000Y-35660000D01*
G75*
G02*
X137540000Y-35609000I51000J0D01*
G01*
X139320000Y-35609000D01*
G75*
G02*
X139371000Y-35660000I0J-51000D01*
G01*
X139371000Y-43280000D01*
G75*
G02*
X139320000Y-43331000I-51000J0D01*
G01*
X137540000Y-43331000D01*
G75*
G02*
X137489000Y-43280000I0J51000D01*
G01*
G37*
G36*
G01*
X140029000Y-43280000D02*
X140029000Y-35660000D01*
G75*
G02*
X140080000Y-35609000I51000J0D01*
G01*
X141860000Y-35609000D01*
G75*
G02*
X141911000Y-35660000I0J-51000D01*
G01*
X141911000Y-43280000D01*
G75*
G02*
X141860000Y-43331000I-51000J0D01*
G01*
X140080000Y-43331000D01*
G75*
G02*
X140029000Y-43280000I0J51000D01*
G01*
G37*
G36*
G01*
X142569000Y-43280000D02*
X142569000Y-35660000D01*
G75*
G02*
X142620000Y-35609000I51000J0D01*
G01*
X144400000Y-35609000D01*
G75*
G02*
X144451000Y-35660000I0J-51000D01*
G01*
X144451000Y-43280000D01*
G75*
G02*
X144400000Y-43331000I-51000J0D01*
G01*
X142620000Y-43331000D01*
G75*
G02*
X142569000Y-43280000I0J51000D01*
G01*
G37*
G36*
G01*
X145109000Y-43280000D02*
X145109000Y-35660000D01*
G75*
G02*
X145160000Y-35609000I51000J0D01*
G01*
X146940000Y-35609000D01*
G75*
G02*
X146991000Y-35660000I0J-51000D01*
G01*
X146991000Y-43280000D01*
G75*
G02*
X146940000Y-43331000I-51000J0D01*
G01*
X145160000Y-43331000D01*
G75*
G02*
X145109000Y-43280000I0J51000D01*
G01*
G37*
G36*
G01*
X147649000Y-43280000D02*
X147649000Y-35660000D01*
G75*
G02*
X147700000Y-35609000I51000J0D01*
G01*
X149480000Y-35609000D01*
G75*
G02*
X149531000Y-35660000I0J-51000D01*
G01*
X149531000Y-43280000D01*
G75*
G02*
X149480000Y-43331000I-51000J0D01*
G01*
X147700000Y-43331000D01*
G75*
G02*
X147649000Y-43280000I0J51000D01*
G01*
G37*
G36*
G01*
X150189000Y-43280000D02*
X150189000Y-35660000D01*
G75*
G02*
X150240000Y-35609000I51000J0D01*
G01*
X152020000Y-35609000D01*
G75*
G02*
X152071000Y-35660000I0J-51000D01*
G01*
X152071000Y-43280000D01*
G75*
G02*
X152020000Y-43331000I-51000J0D01*
G01*
X150240000Y-43331000D01*
G75*
G02*
X150189000Y-43280000I0J51000D01*
G01*
G37*
G36*
G01*
X157809000Y-43280000D02*
X157809000Y-35660000D01*
G75*
G02*
X157860000Y-35609000I51000J0D01*
G01*
X159640000Y-35609000D01*
G75*
G02*
X159691000Y-35660000I0J-51000D01*
G01*
X159691000Y-43280000D01*
G75*
G02*
X159640000Y-43331000I-51000J0D01*
G01*
X157860000Y-43331000D01*
G75*
G02*
X157809000Y-43280000I0J51000D01*
G01*
G37*
G36*
G01*
X160349000Y-43280000D02*
X160349000Y-35660000D01*
G75*
G02*
X160400000Y-35609000I51000J0D01*
G01*
X162180000Y-35609000D01*
G75*
G02*
X162231000Y-35660000I0J-51000D01*
G01*
X162231000Y-43280000D01*
G75*
G02*
X162180000Y-43331000I-51000J0D01*
G01*
X160400000Y-43331000D01*
G75*
G02*
X160349000Y-43280000I0J51000D01*
G01*
G37*
G36*
G01*
X162889000Y-43280000D02*
X162889000Y-35660000D01*
G75*
G02*
X162940000Y-35609000I51000J0D01*
G01*
X164720000Y-35609000D01*
G75*
G02*
X164771000Y-35660000I0J-51000D01*
G01*
X164771000Y-43280000D01*
G75*
G02*
X164720000Y-43331000I-51000J0D01*
G01*
X162940000Y-43331000D01*
G75*
G02*
X162889000Y-43280000I0J51000D01*
G01*
G37*
G36*
G01*
X165429000Y-43280000D02*
X165429000Y-35660000D01*
G75*
G02*
X165480000Y-35609000I51000J0D01*
G01*
X167260000Y-35609000D01*
G75*
G02*
X167311000Y-35660000I0J-51000D01*
G01*
X167311000Y-43280000D01*
G75*
G02*
X167260000Y-43331000I-51000J0D01*
G01*
X165480000Y-43331000D01*
G75*
G02*
X165429000Y-43280000I0J51000D01*
G01*
G37*
G36*
G01*
X167969000Y-43280000D02*
X167969000Y-35660000D01*
G75*
G02*
X168020000Y-35609000I51000J0D01*
G01*
X169800000Y-35609000D01*
G75*
G02*
X169851000Y-35660000I0J-51000D01*
G01*
X169851000Y-43280000D01*
G75*
G02*
X169800000Y-43331000I-51000J0D01*
G01*
X168020000Y-43331000D01*
G75*
G02*
X167969000Y-43280000I0J51000D01*
G01*
G37*
G36*
G01*
X170509000Y-43280000D02*
X170509000Y-35660000D01*
G75*
G02*
X170560000Y-35609000I51000J0D01*
G01*
X172340000Y-35609000D01*
G75*
G02*
X172391000Y-35660000I0J-51000D01*
G01*
X172391000Y-43280000D01*
G75*
G02*
X172340000Y-43331000I-51000J0D01*
G01*
X170560000Y-43331000D01*
G75*
G02*
X170509000Y-43280000I0J51000D01*
G01*
G37*
G36*
G01*
X178129000Y-43280000D02*
X178129000Y-35660000D01*
G75*
G02*
X178180000Y-35609000I51000J0D01*
G01*
X179960000Y-35609000D01*
G75*
G02*
X180011000Y-35660000I0J-51000D01*
G01*
X180011000Y-43280000D01*
G75*
G02*
X179960000Y-43331000I-51000J0D01*
G01*
X178180000Y-43331000D01*
G75*
G02*
X178129000Y-43280000I0J51000D01*
G01*
G37*
G36*
G01*
X180669000Y-43280000D02*
X180669000Y-35660000D01*
G75*
G02*
X180720000Y-35609000I51000J0D01*
G01*
X182500000Y-35609000D01*
G75*
G02*
X182551000Y-35660000I0J-51000D01*
G01*
X182551000Y-43280000D01*
G75*
G02*
X182500000Y-43331000I-51000J0D01*
G01*
X180720000Y-43331000D01*
G75*
G02*
X180669000Y-43280000I0J51000D01*
G01*
G37*
G36*
G01*
X183209000Y-43280000D02*
X183209000Y-35660000D01*
G75*
G02*
X183260000Y-35609000I51000J0D01*
G01*
X185040000Y-35609000D01*
G75*
G02*
X185091000Y-35660000I0J-51000D01*
G01*
X185091000Y-43280000D01*
G75*
G02*
X185040000Y-43331000I-51000J0D01*
G01*
X183260000Y-43331000D01*
G75*
G02*
X183209000Y-43280000I0J51000D01*
G01*
G37*
D12*
X87500000Y-47300000D03*
X87500000Y-119300000D03*
D13*
X155400000Y-130000000D03*
D11*
X142700000Y-130000000D03*
D13*
X177900000Y-67400000D03*
D11*
X165200000Y-67400000D03*
D13*
X183100000Y-96600000D03*
D11*
X170400000Y-96600000D03*
D13*
X169500000Y-115800000D03*
D11*
X169500000Y-128500000D03*
D13*
X167900000Y-99300000D03*
D11*
X167900000Y-112000000D03*
X164100000Y-126000000D03*
X159100000Y-126000000D03*
X148900000Y-121000000D03*
X143900000Y-121000000D03*
D13*
X103100000Y-100600000D03*
D11*
X103100000Y-113300000D03*
D13*
X90100000Y-58500000D03*
D11*
X90100000Y-71200000D03*
D13*
X194500000Y-67400000D03*
D11*
X181800000Y-67400000D03*
D13*
X210800000Y-69800000D03*
D11*
X198100000Y-69800000D03*
D13*
X209400000Y-115800000D03*
D11*
X196700000Y-115800000D03*
D13*
X165400000Y-115800000D03*
D11*
X152700000Y-115800000D03*
D13*
X165400000Y-120800000D03*
D11*
X152700000Y-120800000D03*
D13*
X155400000Y-126000000D03*
D11*
X142700000Y-126000000D03*
X138500000Y-73600000D03*
X138500000Y-78600000D03*
X134700000Y-53600000D03*
X134700000Y-58600000D03*
X191700000Y-53400000D03*
X191700000Y-58400000D03*
X103300000Y-124800000D03*
X103300000Y-119800000D03*
X194700000Y-104400000D03*
X194700000Y-109400000D03*
X220100000Y-119600000D03*
X220100000Y-124600000D03*
X219900000Y-104400000D03*
X219900000Y-109400000D03*
X219900000Y-89200000D03*
X219900000Y-94200000D03*
X219700000Y-73800000D03*
X219700000Y-78800000D03*
X219700000Y-53400000D03*
X219700000Y-58400000D03*
D13*
X173100000Y-119580000D03*
X188340000Y-127200000D03*
X175640000Y-119580000D03*
X185800000Y-127200000D03*
X178180000Y-119580000D03*
X183260000Y-127200000D03*
X180720000Y-119580000D03*
X180720000Y-127200000D03*
X183260000Y-119580000D03*
X178180000Y-127200000D03*
X185800000Y-119580000D03*
X175640000Y-127200000D03*
X188340000Y-119580000D03*
G36*
G01*
X173900000Y-128051000D02*
X172300000Y-128051000D01*
G75*
G02*
X172249000Y-128000000I0J51000D01*
G01*
X172249000Y-126400000D01*
G75*
G02*
X172300000Y-126349000I51000J0D01*
G01*
X173900000Y-126349000D01*
G75*
G02*
X173951000Y-126400000I0J-51000D01*
G01*
X173951000Y-128000000D01*
G75*
G02*
X173900000Y-128051000I-51000J0D01*
G01*
G37*
X196700000Y-119580000D03*
X214480000Y-127200000D03*
X199240000Y-119580000D03*
X211940000Y-127200000D03*
X201780000Y-119580000D03*
X209400000Y-127200000D03*
X204320000Y-119580000D03*
X206860000Y-127200000D03*
X206860000Y-119580000D03*
X204320000Y-127200000D03*
X209400000Y-119580000D03*
X201780000Y-127200000D03*
X211940000Y-119580000D03*
X199240000Y-127200000D03*
X214480000Y-119580000D03*
G36*
G01*
X197500000Y-128051000D02*
X195900000Y-128051000D01*
G75*
G02*
X195849000Y-128000000I0J51000D01*
G01*
X195849000Y-126400000D01*
G75*
G02*
X195900000Y-126349000I51000J0D01*
G01*
X197500000Y-126349000D01*
G75*
G02*
X197551000Y-126400000I0J-51000D01*
G01*
X197551000Y-128000000D01*
G75*
G02*
X197500000Y-128051000I-51000J0D01*
G01*
G37*
X144900000Y-104380000D03*
X162680000Y-112000000D03*
X147440000Y-104380000D03*
X160140000Y-112000000D03*
X149980000Y-104380000D03*
X157600000Y-112000000D03*
X152520000Y-104380000D03*
X155060000Y-112000000D03*
X155060000Y-104380000D03*
X152520000Y-112000000D03*
X157600000Y-104380000D03*
X149980000Y-112000000D03*
X160140000Y-104380000D03*
X147440000Y-112000000D03*
X162680000Y-104380000D03*
G36*
G01*
X145700000Y-112851000D02*
X144100000Y-112851000D01*
G75*
G02*
X144049000Y-112800000I0J51000D01*
G01*
X144049000Y-111200000D01*
G75*
G02*
X144100000Y-111149000I51000J0D01*
G01*
X145700000Y-111149000D01*
G75*
G02*
X145751000Y-111200000I0J-51000D01*
G01*
X145751000Y-112800000D01*
G75*
G02*
X145700000Y-112851000I-51000J0D01*
G01*
G37*
X172900000Y-104380000D03*
X188140000Y-112000000D03*
X175440000Y-104380000D03*
X185600000Y-112000000D03*
X177980000Y-104380000D03*
X183060000Y-112000000D03*
X180520000Y-104380000D03*
X180520000Y-112000000D03*
X183060000Y-104380000D03*
X177980000Y-112000000D03*
X185600000Y-104380000D03*
X175440000Y-112000000D03*
X188140000Y-104380000D03*
G36*
G01*
X173700000Y-112851000D02*
X172100000Y-112851000D01*
G75*
G02*
X172049000Y-112800000I0J51000D01*
G01*
X172049000Y-111200000D01*
G75*
G02*
X172100000Y-111149000I51000J0D01*
G01*
X173700000Y-111149000D01*
G75*
G02*
X173751000Y-111200000I0J-51000D01*
G01*
X173751000Y-112800000D01*
G75*
G02*
X173700000Y-112851000I-51000J0D01*
G01*
G37*
X199300000Y-104180000D03*
X214540000Y-111800000D03*
X201840000Y-104180000D03*
X212000000Y-111800000D03*
X204380000Y-104180000D03*
X209460000Y-111800000D03*
X206920000Y-104180000D03*
X206920000Y-111800000D03*
X209460000Y-104180000D03*
X204380000Y-111800000D03*
X212000000Y-104180000D03*
X201840000Y-111800000D03*
X214540000Y-104180000D03*
G36*
G01*
X200100000Y-112651000D02*
X198500000Y-112651000D01*
G75*
G02*
X198449000Y-112600000I0J51000D01*
G01*
X198449000Y-111000000D01*
G75*
G02*
X198500000Y-110949000I51000J0D01*
G01*
X200100000Y-110949000D01*
G75*
G02*
X200151000Y-111000000I0J-51000D01*
G01*
X200151000Y-112600000D01*
G75*
G02*
X200100000Y-112651000I-51000J0D01*
G01*
G37*
X199300000Y-88980000D03*
X214540000Y-96600000D03*
X201840000Y-88980000D03*
X212000000Y-96600000D03*
X204380000Y-88980000D03*
X209460000Y-96600000D03*
X206920000Y-88980000D03*
X206920000Y-96600000D03*
X209460000Y-88980000D03*
X204380000Y-96600000D03*
X212000000Y-88980000D03*
X201840000Y-96600000D03*
X214540000Y-88980000D03*
G36*
G01*
X200100000Y-97451000D02*
X198500000Y-97451000D01*
G75*
G02*
X198449000Y-97400000I0J51000D01*
G01*
X198449000Y-95800000D01*
G75*
G02*
X198500000Y-95749000I51000J0D01*
G01*
X200100000Y-95749000D01*
G75*
G02*
X200151000Y-95800000I0J-51000D01*
G01*
X200151000Y-97400000D01*
G75*
G02*
X200100000Y-97451000I-51000J0D01*
G01*
G37*
X199300000Y-73780000D03*
X214540000Y-81400000D03*
X201840000Y-73780000D03*
X212000000Y-81400000D03*
X204380000Y-73780000D03*
X209460000Y-81400000D03*
X206920000Y-73780000D03*
X206920000Y-81400000D03*
X209460000Y-73780000D03*
X204380000Y-81400000D03*
X212000000Y-73780000D03*
X201840000Y-81400000D03*
X214540000Y-73780000D03*
G36*
G01*
X200100000Y-82251000D02*
X198500000Y-82251000D01*
G75*
G02*
X198449000Y-82200000I0J51000D01*
G01*
X198449000Y-80600000D01*
G75*
G02*
X198500000Y-80549000I51000J0D01*
G01*
X200100000Y-80549000D01*
G75*
G02*
X200151000Y-80600000I0J-51000D01*
G01*
X200151000Y-82200000D01*
G75*
G02*
X200100000Y-82251000I-51000J0D01*
G01*
G37*
X196700000Y-53380000D03*
X214480000Y-61000000D03*
X199240000Y-53380000D03*
X211940000Y-61000000D03*
X201780000Y-53380000D03*
X209400000Y-61000000D03*
X204320000Y-53380000D03*
X206860000Y-61000000D03*
X206860000Y-53380000D03*
X204320000Y-61000000D03*
X209400000Y-53380000D03*
X201780000Y-61000000D03*
X211940000Y-53380000D03*
X199240000Y-61000000D03*
X214480000Y-53380000D03*
G36*
G01*
X197500000Y-61851000D02*
X195900000Y-61851000D01*
G75*
G02*
X195849000Y-61800000I0J51000D01*
G01*
X195849000Y-60200000D01*
G75*
G02*
X195900000Y-60149000I51000J0D01*
G01*
X197500000Y-60149000D01*
G75*
G02*
X197551000Y-60200000I0J-51000D01*
G01*
X197551000Y-61800000D01*
G75*
G02*
X197500000Y-61851000I-51000J0D01*
G01*
G37*
X168900000Y-53380000D03*
X186680000Y-61000000D03*
X171440000Y-53380000D03*
X184140000Y-61000000D03*
X173980000Y-53380000D03*
X181600000Y-61000000D03*
X176520000Y-53380000D03*
X179060000Y-61000000D03*
X179060000Y-53380000D03*
X176520000Y-61000000D03*
X181600000Y-53380000D03*
X173980000Y-61000000D03*
X184140000Y-53380000D03*
X171440000Y-61000000D03*
X186680000Y-53380000D03*
G36*
G01*
X169700000Y-61851000D02*
X168100000Y-61851000D01*
G75*
G02*
X168049000Y-61800000I0J51000D01*
G01*
X168049000Y-60200000D01*
G75*
G02*
X168100000Y-60149000I51000J0D01*
G01*
X169700000Y-60149000D01*
G75*
G02*
X169751000Y-60200000I0J-51000D01*
G01*
X169751000Y-61800000D01*
G75*
G02*
X169700000Y-61851000I-51000J0D01*
G01*
G37*
X139700000Y-53580000D03*
X157480000Y-61200000D03*
X142240000Y-53580000D03*
X154940000Y-61200000D03*
X144780000Y-53580000D03*
X152400000Y-61200000D03*
X147320000Y-53580000D03*
X149860000Y-61200000D03*
X149860000Y-53580000D03*
X147320000Y-61200000D03*
X152400000Y-53580000D03*
X144780000Y-61200000D03*
X154940000Y-53580000D03*
X142240000Y-61200000D03*
X157480000Y-53580000D03*
G36*
G01*
X140500000Y-62051000D02*
X138900000Y-62051000D01*
G75*
G02*
X138849000Y-62000000I0J51000D01*
G01*
X138849000Y-60400000D01*
G75*
G02*
X138900000Y-60349000I51000J0D01*
G01*
X140500000Y-60349000D01*
G75*
G02*
X140551000Y-60400000I0J-51000D01*
G01*
X140551000Y-62000000D01*
G75*
G02*
X140500000Y-62051000I-51000J0D01*
G01*
G37*
X106700000Y-53600000D03*
X129560000Y-61220000D03*
X109240000Y-53600000D03*
X127020000Y-61220000D03*
X111780000Y-53600000D03*
X124480000Y-61220000D03*
X114320000Y-53600000D03*
X121940000Y-61220000D03*
X116860000Y-53600000D03*
X119400000Y-61220000D03*
X119400000Y-53600000D03*
X116860000Y-61220000D03*
X121940000Y-53600000D03*
X114320000Y-61220000D03*
X124480000Y-53600000D03*
X111780000Y-61220000D03*
X127020000Y-53600000D03*
X109240000Y-61220000D03*
X129560000Y-53600000D03*
G36*
G01*
X107500000Y-62071000D02*
X105900000Y-62071000D01*
G75*
G02*
X105849000Y-62020000I0J51000D01*
G01*
X105849000Y-60420000D01*
G75*
G02*
X105900000Y-60369000I51000J0D01*
G01*
X107500000Y-60369000D01*
G75*
G02*
X107551000Y-60420000I0J-51000D01*
G01*
X107551000Y-62020000D01*
G75*
G02*
X107500000Y-62071000I-51000J0D01*
G01*
G37*
X104300000Y-73960000D03*
X132240000Y-89200000D03*
X106840000Y-73960000D03*
X129700000Y-89200000D03*
X109380000Y-73960000D03*
X127160000Y-89200000D03*
X111920000Y-73960000D03*
X124620000Y-89200000D03*
X114460000Y-73960000D03*
X122080000Y-89200000D03*
X117000000Y-73960000D03*
X119540000Y-89200000D03*
X119540000Y-73960000D03*
X117000000Y-89200000D03*
X122080000Y-73960000D03*
X114460000Y-89200000D03*
X124620000Y-73960000D03*
X111920000Y-89200000D03*
X127160000Y-73960000D03*
X109380000Y-89200000D03*
X129700000Y-73960000D03*
X106840000Y-89200000D03*
X132240000Y-73960000D03*
G36*
G01*
X105100000Y-90051000D02*
X103500000Y-90051000D01*
G75*
G02*
X103449000Y-90000000I0J51000D01*
G01*
X103449000Y-88400000D01*
G75*
G02*
X103500000Y-88349000I51000J0D01*
G01*
X105100000Y-88349000D01*
G75*
G02*
X105151000Y-88400000I0J-51000D01*
G01*
X105151000Y-90000000D01*
G75*
G02*
X105100000Y-90051000I-51000J0D01*
G01*
G37*
X108300000Y-116980000D03*
X115920000Y-124600000D03*
X110840000Y-116980000D03*
X113380000Y-124600000D03*
X113380000Y-116980000D03*
X110840000Y-124600000D03*
X115920000Y-116980000D03*
G36*
G01*
X109100000Y-125451000D02*
X107500000Y-125451000D01*
G75*
G02*
X107449000Y-125400000I0J51000D01*
G01*
X107449000Y-123800000D01*
G75*
G02*
X107500000Y-123749000I51000J0D01*
G01*
X109100000Y-123749000D01*
G75*
G02*
X109151000Y-123800000I0J-51000D01*
G01*
X109151000Y-125400000D01*
G75*
G02*
X109100000Y-125451000I-51000J0D01*
G01*
G37*
X108000000Y-102980000D03*
X115620000Y-110600000D03*
X110540000Y-102980000D03*
X113080000Y-110600000D03*
X113080000Y-102980000D03*
X110540000Y-110600000D03*
X115620000Y-102980000D03*
G36*
G01*
X108800000Y-111451000D02*
X107200000Y-111451000D01*
G75*
G02*
X107149000Y-111400000I0J51000D01*
G01*
X107149000Y-109800000D01*
G75*
G02*
X107200000Y-109749000I51000J0D01*
G01*
X108800000Y-109749000D01*
G75*
G02*
X108851000Y-109800000I0J-51000D01*
G01*
X108851000Y-111400000D01*
G75*
G02*
X108800000Y-111451000I-51000J0D01*
G01*
G37*
X143500000Y-73600000D03*
X191760000Y-88840000D03*
X146040000Y-73600000D03*
X189220000Y-88840000D03*
X148580000Y-73600000D03*
X186680000Y-88840000D03*
X151120000Y-73600000D03*
X184140000Y-88840000D03*
X153660000Y-73600000D03*
X181600000Y-88840000D03*
X156200000Y-73600000D03*
X179060000Y-88840000D03*
X158740000Y-73600000D03*
X176520000Y-88840000D03*
X161280000Y-73600000D03*
X173980000Y-88840000D03*
X163820000Y-73600000D03*
X171440000Y-88840000D03*
X166360000Y-73600000D03*
X168900000Y-88840000D03*
X168900000Y-73600000D03*
X166360000Y-88840000D03*
X171440000Y-73600000D03*
X163820000Y-88840000D03*
X173980000Y-73600000D03*
X161280000Y-88840000D03*
X176520000Y-73600000D03*
X158740000Y-88840000D03*
X179060000Y-73600000D03*
X156200000Y-88840000D03*
X181600000Y-73600000D03*
X153660000Y-88840000D03*
X184140000Y-73600000D03*
X151120000Y-88840000D03*
X186680000Y-73600000D03*
X148580000Y-88840000D03*
X189220000Y-73600000D03*
X146040000Y-88840000D03*
X191760000Y-73600000D03*
G36*
G01*
X144300000Y-89691000D02*
X142700000Y-89691000D01*
G75*
G02*
X142649000Y-89640000I0J51000D01*
G01*
X142649000Y-88040000D01*
G75*
G02*
X142700000Y-87989000I51000J0D01*
G01*
X144300000Y-87989000D01*
G75*
G02*
X144351000Y-88040000I0J-51000D01*
G01*
X144351000Y-89640000D01*
G75*
G02*
X144300000Y-89691000I-51000J0D01*
G01*
G37*
G36*
G01*
X95669000Y-64935000D02*
X95669000Y-63335000D01*
G75*
G02*
X95720000Y-63284000I51000J0D01*
G01*
X97320000Y-63284000D01*
G75*
G02*
X97371000Y-63335000I0J-51000D01*
G01*
X97371000Y-64935000D01*
G75*
G02*
X97320000Y-64986000I-51000J0D01*
G01*
X95720000Y-64986000D01*
G75*
G02*
X95669000Y-64935000I0J51000D01*
G01*
G37*
D11*
X100020000Y-64135000D03*
M02*
